<svg width="146" height="50" viewBox="0 0 146 50" fill="none" xmlns="http://www.w3.org/2000/svg">
<path d="M41.269 11.8044C41.2654 11.8066 41.2619 11.8087 41.2584 11.8109C40.5787 12.2285 39.954 12.6232 39.3174 12.9975C39.0992 13.1255 38.9926 13.2629 38.9926 13.5335C38.9961 17.2263 38.99 20.9199 38.9763 24.6127C38.9746 24.9572 39.1309 25.0748 39.4367 25.0774C39.703 25.0791 40.9747 12.1422 41.2584 11.8109C41.2621 11.8066 41.2656 11.8044 41.269 11.8044C41.2947 11.8405 40.2931 25.1367 40.2931 25.159C40.2862 26.5033 40.3791 27.8579 40.245 29.1902C40.0449 31.1771 38.9548 32.7361 37.5023 34.0495C37.3047 34.2282 37.2369 34.4043 37.2111 34.6671C37.1415 35.3912 37.0797 36.1248 36.9019 36.8266C36.5832 38.0824 35.8281 39.0582 34.7441 39.7695C34.2657 40.083 33.7605 40.3562 33.289 40.6791C33.1541 40.7719 33.0287 40.9703 33.0141 41.1301C32.893 42.4263 32.3286 43.4648 31.2171 44.146C30.0102 44.8856 28.7656 45.5642 27.5424 46.278C26.8715 46.6688 26.2221 46.6757 25.5633 46.2479C25.2162 46.022 24.8546 45.8141 24.4861 45.6243C23.725 45.2326 23.5026 44.5738 23.5945 43.7895C23.7456 42.4993 24.3976 41.5115 25.5169 40.8492C26.5872 40.2153 27.6824 39.6209 28.7407 38.9672C29.5086 38.493 30.2559 38.4381 30.9817 38.9698C31.4688 39.3262 31.8622 39.3125 32.3381 38.9517C32.8028 38.5987 33.3388 38.341 33.8241 38.0137C34.6204 37.476 34.9992 36.6857 35.134 35.8328C34.5663 35.9178 33.9959 36.1085 33.4427 36.0673C31.6492 35.9333 30.6768 34.8363 30.6708 33.0462C30.6648 30.9417 30.6201 28.8363 30.6828 26.7344C30.7404 24.8103 31.6208 23.2701 33.2288 22.2032C34.3601 21.4525 35.5584 21.4053 36.755 22.1019C36.816 22.1371 36.8804 22.1646 36.9852 22.217C37.0006 22.0882 37.023 21.9842 37.0239 21.8811C37.029 19.4476 37.0341 17.0141 37.0281 14.5806C37.0281 14.4415 36.9774 14.2508 36.8795 14.17C34.3094 12.0466 31.6234 10.0882 28.4297 9.00927C22.7879 7.10318 17.3497 7.73368 12.1287 10.5116C9.84814 11.7254 7.72132 13.1736 5.72847 14.8168C5.59447 14.9277 5.46044 15.1338 5.45958 15.2962C5.45528 18.13 5.47249 20.9646 5.48537 23.7984C5.48537 23.868 5.50084 23.9367 5.51373 24.0423C6.82196 23.7503 7.92658 24.1686 8.89552 24.9932C10.0852 26.006 10.7767 27.3176 11.0765 28.838C11.1504 29.2143 11.177 29.6051 11.1796 29.9891C11.1908 31.3489 11.1933 32.7086 11.1779 34.0684C11.1487 36.6453 8.94536 38.1142 6.60377 37.0491C3.98731 35.8585 2.15592 33.9353 1.61562 31.0233C1.45843 30.1755 1.5289 29.2839 1.52117 28.412C1.51859 28.1577 1.47218 27.9928 1.23596 27.8579C0.818492 27.6191 0.670775 27.3711 0.461183 27C0.258462 26.6401 0.0110672 26.1348 0.0110672 25.6624C0.0110672 21.2249 0.01707 16.7874 0.00074932 12.3498C-0.000968649 11.9607 0.136476 11.7812 0.458595 11.5957C7.06418 7.78864 13.6638 3.97047 20.2582 0.142843C20.5666 -0.0358253 20.7822 -0.0547347 21.1026 0.130806C27.6626 3.93353 34.2313 7.72165 40.7973 11.5141C40.9331 11.5922 41.0645 11.6781 41.269 11.8044Z" fill="#4268FF"/>
<path d="M41.2584 11.8109C40.5787 12.2285 39.954 12.6232 39.3174 12.9975C39.0992 13.1255 38.9926 13.2629 38.9926 13.5335C38.9961 17.2263 38.99 20.9199 38.9763 24.6127C38.9746 24.9572 39.1309 25.0748 39.4367 25.0774C39.703 25.0791 40.9747 12.1422 41.2584 11.8109Z" fill="#4268FF"/>
<path d="M0.0128098 33.4233C0.658766 34.3725 1.23857 35.3612 1.95152 36.2425C3.3259 37.9407 4.99833 39.2627 7.13978 39.8846C8.10442 40.1646 9.0871 40.2248 10.0655 39.9645C11.9845 39.4534 12.9594 38.0782 13.3967 36.2417C13.5023 35.7984 13.5848 35.3371 13.583 34.8845C13.5762 33.0832 13.7188 31.2553 13.4619 29.4875C12.9654 26.073 11.1598 23.4411 8.11989 21.7085C7.98675 21.6329 7.86306 21.4104 7.86048 21.255C7.84072 19.7234 7.84329 18.1918 7.8536 16.6603C7.85446 16.522 7.91028 16.3321 8.00992 16.254C10.9734 13.9278 14.0838 11.8293 17.7328 10.7419C21.6524 9.57365 25.4628 9.99025 29.0989 11.8714C31.023 12.867 32.8234 14.0601 34.5285 15.3967C34.6041 15.456 34.6746 15.523 34.7785 15.614C34.3018 15.9061 33.8576 16.187 33.405 16.4532C29.2844 18.8739 25.1647 21.2962 21.0365 23.7031C20.7478 23.8714 20.704 24.0673 20.704 24.3585C20.71 32.7473 20.7092 41.1361 20.71 49.525C20.71 49.6676 20.71 49.8093 20.71 50C20.5958 49.9553 20.5073 49.933 20.4308 49.8892C13.8055 46.0298 7.18275 42.1652 0.549675 38.3195C0.134786 38.079 -0.0121125 37.8248 0.000772312 37.3523C0.0351317 36.0381 0.0128098 34.7213 0.0128098 33.4233Z" fill="#2544BD"/>
<path d="M67.7179 41.023C65.7299 41.023 63.8609 40.631 62.1109 39.847C60.3609 39.049 58.8209 37.95 57.4909 36.55C56.1749 35.15 55.1389 33.533 54.3829 31.699C53.6409 29.851 53.2699 27.877 53.2699 25.777C53.2699 23.663 53.6409 21.689 54.3829 19.855C55.1389 18.007 56.1749 16.39 57.4909 15.004C58.8209 13.604 60.3609 12.512 62.1109 11.728C63.8609 10.93 65.7299 10.531 67.7179 10.531C70.0979 10.531 72.2889 11.084 74.2909 12.19C76.2929 13.282 77.9519 14.745 79.2679 16.579L74.6899 19.036C73.8639 18.014 72.8349 17.195 71.6029 16.579C70.3849 15.963 69.0899 15.655 67.7179 15.655C66.4299 15.655 65.2189 15.921 64.0849 16.453C62.9509 16.971 61.9569 17.699 61.1029 18.637C60.2489 19.561 59.5839 20.639 59.1079 21.871C58.6319 23.089 58.3939 24.391 58.3939 25.777C58.3939 27.177 58.6319 28.486 59.1079 29.704C59.5979 30.922 60.2699 32 61.1239 32.938C61.9779 33.862 62.9649 34.59 64.0849 35.122C65.2189 35.64 66.4299 35.899 67.7179 35.899C69.1179 35.899 70.4199 35.591 71.6239 34.975C72.8419 34.345 73.8639 33.519 74.6899 32.497L79.2679 34.975C77.9519 36.795 76.2929 38.258 74.2909 39.364C72.2889 40.47 70.0979 41.023 67.7179 41.023Z" fill="#0C1021"/>
<path d="M91.3636 41.023C89.4316 41.023 87.6676 40.526 86.0716 39.532C84.4896 38.538 83.2226 37.208 82.2706 35.542C81.3326 33.862 80.8636 32.007 80.8636 29.977C80.8636 28.437 81.1366 27.002 81.6826 25.672C82.2286 24.328 82.9775 23.152 83.9296 22.144C84.8956 21.122 86.0155 20.324 87.2896 19.75C88.5636 19.176 89.9216 18.889 91.3636 18.889C93.2956 18.889 95.0526 19.386 96.6346 20.38C98.2306 21.374 99.4976 22.711 100.436 24.391C101.388 26.071 101.864 27.933 101.864 29.977C101.864 31.503 101.591 32.931 101.045 34.261C100.499 35.591 99.7426 36.767 98.7766 37.789C97.8245 38.797 96.7116 39.588 95.4376 40.162C94.1776 40.736 92.8196 41.023 91.3636 41.023ZM91.3636 35.899C92.3856 35.899 93.3026 35.626 94.1146 35.08C94.9266 34.534 95.5636 33.813 96.0256 32.917C96.5015 32.021 96.7396 31.041 96.7396 29.977C96.7396 28.885 96.4946 27.891 96.0046 26.995C95.5286 26.085 94.8775 25.364 94.0516 24.832C93.2396 24.286 92.3436 24.013 91.3636 24.013C90.3556 24.013 89.4456 24.286 88.6336 24.832C87.8216 25.378 87.1776 26.106 86.7016 27.016C86.2256 27.926 85.9875 28.913 85.9875 29.977C85.9875 31.083 86.2326 32.084 86.7225 32.98C87.2125 33.876 87.8636 34.59 88.6756 35.122C89.5016 35.64 90.3976 35.899 91.3636 35.899Z" fill="#0C1021"/>
<path d="M104.805 40.477V8.97699H109.929V40.477H104.805Z" fill="#0C1021"/>
<path d="M130.525 8.97699H135.649V40.477H130.525V37.852C129.853 38.79 129.006 39.553 127.984 40.141C126.962 40.729 125.779 41.023 124.435 41.023C122.909 41.023 121.481 40.736 120.151 40.162C118.821 39.588 117.645 38.797 116.623 37.789C115.615 36.767 114.824 35.591 114.25 34.261C113.676 32.931 113.389 31.503 113.389 29.977C113.389 28.451 113.676 27.023 114.25 25.693C114.824 24.363 115.615 23.194 116.623 22.186C117.645 21.164 118.821 20.366 120.151 19.792C121.481 19.218 122.909 18.931 124.435 18.931C125.779 18.931 126.962 19.225 127.984 19.813C129.006 20.387 129.853 21.15 130.525 22.102V8.97699ZM124.498 36.088C125.59 36.088 126.556 35.815 127.396 35.269C128.236 34.723 128.894 33.988 129.37 33.064C129.846 32.126 130.084 31.097 130.084 29.977C130.084 28.843 129.846 27.814 129.37 26.89C128.894 25.952 128.229 25.21 127.375 24.664C126.535 24.118 125.576 23.845 124.498 23.845C123.42 23.845 122.433 24.125 121.537 24.685C120.655 25.231 119.948 25.966 119.416 26.89C118.898 27.814 118.639 28.843 118.639 29.977C118.639 31.111 118.905 32.14 119.437 33.064C119.969 33.988 120.676 34.723 121.558 35.269C122.454 35.815 123.434 36.088 124.498 36.088Z" fill="#0C1021"/>
<path d="M140.694 19.477H145.818V40.477H140.694V19.477ZM143.298 16.768C142.542 16.768 141.905 16.523 141.387 16.033C140.869 15.529 140.61 14.899 140.61 14.143C140.61 13.401 140.869 12.778 141.387 12.274C141.905 11.77 142.535 11.518 143.277 11.518C144.019 11.518 144.642 11.77 145.146 12.274C145.664 12.778 145.923 13.401 145.923 14.143C145.923 14.899 145.671 15.529 145.167 16.033C144.663 16.523 144.04 16.768 143.298 16.768Z" fill="#0C1021"/>
</svg>
