<svg xmlns="http://www.w3.org/2000/svg" width="636" height="636" fill="none"><mask id="a" width="636" height="636" x="0" y="0" maskUnits="userSpaceOnUse" style="mask-type:luminance"><path fill="#fff" d="M0 0h636v636H0z"/></mask><g mask="url(#a)"><mask id="b" width="636" height="636" x="0" y="0" maskUnits="userSpaceOnUse" style="mask-type:luminance"><path fill="#fff" d="M308.306 554.88c36.484 0 69.683 21.63 84.578 55.117l2.013 4.508 4.77-1.309a303.6 303.6 0 0 0 54.769-21.005l4.385-2.197-1.486-4.684c-10.476-33.169-1.781-68.983 22.711-93.475 17.473-17.469 40.689-27.084 65.391-27.084a92.4 92.4 0 0 1 32.394 5.851l4.606 1.725 2.417-4.284a303.7 303.7 0 0 0 23.695-53.627l1.523-4.617-4.292-2.271c-30.141-15.947-48.868-47.248-48.868-81.712 0-35.537 20.65-68.324 52.625-83.533l4.366-2.077-1.302-4.665a304 304 0 0 0-21.349-54.941l-2.136-4.224-4.561 1.291c-8.19 2.32-16.695 3.487-25.297 3.487-24.701.011-47.918-9.616-65.39-27.078-24.605-24.615-33.334-61.903-22.221-94.997l1.504-4.482-4.108-2.339a303.4 303.4 0 0 0-54.129-24.144l-4.464-1.485-2.338 4.07C391.63 59.387 360.875 77.21 327.848 77.21c-34.695 0-67.201-20.144-82.796-51.31l-2.099-4.195-4.527 1.216a303.5 303.5 0 0 0-55.479 20.919l-4.243 2.099 1.246 4.557c8.695 31.964-.442 66.36-23.841 89.759-17.473 17.462-40.69 27.089-65.391 27.089-10.316 0-20.526-1.736-30.355-5.145l-4.471-1.541-2.376 4.078a303.4 303.4 0 0 0-24.597 53.639l-1.583 4.579 4.243 2.327c29.397 16.209 47.664 47.241 47.664 80.997 0 36.117-21.054 69.117-53.65 84.05l-4.396 2.02 1.238 4.685a303 303 0 0 0 20.44 54.94l2.155 4.415 4.692-1.437c8.736-2.671 17.873-4.022 27.163-4.022 24.713 0 47.929 9.616 65.402 27.085 25.69 25.69 33.899 64.369 20.9 98.545l-1.736 4.575 4.243 2.444a303 303 0 0 0 53.429 24.241l4.685 1.601 2.278-4.396c15.995-30.927 47.499-50.144 82.22-50.144m73.667 80.918c-5.601-35.802-36.798-62.996-73.667-62.996-35.226 0-65.484 24.799-72.862 58.649-35.017-9.205-67.957-24.13-98.062-44.435 21.084-29.244 18.15-70.4-7.767-96.329-14.08-14.08-32.806-21.84-52.73-21.84-14.098 0-27.575 3.862-39.357 11.21C19.464 448.8 6.896 415.085.105 379.664c35.306-6.33 61.216-36.857 61.216-73.386 0-34.407-23.18-63.849-55.936-72.223 9.29-34.605 24.174-67.153 44.318-96.913 12.096 7.951 26.445 12.28 41.015 12.28 19.912-.011 38.639-7.76 52.718-21.839 23.822-23.83 28.552-60.546 12.212-89.412C186.587 20.182 219.958 7.588 254.993.67c7.397 33.812 37.711 58.619 72.855 58.619 33.581 0 62.862-22.528 71.797-54.365 34.56 8.954 67.134 23.497 96.98 43.275-18.868 29.165-15.045 68.245 9.915 93.205 14.079 14.079 32.806 21.832 52.718 21.832 13.256 0 26.064-3.45 37.386-10.02 18.352 30.879 31.29 64.261 38.522 99.382-34.796 6.686-60.332 37.135-60.332 73.218 0 34.404 24.126 64.53 57.066 72.507-8.879 34.931-23.437 67.864-43.361 98.055a74.63 74.63 0 0 0-43.102-13.706c-19.912 0-38.639 7.757-52.718 21.836-24.806 24.818-28.735 63.658-10.181 92.767-31.264 18.487-65.039 31.426-100.565 38.523"/></mask><g mask="url(#b)"><mask id="c" width="636" height="636" x="0" y="0" maskUnits="userSpaceOnUse" style="mask-type:luminance"><path fill="#fff" d="M308.306 554.88c36.484 0 69.683 21.63 84.578 55.117l2.013 4.508 4.77-1.309a303.6 303.6 0 0 0 54.769-21.005l4.385-2.197-1.486-4.684c-10.476-33.169-1.781-68.983 22.711-93.475 17.473-17.469 40.689-27.084 65.391-27.084a92.4 92.4 0 0 1 32.394 5.851l4.606 1.725 2.417-4.284a303.7 303.7 0 0 0 23.695-53.627l1.523-4.617-4.292-2.271c-30.141-15.947-48.868-47.248-48.868-81.712 0-35.537 20.65-68.324 52.625-83.533l4.366-2.077-1.302-4.665a304 304 0 0 0-21.349-54.941l-2.136-4.224-4.561 1.291c-8.19 2.32-16.695 3.487-25.297 3.487-24.701.011-47.918-9.616-65.39-27.078-24.605-24.615-33.334-61.903-22.221-94.997l1.504-4.482-4.108-2.339a303.4 303.4 0 0 0-54.129-24.144l-4.464-1.485-2.338 4.07C391.63 59.387 360.875 77.21 327.848 77.21c-34.695 0-67.201-20.144-82.796-51.31l-2.099-4.195-4.527 1.216a303.5 303.5 0 0 0-55.479 20.919l-4.243 2.099 1.246 4.557c8.695 31.964-.442 66.36-23.841 89.759-17.473 17.462-40.69 27.089-65.391 27.089-10.316 0-20.526-1.736-30.355-5.145l-4.471-1.541-2.376 4.078a303.4 303.4 0 0 0-24.597 53.639l-1.583 4.579 4.243 2.327c29.397 16.209 47.664 47.241 47.664 80.997 0 36.117-21.054 69.117-53.65 84.05l-4.396 2.02 1.238 4.685a303 303 0 0 0 20.44 54.94l2.155 4.415 4.692-1.437c8.736-2.671 17.873-4.022 27.163-4.022 24.713 0 47.929 9.616 65.402 27.085 25.69 25.69 33.899 64.369 20.9 98.545l-1.736 4.575 4.243 2.444a303 303 0 0 0 53.429 24.241l4.685 1.601 2.278-4.396c15.995-30.927 47.499-50.144 82.22-50.144m73.667 80.918c-5.601-35.802-36.798-62.996-73.667-62.996-35.226 0-65.484 24.799-72.862 58.649-35.017-9.205-67.957-24.13-98.062-44.435 21.084-29.244 18.15-70.4-7.767-96.329-14.08-14.08-32.806-21.84-52.73-21.84-14.098 0-27.575 3.862-39.357 11.21C19.464 448.8 6.896 415.085.105 379.664c35.306-6.33 61.216-36.857 61.216-73.386 0-34.407-23.18-63.849-55.936-72.223 9.29-34.605 24.174-67.153 44.318-96.913 12.096 7.951 26.445 12.28 41.015 12.28 19.912-.011 38.639-7.76 52.718-21.839 23.822-23.83 28.552-60.546 12.212-89.412C186.587 20.182 219.958 7.588 254.993.67c7.397 33.812 37.711 58.619 72.855 58.619 33.581 0 62.862-22.528 71.797-54.365 34.56 8.954 67.134 23.497 96.98 43.275-18.868 29.165-15.045 68.245 9.915 93.205 14.079 14.079 32.806 21.832 52.718 21.832 13.256 0 26.064-3.45 37.386-10.02 18.352 30.879 31.29 64.261 38.522 99.382-34.796 6.686-60.332 37.135-60.332 73.218 0 34.404 24.126 64.53 57.066 72.507-8.879 34.931-23.437 67.864-43.361 98.055a74.63 74.63 0 0 0-43.102-13.706c-19.912 0-38.639 7.757-52.718 21.836-24.806 24.818-28.735 63.658-10.181 92.767-31.264 18.487-65.039 31.426-100.565 38.523"/></mask><g mask="url(#c)"><path fill="url(#d)" d="M858.685 92.653 92.079-222.822-223.41 543.817l766.605 315.475z"/></g></g></g><mask id="e" width="636" height="636" x="0" y="0" maskUnits="userSpaceOnUse" style="mask-type:luminance"><path fill="#fff" d="M0 0h636v636H0z"/></mask><g mask="url(#e)"><mask id="f" width="636" height="636" x="0" y="0" maskUnits="userSpaceOnUse" style="mask-type:luminance"><path fill="#fff" d="M308.306 554.88c36.484 0 69.683 21.63 84.578 55.117l2.013 4.508 4.77-1.309a303.6 303.6 0 0 0 54.769-21.005l4.385-2.197-1.486-4.684c-10.476-33.169-1.781-68.983 22.711-93.475 17.473-17.469 40.689-27.084 65.391-27.084a92.4 92.4 0 0 1 32.394 5.851l4.606 1.725 2.417-4.284a303.7 303.7 0 0 0 23.695-53.627l1.523-4.617-4.292-2.271c-30.141-15.947-48.868-47.248-48.868-81.712 0-35.537 20.65-68.324 52.625-83.533l4.366-2.077-1.302-4.665a304 304 0 0 0-21.349-54.941l-2.136-4.224-4.561 1.291c-8.19 2.32-16.695 3.487-25.297 3.487-24.701.011-47.918-9.616-65.39-27.078-24.605-24.615-33.334-61.903-22.221-94.997l1.504-4.482-4.108-2.339a303.4 303.4 0 0 0-54.129-24.144l-4.464-1.485-2.338 4.07C391.63 59.387 360.875 77.21 327.848 77.21c-34.695 0-67.201-20.144-82.796-51.31l-2.099-4.195-4.527 1.216a303.5 303.5 0 0 0-55.479 20.919l-4.243 2.099 1.246 4.557c8.695 31.964-.442 66.36-23.841 89.759-17.473 17.462-40.69 27.089-65.391 27.089-10.316 0-20.526-1.736-30.355-5.145l-4.471-1.541-2.376 4.078a303.4 303.4 0 0 0-24.597 53.639l-1.583 4.579 4.243 2.327c29.397 16.209 47.664 47.241 47.664 80.997 0 36.117-21.054 69.117-53.65 84.05l-4.396 2.02 1.238 4.685a303 303 0 0 0 20.44 54.94l2.155 4.415 4.692-1.437c8.736-2.671 17.873-4.022 27.163-4.022 24.713 0 47.929 9.616 65.402 27.085 25.69 25.69 33.899 64.369 20.9 98.545l-1.736 4.575 4.243 2.444a303 303 0 0 0 53.429 24.241l4.685 1.601 2.278-4.396c15.995-30.927 47.499-50.144 82.22-50.144m73.667 80.918c-5.601-35.802-36.798-62.996-73.667-62.996-35.226 0-65.484 24.799-72.862 58.649-35.017-9.205-67.957-24.13-98.062-44.435 21.084-29.244 18.15-70.4-7.767-96.329-14.08-14.08-32.806-21.84-52.73-21.84-14.098 0-27.575 3.862-39.357 11.21C19.464 448.8 6.896 415.085.105 379.664c35.306-6.33 61.216-36.857 61.216-73.386 0-34.407-23.18-63.849-55.936-72.223 9.29-34.605 24.174-67.153 44.318-96.913 12.096 7.951 26.445 12.28 41.015 12.28 19.912-.011 38.639-7.76 52.718-21.839 23.822-23.83 28.552-60.546 12.212-89.412C186.587 20.182 219.958 7.588 254.993.67c7.397 33.812 37.711 58.619 72.855 58.619 33.581 0 62.862-22.528 71.797-54.365 34.56 8.954 67.134 23.497 96.98 43.275-18.868 29.165-15.045 68.245 9.915 93.205 14.079 14.079 32.806 21.832 52.718 21.832 13.256 0 26.064-3.45 37.386-10.02 18.352 30.879 31.29 64.261 38.522 99.382-34.796 6.686-60.332 37.135-60.332 73.218 0 34.404 24.126 64.53 57.066 72.507-8.879 34.931-23.437 67.864-43.361 98.055a74.63 74.63 0 0 0-43.102-13.706c-19.912 0-38.639 7.757-52.718 21.836-24.806 24.818-28.735 63.658-10.181 92.767-31.264 18.487-65.039 31.426-100.565 38.523"/></mask><g mask="url(#f)"><mask id="g" width="636" height="636" x="0" y="0" maskUnits="userSpaceOnUse" style="mask-type:luminance"><path fill="#fff" d="M308.306 554.88c36.484 0 69.683 21.63 84.578 55.117l2.013 4.508 4.77-1.309a303.6 303.6 0 0 0 54.769-21.005l4.385-2.197-1.486-4.684c-10.476-33.169-1.781-68.983 22.711-93.475 17.473-17.469 40.689-27.084 65.391-27.084a92.4 92.4 0 0 1 32.394 5.851l4.606 1.725 2.417-4.284a303.7 303.7 0 0 0 23.695-53.627l1.523-4.617-4.292-2.271c-30.141-15.947-48.868-47.248-48.868-81.712 0-35.537 20.65-68.324 52.625-83.533l4.366-2.077-1.302-4.665a304 304 0 0 0-21.349-54.941l-2.136-4.224-4.561 1.291c-8.19 2.32-16.695 3.487-25.297 3.487-24.701.011-47.918-9.616-65.39-27.078-24.605-24.615-33.334-61.903-22.221-94.997l1.504-4.482-4.108-2.339a303.4 303.4 0 0 0-54.129-24.144l-4.464-1.485-2.338 4.07C391.63 59.387 360.875 77.21 327.848 77.21c-34.695 0-67.201-20.144-82.796-51.31l-2.099-4.195-4.527 1.216a303.5 303.5 0 0 0-55.479 20.919l-4.243 2.099 1.246 4.557c8.695 31.964-.442 66.36-23.841 89.759-17.473 17.462-40.69 27.089-65.391 27.089-10.316 0-20.526-1.736-30.355-5.145l-4.471-1.541-2.376 4.078a303.4 303.4 0 0 0-24.597 53.639l-1.583 4.579 4.243 2.327c29.397 16.209 47.664 47.241 47.664 80.997 0 36.117-21.054 69.117-53.65 84.05l-4.396 2.02 1.238 4.685a303 303 0 0 0 20.44 54.94l2.155 4.415 4.692-1.437c8.736-2.671 17.873-4.022 27.163-4.022 24.713 0 47.929 9.616 65.402 27.085 25.69 25.69 33.899 64.369 20.9 98.545l-1.736 4.575 4.243 2.444a303 303 0 0 0 53.429 24.241l4.685 1.601 2.278-4.396c15.995-30.927 47.499-50.144 82.22-50.144m73.667 80.918c-5.601-35.802-36.798-62.996-73.667-62.996-35.226 0-65.484 24.799-72.862 58.649-35.017-9.205-67.957-24.13-98.062-44.435 21.084-29.244 18.15-70.4-7.767-96.329-14.08-14.08-32.806-21.84-52.73-21.84-14.098 0-27.575 3.862-39.357 11.21C19.464 448.8 6.896 415.085.105 379.664c35.306-6.33 61.216-36.857 61.216-73.386 0-34.407-23.18-63.849-55.936-72.223 9.29-34.605 24.174-67.153 44.318-96.913 12.096 7.951 26.445 12.28 41.015 12.28 19.912-.011 38.639-7.76 52.718-21.839 23.822-23.83 28.552-60.546 12.212-89.412C186.587 20.182 219.958 7.588 254.993.67c7.397 33.812 37.711 58.619 72.855 58.619 33.581 0 62.862-22.528 71.797-54.365 34.56 8.954 67.134 23.497 96.98 43.275-18.868 29.165-15.045 68.245 9.915 93.205 14.079 14.079 32.806 21.832 52.718 21.832 13.256 0 26.064-3.45 37.386-10.02 18.352 30.879 31.29 64.261 38.522 99.382-34.796 6.686-60.332 37.135-60.332 73.218 0 34.404 24.126 64.53 57.066 72.507-8.879 34.931-23.437 67.864-43.361 98.055a74.63 74.63 0 0 0-43.102-13.706c-19.912 0-38.639 7.757-52.718 21.836-24.806 24.818-28.735 63.658-10.181 92.767-31.264 18.487-65.039 31.426-100.565 38.523"/></mask><g mask="url(#g)"><path fill="url(#h)" d="M858.685 92.653 92.079-222.822-223.41 543.817l766.605 315.475z"/></g></g></g><mask id="i" width="19" height="55" x="258" y="286" maskUnits="userSpaceOnUse" style="mask-type:luminance"><path fill="#fff" d="M258.613 286.393h18.199v54.596h-18.199z"/></mask><g mask="url(#i)"><mask id="j" width="18" height="55" x="259" y="286" maskUnits="userSpaceOnUse" style="mask-type:luminance"><path fill="#fff" d="M271.82 288.632c-1.455-2.597-4.643-2.709-6.293-.289l-.258.367c-1.052 1.549-1.198 3.742-.288 5.41.452.805.871 1.751 1.283 2.836 2.436 6.447 2.952 13.762 1.459 20.613-1.208 5.556-3.7 10.622-7.139 14.595-1.395 1.62-1.511 4.236-.344 6.084l.232.363c1.418 2.241 4.176 2.529 5.871.576 4.512-5.231 7.786-11.879 9.368-19.168 1.953-8.983 1.272-18.599-1.915-27.077-.614-1.598-1.265-3.027-1.976-4.31"/></mask><g mask="url(#j)"><mask id="k" width="18" height="55" x="259" y="286" maskUnits="userSpaceOnUse" style="mask-type:luminance"><path fill="#fff" d="M271.82 288.632c-1.455-2.597-4.643-2.709-6.293-.289l-.258.367c-1.052 1.549-1.198 3.742-.288 5.41.452.805.871 1.751 1.283 2.836 2.436 6.447 2.952 13.762 1.459 20.613-1.208 5.556-3.7 10.622-7.139 14.595-1.395 1.62-1.511 4.236-.344 6.084l.232.363c1.418 2.241 4.176 2.529 5.871.576 4.512-5.231 7.786-11.879 9.368-19.168 1.953-8.983 1.272-18.599-1.915-27.077-.614-1.598-1.265-3.027-1.976-4.31"/></mask><g mask="url(#k)"><path fill="url(#l)" d="M277.666 285.925h-18.592v55.218h18.592z"/></g></g></g><mask id="m" width="295" height="320" x="170" y="158" maskUnits="userSpaceOnUse" style="mask-type:luminance"><path fill="#fff" d="M170.494 158.042h294.054v319.916H170.494z"/></mask><g mask="url(#m)"><mask id="n" width="294" height="320" x="171" y="158" maskUnits="userSpaceOnUse" style="mask-type:luminance"><path fill="#fff" d="M454.654 323.182c-.453 2.795-3.173 4.127-5.182 2.567l-.067-.057c-1.658-1.283-3.88-.624-4.838 1.426l-.711 1.523c-.849 1.841-.382 4.149 1.092 5.298 3.959 3.113 6.006 6.36 8.161 12.459 2.473 6.985-.161 15.307-3.457 20.766-3.256 5.384-10.432 9.645-16.149 8.564-.909-.172-1.713-.756-2.252-1.639-1.923-3.18-4.06-6.319-6.264-9.578-1.216-1.789-2.585-3.802-4.482-5.429-1.541-1.313-5.429-4.464-9.608-6.525.048-.824.097-1.628.127-2.421.191-5.25.037-10.48-.183-15.614-.116-2.585-1.983-4.579-4.157-4.426l-.393.03c-2.155.142-3.801 2.327-3.697 4.894.221 4.894.363 9.855.184 14.686-.086 2.248-.24 4.617-.797 6.682-.891 3.248-2.979 6.028-5.545 7.577-1.572.95-2.425 3.008-2.088 5.051l.075.479c.497 3.015 3.277 4.673 5.593 3.303 3.824-2.252 6.986-6.005 8.853-10.573 2.136 1.204 4.587 2.911 6.817 4.808.988.849 1.908 2.2 2.873 3.618 8.441 12.444 14.016 20.653 13.085 34.953-.565 8.725-5.048 17.204-11.416 21.6-5.545 3.831-14.472 4.826-21.139 2.709-1.381-.442-2.384-1.897-2.474-3.592-.609-12.673-7.486-24.769-17.132-30.247.7-2.473 1.186-4.972 1.616-7.404.479-2.683.939-5.556.909-8.576a27.6 27.6 0 0 0-1.481-8.676c-.969-2.818-3.918-3.794-5.979-1.983l-.277.239c-1.426 1.257-2.039 3.506-1.369 5.47.546 1.598.841 3.323.86 5.059.019 2.028-.333 4.201-.737 6.446-.67 3.764-1.455 7.7-3.075 10.784-.928 1.792-2.163 3.199-3.458 4.033-1.339.853-2.069 2.634-1.941 4.434l.037.497c.239 3.353 3.292 5.298 5.796 3.697 1.983-1.265 3.801-3.091 5.313-5.362.086.056.175.135.269.191 7.786 4.366 13.084 14.723 12.396 24.971-.221 3.371-1.026 6.81-2.376 10.229-2.185 5.497-5.758 10.825-10.922 16.272-4.894 5.175-9.174 8.239-13.466 9.638-12.156 3.974-23.994 1.456-33.333-7.097-1.627-1.486-3.15-2.96-3.936-4.647-.67-1.456-.965-3.409-1.235-5.47-.662-5.134-1.1-11.015-1.32-17.114a9.9 9.9 0 0 1-3.517.658c-1.647 0-3.237-.43-4.752-1.216 0 .06.011.116.011.184-.221 6.233-.662 12.25-1.339 17.488-.27 2.061-.558 4.014-1.239 5.47-.786 1.687-2.308 3.161-3.936 4.647-9.328 8.553-21.177 11.071-33.333 7.097-4.281-1.399-8.561-4.463-13.466-9.638-5.163-5.447-8.736-10.775-10.91-16.272-1.358-3.419-2.155-6.858-2.384-10.229-.681-10.248 4.617-20.605 12.392-24.971.098-.056.184-.135.27-.191 1.511 2.271 3.333 4.097 5.316 5.362 2.489 1.601 5.557-.344 5.796-3.697l.037-.497c.135-1.8-.594-3.574-1.934-4.434-1.302-.834-2.529-2.241-3.468-4.033-1.62-3.084-2.406-7.02-3.076-10.784-.393-2.245-.744-4.418-.726-6.446a15.7 15.7 0 0 1 .861-5.059c.662-1.964.048-4.213-1.381-5.47l-.277-.239c-2.057-1.811-5.01-.835-5.975 1.983a27.9 27.9 0 0 0-1.485 8.676c-.019 3.02.441 5.893.92 8.576.43 2.432.909 4.931 1.609 7.404-9.646 5.478-16.515 17.574-17.136 30.247-.079 1.695-1.081 3.15-2.473 3.592-6.657 2.117-15.584 1.122-21.129-2.709-6.368-4.396-10.85-12.875-11.426-21.6-.928-14.3 4.647-22.509 13.095-34.953.965-1.418 1.874-2.769 2.873-3.618 2.219-1.897 4.674-3.604 6.818-4.808 1.867 4.576 5.028 8.332 8.852 10.581 2.316 1.362 5.096-.296 5.582-3.311l.079-.479c.333-2.043-.52-4.101-2.088-5.051-2.567-1.549-4.658-4.329-5.537-7.577-.565-2.065-.719-4.434-.805-6.682-.172-4.831-.037-9.792.184-14.686.112-2.567-1.546-4.752-3.701-4.894l-.381-.03c-2.185-.153-4.041 1.841-4.157 4.426-.232 5.134-.374 10.364-.184 15.614.03.793.068 1.597.128 2.421-4.187 2.061-8.067 5.212-9.609 6.525-1.897 1.627-3.266 3.64-4.482 5.429-2.215 3.259-4.348 6.398-6.275 9.578-.535.883-1.339 1.467-2.241 1.639-5.717 1.081-12.9-3.18-16.148-8.564-3.296-5.459-5.938-13.781-3.457-20.766 2.155-6.091 4.194-9.346 8.16-12.459 1.463-1.149 1.942-3.457 1.093-5.298l-.719-1.523c-.95-2.058-3.18-2.709-4.83-1.426-.026.019-.045.038-.075.057-2.002 1.571-4.722.25-5.182-2.548-1.687-10.353-1.553-20.238.486-28.305 3.42-13.503 12.127-29.435 26.303-33.659 12.022-3.581 25.488 2.455 32.08 13.881.247.43.546.786.879 1.063-2.787 4.501-4.433 10.02-4.684 15.613-.131 2.96 2.062 5.306 4.512 4.864l.386-.067c1.867-.333 3.225-2.211 3.341-4.453.191-3.85 1.381-7.644 3.382-10.641 2.009-3.008 4.846-5.238 7.958-6.33 1.811-.651 3.039-2.645 2.893-4.887l-.03-.449c-.199-2.94-2.612-4.953-4.999-4.13-2.432.834-4.759 2.136-6.866 3.812-7.445-12.9-21.151-20.305-34.8-18.954-1.923.191-3.591-1.56-3.666-3.85-.202-5.298-.109-10.634.658-15.823 1.302-8.774 4.55-16.104 9.141-20.631 1.781-1.755 3.962-3.307 6.656-4.744 9.997-5.324 21.054-5.459 29.565-.344 8.123 4.886 13.519 14.865 13.661 24.675.011.831.228 1.598.583 2.249a25 25 0 0 0-2.076 2.836c-1.534 2.424-.748 5.911 1.598 7.097l.363.191c1.65.835 3.573.258 4.646-1.437 2.193-3.457 5.624-5.851 9.235-6.435 1.769-.288 3.142-2.013 3.322-4.119l.049-.468c.258-3.001-1.897-5.526-4.415-5.126a18.7 18.7 0 0 0-5.28 1.657c-1.264-12.182-8.093-23.927-17.959-29.857a33 33 0 0 0-2.997-1.586c-2.088-.969-2.836-4.071-1.455-6.181 9.282-14.184 20.496-20.582 34.71-19.969 1.246.056 5.414 1.025 6.379 1.542 1.216.725 4.857 3.322 5.9 4.272.079.087.154.173.24.259 1.534 1.818 3.027 3.341 4.34 4.692 3.341 3.43 5.545 5.69 6.963 10.48 1.283 4.347 1.59 9.29 1.83 14.135v16.448a71 71 0 0 1-2.788 7.374c-2.941 6.57-7.805 12.77-14.865 18.936-4.954 4.329-10.805 6.226-15.901 5.298-1.437-.269-2.93.431-3.648 1.946-1.235 2.593.134 5.65 2.469 6.091 1.227.228 2.481.344 3.745.344 5.893 0 12.1-2.462 17.406-7.097 5.754-5.029 10.241-10.155 13.582-15.535v134.792c1.523-.812 3.143-1.253 4.808-1.253 1.676 0 3.285.441 4.819 1.253V234.964c3.457 6.458 8.474 12.519 15.258 18.45 5.316 4.635 11.524 7.097 17.413 7.097a20 20 0 0 0 3.592-.318c1.859-.333 3.315-2.402 3.056-4.594-.28-2.376-2.11-3.854-3.996-3.487-5.114.965-11.003-.921-15.987-5.28-7.057-6.166-11.924-12.366-14.865-18.936a68.4 68.4 0 0 1-4.471-13.783v-6.657c.411-4.778.333-9.473-.259-13.926.221-1.234.498-2.432.842-3.591 1.407-4.79 3.622-7.05 6.956-10.48 1.309-1.34 2.795-2.863 4.329-4.674.086-.097.172-.183.258-.277 1.033-.95 4.673-3.547 5.889-4.272.977-.517 5.145-1.486 6.379-1.542 14.226-.613 25.432 5.773 34.722 19.969 1.38 2.11.632 5.212-1.467 6.181a32 32 0 0 0-2.986 1.586c-9.877 5.93-16.706 17.675-17.97 29.857a19 19 0 0 0-5.287-1.664c-2.511-.393-4.666 2.132-4.396 5.133l.037.468c.191 2.106 1.564 3.831 3.334 4.119 3.603.584 7.041 2.978 9.223 6.435 1.074 1.695 3.008 2.272 4.647 1.437l.374-.191c2.346-1.186 3.12-4.673 1.598-7.097a26 26 0 0 0-2.088-2.836 4.9 4.9 0 0 0 .595-2.249c.142-9.81 5.537-19.789 13.66-24.675 8.504-5.115 19.557-4.98 29.566.344 2.693 1.437 4.867 2.989 6.648 4.744 4.599 4.527 7.835 11.857 9.137 20.631.767 5.189.864 10.525.67 15.823-.086 2.29-1.744 4.041-3.667 3.85-13.649-1.351-27.354 6.054-34.8 18.954-2.106-1.676-4.441-2.978-6.877-3.812-2.383-.823-4.796 1.19-4.987 4.13l-.03.449c-.154 2.242 1.074 4.236 2.892 4.887 3.102 1.092 5.949 3.322 7.951 6.33s3.188 6.799 3.378 10.641c.128 2.242 1.478 4.12 3.353 4.453l.374.067c2.462.442 4.654-1.915 4.523-4.864-.258-5.593-1.897-11.12-4.695-15.613.344-.277.643-.633.883-1.063 6.589-11.426 20.054-17.462 32.087-13.881 14.166 4.224 22.872 20.156 26.292 33.659 2.05 8.067 2.174 17.933.49 28.286m5.373 17.548c-.367-.928-.393-1.983-.116-2.96 4.624-16.253 5.429-32.787 2.155-45.699-4.273-16.878-13.38-30.325-24.634-36.992-1.239-.738-1.994-2.26-1.897-3.899.419-7.143.505-14.558-.595-21.989-1.639-11.064-5.889-20.47-11.992-26.475-2.364-2.339-5.163-4.34-8.545-6.151-6.043-3.207-12.43-4.834-18.648-4.902-1.141-.022-2.211-.711-2.825-1.859-11.591-21.607-26.58-31.732-45.755-30.901-1.964.086-7.569 1.257-9.781 2.577-.478.289-6.454 4.187-8.13 6.196-1.373 1.632-2.72 3.027-4.033 4.371-2.825 2.892-5.519 5.66-7.596 10.008-2.069-4.348-4.77-7.116-7.587-10.008-1.314-1.344-2.672-2.739-4.041-4.371-1.676-2.009-7.655-5.907-8.134-6.196-2.212-1.32-7.816-2.491-9.769-2.577-19.176-.831-34.176 9.294-45.756 30.901-.613 1.148-1.683 1.837-2.836 1.859-6.214.068-12.605 1.695-18.647 4.902-3.383 1.811-6.178 3.812-8.542 6.151-6.095 6.005-10.357 15.411-11.996 26.475-1.1 7.431-1.014 14.846-.583 21.989.097 1.639-.67 3.161-1.905 3.899-11.247 6.667-20.354 20.114-24.638 36.992-3.262 12.912-2.469 29.446 2.167 45.699a4.74 4.74 0 0 1-.116 2.96 94 94 0 0 0-.689 1.867c-3.229 9.099-1.601 20.421 4.359 30.276 3.334 5.538 9.253 10.155 15.565 11.966 1.904.535 2.997 2.918 2.402 5.14-1.291 4.857-1.886 10.204-1.482 16.381.775 12.021 6.713 23.257 15.498 29.311 4.901 3.39 11.415 5.122 17.813 5.122 2.892 0 5.758-.355 8.441-1.081 1.609-.43 3.244.583 3.869 2.402.247.729.509 1.459.793 2.177 2.675 6.724 6.888 13.085 12.904 19.423 5.878 6.218 11.206 9.952 16.751 11.763 4.408 1.437 8.83 2.144 13.17 2.144 9.983 0 19.539-3.734 27.396-10.929 2.009-1.83 4.071-3.858 5.593-6.638 1.523 2.78 3.592 4.808 5.594 6.638 7.854 7.195 17.413 10.929 27.392 10.929 4.351 0 8.774-.707 13.17-2.144 5.549-1.811 10.873-5.545 16.762-11.763 6.005-6.338 10.229-12.699 12.893-19.423.288-.718.558-1.448.805-2.177.613-1.819 2.252-2.832 3.868-2.402 2.676.726 5.538 1.081 8.43 1.081 6.398 0 12.923-1.732 17.825-5.122 8.774-6.054 14.715-17.29 15.497-29.311.404-6.177-.191-11.524-1.493-16.381-.595-2.211.509-4.605 2.406-5.14 6.312-1.811 12.231-6.428 15.572-11.966 5.949-9.855 7.577-21.177 4.359-30.276-.228-.64-.46-1.265-.688-1.867"/></mask><g mask="url(#n)"><mask id="o" width="294" height="320" x="171" y="158" maskUnits="userSpaceOnUse" style="mask-type:luminance"><path fill="#fff" d="M454.654 323.182c-.453 2.795-3.173 4.127-5.182 2.567l-.067-.057c-1.658-1.283-3.88-.624-4.838 1.426l-.711 1.523c-.849 1.841-.382 4.149 1.092 5.298 3.959 3.113 6.006 6.36 8.161 12.459 2.473 6.985-.161 15.307-3.457 20.766-3.256 5.384-10.432 9.645-16.149 8.564-.909-.172-1.713-.756-2.252-1.639-1.923-3.18-4.06-6.319-6.264-9.578-1.216-1.789-2.585-3.802-4.482-5.429-1.541-1.313-5.429-4.464-9.608-6.525.048-.824.097-1.628.127-2.421.191-5.25.037-10.48-.183-15.614-.116-2.585-1.983-4.579-4.157-4.426l-.393.03c-2.155.142-3.801 2.327-3.697 4.894.221 4.894.363 9.855.184 14.686-.086 2.248-.24 4.617-.797 6.682-.891 3.248-2.979 6.028-5.545 7.577-1.572.95-2.425 3.008-2.088 5.051l.075.479c.497 3.015 3.277 4.673 5.593 3.303 3.824-2.252 6.986-6.005 8.853-10.573 2.136 1.204 4.587 2.911 6.817 4.808.988.849 1.908 2.2 2.873 3.618 8.441 12.444 14.016 20.653 13.085 34.953-.565 8.725-5.048 17.204-11.416 21.6-5.545 3.831-14.472 4.826-21.139 2.709-1.381-.442-2.384-1.897-2.474-3.592-.609-12.673-7.486-24.769-17.132-30.247.7-2.473 1.186-4.972 1.616-7.404.479-2.683.939-5.556.909-8.576a27.6 27.6 0 0 0-1.481-8.676c-.969-2.818-3.918-3.794-5.979-1.983l-.277.239c-1.426 1.257-2.039 3.506-1.369 5.47.546 1.598.841 3.323.86 5.059.019 2.028-.333 4.201-.737 6.446-.67 3.764-1.455 7.7-3.075 10.784-.928 1.792-2.163 3.199-3.458 4.033-1.339.853-2.069 2.634-1.941 4.434l.037.497c.239 3.353 3.292 5.298 5.796 3.697 1.983-1.265 3.801-3.091 5.313-5.362.086.056.175.135.269.191 7.786 4.366 13.084 14.723 12.396 24.971-.221 3.371-1.026 6.81-2.376 10.229-2.185 5.497-5.758 10.825-10.922 16.272-4.894 5.175-9.174 8.239-13.466 9.638-12.156 3.974-23.994 1.456-33.333-7.097-1.627-1.486-3.15-2.96-3.936-4.647-.67-1.456-.965-3.409-1.235-5.47-.662-5.134-1.1-11.015-1.32-17.114a9.9 9.9 0 0 1-3.517.658c-1.647 0-3.237-.43-4.752-1.216 0 .06.011.116.011.184-.221 6.233-.662 12.25-1.339 17.488-.27 2.061-.558 4.014-1.239 5.47-.786 1.687-2.308 3.161-3.936 4.647-9.328 8.553-21.177 11.071-33.333 7.097-4.281-1.399-8.561-4.463-13.466-9.638-5.163-5.447-8.736-10.775-10.91-16.272-1.358-3.419-2.155-6.858-2.384-10.229-.681-10.248 4.617-20.605 12.392-24.971.098-.056.184-.135.27-.191 1.511 2.271 3.333 4.097 5.316 5.362 2.489 1.601 5.557-.344 5.796-3.697l.037-.497c.135-1.8-.594-3.574-1.934-4.434-1.302-.834-2.529-2.241-3.468-4.033-1.62-3.084-2.406-7.02-3.076-10.784-.393-2.245-.744-4.418-.726-6.446a15.7 15.7 0 0 1 .861-5.059c.662-1.964.048-4.213-1.381-5.47l-.277-.239c-2.057-1.811-5.01-.835-5.975 1.983a27.9 27.9 0 0 0-1.485 8.676c-.019 3.02.441 5.893.92 8.576.43 2.432.909 4.931 1.609 7.404-9.646 5.478-16.515 17.574-17.136 30.247-.079 1.695-1.081 3.15-2.473 3.592-6.657 2.117-15.584 1.122-21.129-2.709-6.368-4.396-10.85-12.875-11.426-21.6-.928-14.3 4.647-22.509 13.095-34.953.965-1.418 1.874-2.769 2.873-3.618 2.219-1.897 4.674-3.604 6.818-4.808 1.867 4.576 5.028 8.332 8.852 10.581 2.316 1.362 5.096-.296 5.582-3.311l.079-.479c.333-2.043-.52-4.101-2.088-5.051-2.567-1.549-4.658-4.329-5.537-7.577-.565-2.065-.719-4.434-.805-6.682-.172-4.831-.037-9.792.184-14.686.112-2.567-1.546-4.752-3.701-4.894l-.381-.03c-2.185-.153-4.041 1.841-4.157 4.426-.232 5.134-.374 10.364-.184 15.614.03.793.068 1.597.128 2.421-4.187 2.061-8.067 5.212-9.609 6.525-1.897 1.627-3.266 3.64-4.482 5.429-2.215 3.259-4.348 6.398-6.275 9.578-.535.883-1.339 1.467-2.241 1.639-5.717 1.081-12.9-3.18-16.148-8.564-3.296-5.459-5.938-13.781-3.457-20.766 2.155-6.091 4.194-9.346 8.16-12.459 1.463-1.149 1.942-3.457 1.093-5.298l-.719-1.523c-.95-2.058-3.18-2.709-4.83-1.426-.026.019-.045.038-.075.057-2.002 1.571-4.722.25-5.182-2.548-1.687-10.353-1.553-20.238.486-28.305 3.42-13.503 12.127-29.435 26.303-33.659 12.022-3.581 25.488 2.455 32.08 13.881.247.43.546.786.879 1.063-2.787 4.501-4.433 10.02-4.684 15.613-.131 2.96 2.062 5.306 4.512 4.864l.386-.067c1.867-.333 3.225-2.211 3.341-4.453.191-3.85 1.381-7.644 3.382-10.641 2.009-3.008 4.846-5.238 7.958-6.33 1.811-.651 3.039-2.645 2.893-4.887l-.03-.449c-.199-2.94-2.612-4.953-4.999-4.13-2.432.834-4.759 2.136-6.866 3.812-7.445-12.9-21.151-20.305-34.8-18.954-1.923.191-3.591-1.56-3.666-3.85-.202-5.298-.109-10.634.658-15.823 1.302-8.774 4.55-16.104 9.141-20.631 1.781-1.755 3.962-3.307 6.656-4.744 9.997-5.324 21.054-5.459 29.565-.344 8.123 4.886 13.519 14.865 13.661 24.675.011.831.228 1.598.583 2.249a25 25 0 0 0-2.076 2.836c-1.534 2.424-.748 5.911 1.598 7.097l.363.191c1.65.835 3.573.258 4.646-1.437 2.193-3.457 5.624-5.851 9.235-6.435 1.769-.288 3.142-2.013 3.322-4.119l.049-.468c.258-3.001-1.897-5.526-4.415-5.126a18.7 18.7 0 0 0-5.28 1.657c-1.264-12.182-8.093-23.927-17.959-29.857a33 33 0 0 0-2.997-1.586c-2.088-.969-2.836-4.071-1.455-6.181 9.282-14.184 20.496-20.582 34.71-19.969 1.246.056 5.414 1.025 6.379 1.542 1.216.725 4.857 3.322 5.9 4.272.079.087.154.173.24.259 1.534 1.818 3.027 3.341 4.34 4.692 3.341 3.43 5.545 5.69 6.963 10.48 1.283 4.347 1.59 9.29 1.83 14.135v16.448a71 71 0 0 1-2.788 7.374c-2.941 6.57-7.805 12.77-14.865 18.936-4.954 4.329-10.805 6.226-15.901 5.298-1.437-.269-2.93.431-3.648 1.946-1.235 2.593.134 5.65 2.469 6.091 1.227.228 2.481.344 3.745.344 5.893 0 12.1-2.462 17.406-7.097 5.754-5.029 10.241-10.155 13.582-15.535v134.792c1.523-.812 3.143-1.253 4.808-1.253 1.676 0 3.285.441 4.819 1.253V234.964c3.457 6.458 8.474 12.519 15.258 18.45 5.316 4.635 11.524 7.097 17.413 7.097a20 20 0 0 0 3.592-.318c1.859-.333 3.315-2.402 3.056-4.594-.28-2.376-2.11-3.854-3.996-3.487-5.114.965-11.003-.921-15.987-5.28-7.057-6.166-11.924-12.366-14.865-18.936a68.4 68.4 0 0 1-4.471-13.783v-6.657c.411-4.778.333-9.473-.259-13.926.221-1.234.498-2.432.842-3.591 1.407-4.79 3.622-7.05 6.956-10.48 1.309-1.34 2.795-2.863 4.329-4.674.086-.097.172-.183.258-.277 1.033-.95 4.673-3.547 5.889-4.272.977-.517 5.145-1.486 6.379-1.542 14.226-.613 25.432 5.773 34.722 19.969 1.38 2.11.632 5.212-1.467 6.181a32 32 0 0 0-2.986 1.586c-9.877 5.93-16.706 17.675-17.97 29.857a19 19 0 0 0-5.287-1.664c-2.511-.393-4.666 2.132-4.396 5.133l.037.468c.191 2.106 1.564 3.831 3.334 4.119 3.603.584 7.041 2.978 9.223 6.435 1.074 1.695 3.008 2.272 4.647 1.437l.374-.191c2.346-1.186 3.12-4.673 1.598-7.097a26 26 0 0 0-2.088-2.836 4.9 4.9 0 0 0 .595-2.249c.142-9.81 5.537-19.789 13.66-24.675 8.504-5.115 19.557-4.98 29.566.344 2.693 1.437 4.867 2.989 6.648 4.744 4.599 4.527 7.835 11.857 9.137 20.631.767 5.189.864 10.525.67 15.823-.086 2.29-1.744 4.041-3.667 3.85-13.649-1.351-27.354 6.054-34.8 18.954-2.106-1.676-4.441-2.978-6.877-3.812-2.383-.823-4.796 1.19-4.987 4.13l-.03.449c-.154 2.242 1.074 4.236 2.892 4.887 3.102 1.092 5.949 3.322 7.951 6.33s3.188 6.799 3.378 10.641c.128 2.242 1.478 4.12 3.353 4.453l.374.067c2.462.442 4.654-1.915 4.523-4.864-.258-5.593-1.897-11.12-4.695-15.613.344-.277.643-.633.883-1.063 6.589-11.426 20.054-17.462 32.087-13.881 14.166 4.224 22.872 20.156 26.292 33.659 2.05 8.067 2.174 17.933.49 28.286m5.373 17.548c-.367-.928-.393-1.983-.116-2.96 4.624-16.253 5.429-32.787 2.155-45.699-4.273-16.878-13.38-30.325-24.634-36.992-1.239-.738-1.994-2.26-1.897-3.899.419-7.143.505-14.558-.595-21.989-1.639-11.064-5.889-20.47-11.992-26.475-2.364-2.339-5.163-4.34-8.545-6.151-6.043-3.207-12.43-4.834-18.648-4.902-1.141-.022-2.211-.711-2.825-1.859-11.591-21.607-26.58-31.732-45.755-30.901-1.964.086-7.569 1.257-9.781 2.577-.478.289-6.454 4.187-8.13 6.196-1.373 1.632-2.72 3.027-4.033 4.371-2.825 2.892-5.519 5.66-7.596 10.008-2.069-4.348-4.77-7.116-7.587-10.008-1.314-1.344-2.672-2.739-4.041-4.371-1.676-2.009-7.655-5.907-8.134-6.196-2.212-1.32-7.816-2.491-9.769-2.577-19.176-.831-34.176 9.294-45.756 30.901-.613 1.148-1.683 1.837-2.836 1.859-6.214.068-12.605 1.695-18.647 4.902-3.383 1.811-6.178 3.812-8.542 6.151-6.095 6.005-10.357 15.411-11.996 26.475-1.1 7.431-1.014 14.846-.583 21.989.097 1.639-.67 3.161-1.905 3.899-11.247 6.667-20.354 20.114-24.638 36.992-3.262 12.912-2.469 29.446 2.167 45.699a4.74 4.74 0 0 1-.116 2.96 94 94 0 0 0-.689 1.867c-3.229 9.099-1.601 20.421 4.359 30.276 3.334 5.538 9.253 10.155 15.565 11.966 1.904.535 2.997 2.918 2.402 5.14-1.291 4.857-1.886 10.204-1.482 16.381.775 12.021 6.713 23.257 15.498 29.311 4.901 3.39 11.415 5.122 17.813 5.122 2.892 0 5.758-.355 8.441-1.081 1.609-.43 3.244.583 3.869 2.402.247.729.509 1.459.793 2.177 2.675 6.724 6.888 13.085 12.904 19.423 5.878 6.218 11.206 9.952 16.751 11.763 4.408 1.437 8.83 2.144 13.17 2.144 9.983 0 19.539-3.734 27.396-10.929 2.009-1.83 4.071-3.858 5.593-6.638 1.523 2.78 3.592 4.808 5.594 6.638 7.854 7.195 17.413 10.929 27.392 10.929 4.351 0 8.774-.707 13.17-2.144 5.549-1.811 10.873-5.545 16.762-11.763 6.005-6.338 10.229-12.699 12.893-19.423.288-.718.558-1.448.805-2.177.613-1.819 2.252-2.832 3.868-2.402 2.676.726 5.538 1.081 8.43 1.081 6.398 0 12.923-1.732 17.825-5.122 8.774-6.054 14.715-17.29 15.497-29.311.404-6.177-.191-11.524-1.493-16.381-.595-2.211.509-4.605 2.406-5.14 6.312-1.811 12.231-6.428 15.572-11.966 5.949-9.855 7.577-21.177 4.359-30.276-.228-.64-.46-1.265-.688-1.867"/></mask><g mask="url(#o)"><path fill="url(#p)" d="M465.341 158.072H169.939v319.549h295.402z"/></g></g></g><mask id="q" width="19" height="55" x="358" y="286" maskUnits="userSpaceOnUse" style="mask-type:luminance"><path fill="#fff" d="M358.229 286.393h18.198v54.596h-18.198z"/></mask><g mask="url(#q)"><mask id="r" width="18" height="55" x="358" y="286" maskUnits="userSpaceOnUse" style="mask-type:luminance"><path fill="#fff" d="M367.55 317.569c-1.493-6.851-.969-14.166 1.467-20.613.4-1.085.83-2.02 1.272-2.828.92-1.676.767-3.869-.288-5.418l-.247-.367c-1.658-2.42-4.849-2.308-6.293.289-.719 1.283-1.37 2.712-1.976 4.31-3.199 8.478-3.876 18.094-1.923 27.077 1.59 7.289 4.864 13.949 9.376 19.168 1.688 1.953 4.453 1.665 5.863-.576l.229-.363c1.171-1.848 1.055-4.475-.345-6.084-3.438-3.984-5.93-9.05-7.135-14.595"/></mask><g mask="url(#r)"><mask id="s" width="18" height="55" x="358" y="286" maskUnits="userSpaceOnUse" style="mask-type:luminance"><path fill="#fff" d="M367.55 317.569c-1.493-6.851-.969-14.166 1.467-20.613.4-1.085.83-2.02 1.272-2.828.92-1.676.767-3.869-.288-5.418l-.247-.367c-1.658-2.42-4.849-2.308-6.293.289-.719 1.283-1.37 2.712-1.976 4.31-3.199 8.478-3.876 18.094-1.923 27.077 1.59 7.289 4.864 13.949 9.376 19.168 1.688 1.953 4.453 1.665 5.863-.576l.229-.363c1.171-1.848 1.055-4.475-.345-6.084-3.438-3.984-5.93-9.05-7.135-14.595"/></mask><g mask="url(#s)"><path fill="url(#t)" d="M376.201 285.925h-18.592v55.218h18.592z"/></g></g></g><defs><linearGradient id="d" x1="475.792" x2="160.302" y1="-64.915" y2="701.725" gradientUnits="userSpaceOnUse"><stop stop-color="#B03AAB"/><stop offset=".063" stop-color="#B03AAB"/><stop offset=".078" stop-color="#B03AAB"/><stop offset=".082" stop-color="#AE3CAB"/><stop offset=".086" stop-color="#AC3EAC"/><stop offset=".09" stop-color="#AB3FAC"/><stop offset=".094" stop-color="#A941AD"/><stop offset=".098" stop-color="#A743AD"/><stop offset=".102" stop-color="#A645AD"/><stop offset=".105" stop-color="#A446AE"/><stop offset=".109" stop-color="#A248AE"/><stop offset=".113" stop-color="#A04AAE"/><stop offset=".117" stop-color="#9F4BAF"/><stop offset=".121" stop-color="#9D4DAF"/><stop offset=".125" stop-color="#9B4FAF"/><stop offset=".129" stop-color="#9A51B0"/><stop offset=".133" stop-color="#9852B0"/><stop offset=".137" stop-color="#9654B0"/><stop offset=".141" stop-color="#9556B1"/><stop offset=".145" stop-color="#9358B1"/><stop offset=".148" stop-color="#9159B2"/><stop offset=".152" stop-color="#905BB2"/><stop offset=".156" stop-color="#8E5DB2"/><stop offset=".16" stop-color="#8C5EB3"/><stop offset=".164" stop-color="#8B60B3"/><stop offset=".168" stop-color="#8962B3"/><stop offset=".172" stop-color="#8764B4"/><stop offset=".176" stop-color="#8665B4"/><stop offset=".18" stop-color="#8467B4"/><stop offset=".184" stop-color="#8269B5"/><stop offset=".188" stop-color="#806AB5"/><stop offset=".191" stop-color="#7F6CB5"/><stop offset=".195" stop-color="#7D6EB6"/><stop offset=".199" stop-color="#7B70B6"/><stop offset=".203" stop-color="#7A71B7"/><stop offset=".207" stop-color="#7873B7"/><stop offset=".211" stop-color="#7675B7"/><stop offset=".215" stop-color="#7576B8"/><stop offset=".219" stop-color="#7378B8"/><stop offset=".223" stop-color="#717AB8"/><stop offset=".227" stop-color="#707CB9"/><stop offset=".23" stop-color="#6E7DB9"/><stop offset=".234" stop-color="#6C7FB9"/><stop offset=".238" stop-color="#6B81BA"/><stop offset=".242" stop-color="#6982BA"/><stop offset=".246" stop-color="#6784BB"/><stop offset=".25" stop-color="#6586BB"/><stop offset=".254" stop-color="#6488BB"/><stop offset=".258" stop-color="#6289BC"/><stop offset=".262" stop-color="#608BBC"/><stop offset=".266" stop-color="#5F8DBC"/><stop offset=".27" stop-color="#5D8EBD"/><stop offset=".273" stop-color="#5B90BD"/><stop offset=".277" stop-color="#5A92BD"/><stop offset=".281" stop-color="#5894BE"/><stop offset=".285" stop-color="#5695BE"/><stop offset=".289" stop-color="#5597BE"/><stop offset=".293" stop-color="#5399BF"/><stop offset=".297" stop-color="#519ABF"/><stop offset=".301" stop-color="#509CC0"/><stop offset=".305" stop-color="#4E9EC0"/><stop offset=".309" stop-color="#4CA0C0"/><stop offset=".313" stop-color="#4AA1C1"/><stop offset=".316" stop-color="#49A3C1"/><stop offset=".32" stop-color="#47A5C1"/><stop offset=".324" stop-color="#45A7C2"/><stop offset=".328" stop-color="#44A8C2"/><stop offset=".332" stop-color="#42AAC2"/><stop offset=".336" stop-color="#40ACC3"/><stop offset=".34" stop-color="#3FADC3"/><stop offset=".344" stop-color="#3DAFC4"/><stop offset=".348" stop-color="#3BB1C4"/><stop offset=".352" stop-color="#3AB3C4"/><stop offset=".355" stop-color="#38B4C5"/><stop offset=".359" stop-color="#36B6C5"/><stop offset=".363" stop-color="#35B8C5"/><stop offset=".367" stop-color="#33B9C6"/><stop offset=".371" stop-color="#31BBC6"/><stop offset=".375" stop-color="#2FBDC6"/><stop offset=".379" stop-color="#2EBFC7"/><stop offset=".383" stop-color="#2CC0C7"/><stop offset=".387" stop-color="#2AC2C7"/><stop offset=".391" stop-color="#29C4C8"/><stop offset=".395" stop-color="#27C5C8"/><stop offset=".398" stop-color="#25C7C9"/><stop offset=".402" stop-color="#24C9C9"/><stop offset=".406" stop-color="#22CBC9"/><stop offset=".41" stop-color="#20CCCA"/><stop offset=".414" stop-color="#1FCECA"/><stop offset=".418" stop-color="#1DD0CA"/><stop offset=".422" stop-color="#1BD1CB"/><stop offset=".426" stop-color="#1AD3CB"/><stop offset=".43" stop-color="#18D5CB"/><stop offset=".434" stop-color="#16D7CC"/><stop offset=".438" stop-color="#14D8CC"/><stop offset=".441" stop-color="#13DACC"/><stop offset=".445" stop-color="#11DCCD"/><stop offset=".449" stop-color="#0FDDCD"/><stop offset=".453" stop-color="#0EDFCE"/><stop offset=".457" stop-color="#0CE1CE"/><stop offset=".461" stop-color="#0AE3CE"/><stop offset=".465" stop-color="#09E4CF"/><stop offset=".469" stop-color="#07E6CF"/><stop offset=".473" stop-color="#07E5CF"/><stop offset=".477" stop-color="#07E4CF"/><stop offset=".48" stop-color="#07E3D0"/><stop offset=".484" stop-color="#07E2D0"/><stop offset=".488" stop-color="#08E1D0"/><stop offset=".492" stop-color="#08E0D0"/><stop offset=".496" stop-color="#08DFD1"/><stop offset=".5" stop-color="#08DED1"/><stop offset=".504" stop-color="#08DED1"/><stop offset=".508" stop-color="#08DDD1"/><stop offset=".512" stop-color="#08DCD2"/><stop offset=".516" stop-color="#08DBD2"/><stop offset=".52" stop-color="#09DAD2"/><stop offset=".523" stop-color="#09D9D2"/><stop offset=".527" stop-color="#09D8D3"/><stop offset=".531" stop-color="#09D7D3"/><stop offset=".535" stop-color="#09D6D3"/><stop offset=".539" stop-color="#09D5D3"/><stop offset=".543" stop-color="#09D4D4"/><stop offset=".547" stop-color="#09D3D4"/><stop offset=".551" stop-color="#0AD2D4"/><stop offset=".555" stop-color="#0AD1D4"/><stop offset=".559" stop-color="#0AD0D5"/><stop offset=".563" stop-color="#0ACFD5"/><stop offset=".566" stop-color="#0ACED5"/><stop offset=".57" stop-color="#0ACED5"/><stop offset=".574" stop-color="#0ACDD6"/><stop offset=".578" stop-color="#0ACCD6"/><stop offset=".582" stop-color="#0BCBD6"/><stop offset=".586" stop-color="#0BCAD6"/><stop offset=".59" stop-color="#0BC9D7"/><stop offset=".594" stop-color="#0BC8D7"/><stop offset=".598" stop-color="#0BC7D7"/><stop offset=".602" stop-color="#0BC6D7"/><stop offset=".605" stop-color="#0BC5D8"/><stop offset=".609" stop-color="#0BC4D8"/><stop offset=".613" stop-color="#0CC3D8"/><stop offset=".617" stop-color="#0CC2D8"/><stop offset=".621" stop-color="#0CC1D9"/><stop offset=".625" stop-color="#0CC0D9"/><stop offset=".629" stop-color="#0CBFD9"/><stop offset=".633" stop-color="#0CBFD9"/><stop offset=".637" stop-color="#0CBEDA"/><stop offset=".641" stop-color="#0CBDDA"/><stop offset=".645" stop-color="#0DBCDA"/><stop offset=".648" stop-color="#0DBBDA"/><stop offset=".652" stop-color="#0DBADB"/><stop offset=".656" stop-color="#0DB9DB"/><stop offset=".66" stop-color="#0DB8DB"/><stop offset=".664" stop-color="#0DB7DB"/><stop offset=".668" stop-color="#0DB6DC"/><stop offset=".672" stop-color="#0DB5DC"/><stop offset=".676" stop-color="#0EB4DC"/><stop offset=".68" stop-color="#0EB3DC"/><stop offset=".684" stop-color="#0EB2DD"/><stop offset=".688" stop-color="#0EB1DD"/><stop offset=".691" stop-color="#0EB0DD"/><stop offset=".695" stop-color="#0EAFDD"/><stop offset=".699" stop-color="#0EAFDE"/><stop offset=".703" stop-color="#0EAEDE"/><stop offset=".707" stop-color="#0FADDE"/><stop offset=".711" stop-color="#0FACDE"/><stop offset=".715" stop-color="#0FABDF"/><stop offset=".719" stop-color="#0FAADF"/><stop offset=".723" stop-color="#0FA9DF"/><stop offset=".727" stop-color="#0FA8DF"/><stop offset=".73" stop-color="#0FA7E0"/><stop offset=".734" stop-color="#0FA6E0"/><stop offset=".738" stop-color="#10A5E0"/><stop offset=".742" stop-color="#10A4E0"/><stop offset=".746" stop-color="#10A3E1"/><stop offset=".75" stop-color="#10A2E1"/><stop offset=".754" stop-color="#10A1E1"/><stop offset=".758" stop-color="#10A0E1"/><stop offset=".762" stop-color="#109FE2"/><stop offset=".766" stop-color="#109FE2"/><stop offset=".77" stop-color="#119EE2"/><stop offset=".773" stop-color="#119DE2"/><stop offset=".777" stop-color="#119CE2"/><stop offset=".781" stop-color="#119BE3"/><stop offset=".785" stop-color="#119AE3"/><stop offset=".789" stop-color="#1199E3"/><stop offset=".793" stop-color="#1198E3"/><stop offset=".797" stop-color="#1197E4"/><stop offset=".801" stop-color="#1196E4"/><stop offset=".805" stop-color="#1295E4"/><stop offset=".809" stop-color="#1294E4"/><stop offset=".813" stop-color="#1293E5"/><stop offset=".816" stop-color="#1292E5"/><stop offset=".82" stop-color="#1291E5"/><stop offset=".824" stop-color="#1290E5"/><stop offset=".828" stop-color="#1290E6"/><stop offset=".832" stop-color="#128FE6"/><stop offset=".836" stop-color="#138EE6"/><stop offset=".84" stop-color="#138DE6"/><stop offset=".844" stop-color="#138CE7"/><stop offset=".848" stop-color="#138BE7"/><stop offset=".852" stop-color="#138AE7"/><stop offset=".855" stop-color="#1389E7"/><stop offset=".859" stop-color="#1388E8"/><stop offset=".863" stop-color="#1387E8"/><stop offset=".867" stop-color="#1486E8"/><stop offset=".871" stop-color="#1485E8"/><stop offset=".875" stop-color="#1484E9"/><stop offset=".879" stop-color="#1484E9"/><stop offset=".883" stop-color="#1483E9"/><stop offset=".891" stop-color="#1483E9"/><stop offset=".906" stop-color="#1483E9"/><stop offset=".938" stop-color="#1483E9"/><stop offset="1" stop-color="#1483E9"/></linearGradient><linearGradient id="h" x1="475.792" x2="160.302" y1="-64.915" y2="701.725" gradientUnits="userSpaceOnUse"><stop stop-color="#B03AAB"/><stop offset=".063" stop-color="#B03AAB"/><stop offset=".078" stop-color="#B03AAB"/><stop offset=".082" stop-color="#AE3CAB"/><stop offset=".086" stop-color="#AC3EAC"/><stop offset=".09" stop-color="#AB3FAC"/><stop offset=".094" stop-color="#A941AD"/><stop offset=".098" stop-color="#A743AD"/><stop offset=".102" stop-color="#A645AD"/><stop offset=".105" stop-color="#A446AE"/><stop offset=".109" stop-color="#A248AE"/><stop offset=".113" stop-color="#A04AAE"/><stop offset=".117" stop-color="#9F4BAF"/><stop offset=".121" stop-color="#9D4DAF"/><stop offset=".125" stop-color="#9B4FAF"/><stop offset=".129" stop-color="#9A51B0"/><stop offset=".133" stop-color="#9852B0"/><stop offset=".137" stop-color="#9654B0"/><stop offset=".141" stop-color="#9556B1"/><stop offset=".145" stop-color="#9358B1"/><stop offset=".148" stop-color="#9159B2"/><stop offset=".152" stop-color="#905BB2"/><stop offset=".156" stop-color="#8E5DB2"/><stop offset=".16" stop-color="#8C5EB3"/><stop offset=".164" stop-color="#8B60B3"/><stop offset=".168" stop-color="#8962B3"/><stop offset=".172" stop-color="#8764B4"/><stop offset=".176" stop-color="#8665B4"/><stop offset=".18" stop-color="#8467B4"/><stop offset=".184" stop-color="#8269B5"/><stop offset=".188" stop-color="#806AB5"/><stop offset=".191" stop-color="#7F6CB5"/><stop offset=".195" stop-color="#7D6EB6"/><stop offset=".199" stop-color="#7B70B6"/><stop offset=".203" stop-color="#7A71B7"/><stop offset=".207" stop-color="#7873B7"/><stop offset=".211" stop-color="#7675B7"/><stop offset=".215" stop-color="#7576B8"/><stop offset=".219" stop-color="#7378B8"/><stop offset=".223" stop-color="#717AB8"/><stop offset=".227" stop-color="#707CB9"/><stop offset=".23" stop-color="#6E7DB9"/><stop offset=".234" stop-color="#6C7FB9"/><stop offset=".238" stop-color="#6B81BA"/><stop offset=".242" stop-color="#6982BA"/><stop offset=".246" stop-color="#6784BB"/><stop offset=".25" stop-color="#6586BB"/><stop offset=".254" stop-color="#6488BB"/><stop offset=".258" stop-color="#6289BC"/><stop offset=".262" stop-color="#608BBC"/><stop offset=".266" stop-color="#5F8DBC"/><stop offset=".27" stop-color="#5D8EBD"/><stop offset=".273" stop-color="#5B90BD"/><stop offset=".277" stop-color="#5A92BD"/><stop offset=".281" stop-color="#5894BE"/><stop offset=".285" stop-color="#5695BE"/><stop offset=".289" stop-color="#5597BE"/><stop offset=".293" stop-color="#5399BF"/><stop offset=".297" stop-color="#519ABF"/><stop offset=".301" stop-color="#509CC0"/><stop offset=".305" stop-color="#4E9EC0"/><stop offset=".309" stop-color="#4CA0C0"/><stop offset=".313" stop-color="#4AA1C1"/><stop offset=".316" stop-color="#49A3C1"/><stop offset=".32" stop-color="#47A5C1"/><stop offset=".324" stop-color="#45A7C2"/><stop offset=".328" stop-color="#44A8C2"/><stop offset=".332" stop-color="#42AAC2"/><stop offset=".336" stop-color="#40ACC3"/><stop offset=".34" stop-color="#3FADC3"/><stop offset=".344" stop-color="#3DAFC4"/><stop offset=".348" stop-color="#3BB1C4"/><stop offset=".352" stop-color="#3AB3C4"/><stop offset=".355" stop-color="#38B4C5"/><stop offset=".359" stop-color="#36B6C5"/><stop offset=".363" stop-color="#35B8C5"/><stop offset=".367" stop-color="#33B9C6"/><stop offset=".371" stop-color="#31BBC6"/><stop offset=".375" stop-color="#2FBDC6"/><stop offset=".379" stop-color="#2EBFC7"/><stop offset=".383" stop-color="#2CC0C7"/><stop offset=".387" stop-color="#2AC2C7"/><stop offset=".391" stop-color="#29C4C8"/><stop offset=".395" stop-color="#27C5C8"/><stop offset=".398" stop-color="#25C7C9"/><stop offset=".402" stop-color="#24C9C9"/><stop offset=".406" stop-color="#22CBC9"/><stop offset=".41" stop-color="#20CCCA"/><stop offset=".414" stop-color="#1FCECA"/><stop offset=".418" stop-color="#1DD0CA"/><stop offset=".422" stop-color="#1BD1CB"/><stop offset=".426" stop-color="#1AD3CB"/><stop offset=".43" stop-color="#18D5CB"/><stop offset=".434" stop-color="#16D7CC"/><stop offset=".438" stop-color="#14D8CC"/><stop offset=".441" stop-color="#13DACC"/><stop offset=".445" stop-color="#11DCCD"/><stop offset=".449" stop-color="#0FDDCD"/><stop offset=".453" stop-color="#0EDFCE"/><stop offset=".457" stop-color="#0CE1CE"/><stop offset=".461" stop-color="#0AE3CE"/><stop offset=".465" stop-color="#09E4CF"/><stop offset=".469" stop-color="#07E6CF"/><stop offset=".473" stop-color="#07E5CF"/><stop offset=".477" stop-color="#07E4CF"/><stop offset=".48" stop-color="#07E3D0"/><stop offset=".484" stop-color="#07E2D0"/><stop offset=".488" stop-color="#08E1D0"/><stop offset=".492" stop-color="#08E0D0"/><stop offset=".496" stop-color="#08DFD1"/><stop offset=".5" stop-color="#08DED1"/><stop offset=".504" stop-color="#08DED1"/><stop offset=".508" stop-color="#08DDD1"/><stop offset=".512" stop-color="#08DCD2"/><stop offset=".516" stop-color="#08DBD2"/><stop offset=".52" stop-color="#09DAD2"/><stop offset=".523" stop-color="#09D9D2"/><stop offset=".527" stop-color="#09D8D3"/><stop offset=".531" stop-color="#09D7D3"/><stop offset=".535" stop-color="#09D6D3"/><stop offset=".539" stop-color="#09D5D3"/><stop offset=".543" stop-color="#09D4D4"/><stop offset=".547" stop-color="#09D3D4"/><stop offset=".551" stop-color="#0AD2D4"/><stop offset=".555" stop-color="#0AD1D4"/><stop offset=".559" stop-color="#0AD0D5"/><stop offset=".563" stop-color="#0ACFD5"/><stop offset=".566" stop-color="#0ACED5"/><stop offset=".57" stop-color="#0ACED5"/><stop offset=".574" stop-color="#0ACDD6"/><stop offset=".578" stop-color="#0ACCD6"/><stop offset=".582" stop-color="#0BCBD6"/><stop offset=".586" stop-color="#0BCAD6"/><stop offset=".59" stop-color="#0BC9D7"/><stop offset=".594" stop-color="#0BC8D7"/><stop offset=".598" stop-color="#0BC7D7"/><stop offset=".602" stop-color="#0BC6D7"/><stop offset=".605" stop-color="#0BC5D8"/><stop offset=".609" stop-color="#0BC4D8"/><stop offset=".613" stop-color="#0CC3D8"/><stop offset=".617" stop-color="#0CC2D8"/><stop offset=".621" stop-color="#0CC1D9"/><stop offset=".625" stop-color="#0CC0D9"/><stop offset=".629" stop-color="#0CBFD9"/><stop offset=".633" stop-color="#0CBFD9"/><stop offset=".637" stop-color="#0CBEDA"/><stop offset=".641" stop-color="#0CBDDA"/><stop offset=".645" stop-color="#0DBCDA"/><stop offset=".648" stop-color="#0DBBDA"/><stop offset=".652" stop-color="#0DBADB"/><stop offset=".656" stop-color="#0DB9DB"/><stop offset=".66" stop-color="#0DB8DB"/><stop offset=".664" stop-color="#0DB7DB"/><stop offset=".668" stop-color="#0DB6DC"/><stop offset=".672" stop-color="#0DB5DC"/><stop offset=".676" stop-color="#0EB4DC"/><stop offset=".68" stop-color="#0EB3DC"/><stop offset=".684" stop-color="#0EB2DD"/><stop offset=".688" stop-color="#0EB1DD"/><stop offset=".691" stop-color="#0EB0DD"/><stop offset=".695" stop-color="#0EAFDD"/><stop offset=".699" stop-color="#0EAFDE"/><stop offset=".703" stop-color="#0EAEDE"/><stop offset=".707" stop-color="#0FADDE"/><stop offset=".711" stop-color="#0FACDE"/><stop offset=".715" stop-color="#0FABDF"/><stop offset=".719" stop-color="#0FAADF"/><stop offset=".723" stop-color="#0FA9DF"/><stop offset=".727" stop-color="#0FA8DF"/><stop offset=".73" stop-color="#0FA7E0"/><stop offset=".734" stop-color="#0FA6E0"/><stop offset=".738" stop-color="#10A5E0"/><stop offset=".742" stop-color="#10A4E0"/><stop offset=".746" stop-color="#10A3E1"/><stop offset=".75" stop-color="#10A2E1"/><stop offset=".754" stop-color="#10A1E1"/><stop offset=".758" stop-color="#10A0E1"/><stop offset=".762" stop-color="#109FE2"/><stop offset=".766" stop-color="#109FE2"/><stop offset=".77" stop-color="#119EE2"/><stop offset=".773" stop-color="#119DE2"/><stop offset=".777" stop-color="#119CE2"/><stop offset=".781" stop-color="#119BE3"/><stop offset=".785" stop-color="#119AE3"/><stop offset=".789" stop-color="#1199E3"/><stop offset=".793" stop-color="#1198E3"/><stop offset=".797" stop-color="#1197E4"/><stop offset=".801" stop-color="#1196E4"/><stop offset=".805" stop-color="#1295E4"/><stop offset=".809" stop-color="#1294E4"/><stop offset=".813" stop-color="#1293E5"/><stop offset=".816" stop-color="#1292E5"/><stop offset=".82" stop-color="#1291E5"/><stop offset=".824" stop-color="#1290E5"/><stop offset=".828" stop-color="#1290E6"/><stop offset=".832" stop-color="#128FE6"/><stop offset=".836" stop-color="#138EE6"/><stop offset=".84" stop-color="#138DE6"/><stop offset=".844" stop-color="#138CE7"/><stop offset=".848" stop-color="#138BE7"/><stop offset=".852" stop-color="#138AE7"/><stop offset=".855" stop-color="#1389E7"/><stop offset=".859" stop-color="#1388E8"/><stop offset=".863" stop-color="#1387E8"/><stop offset=".867" stop-color="#1486E8"/><stop offset=".871" stop-color="#1485E8"/><stop offset=".875" stop-color="#1484E9"/><stop offset=".879" stop-color="#1484E9"/><stop offset=".883" stop-color="#1483E9"/><stop offset=".891" stop-color="#1483E9"/><stop offset=".906" stop-color="#1483E9"/><stop offset=".938" stop-color="#1483E9"/><stop offset="1" stop-color="#1483E9"/></linearGradient><linearGradient id="l" x1="268.125" x2="268.125" y1="285.924" y2="341.142" gradientUnits="userSpaceOnUse"><stop stop-color="#1FCDCA"/><stop offset=".008" stop-color="#1FCDCA"/><stop offset=".016" stop-color="#1FCECA"/><stop offset=".023" stop-color="#1ECECA"/><stop offset=".031" stop-color="#1ECFCA"/><stop offset=".039" stop-color="#1DCFCA"/><stop offset=".047" stop-color="#1DD0CA"/><stop offset=".055" stop-color="#1CD0CA"/><stop offset=".063" stop-color="#1CD1CB"/><stop offset=".07" stop-color="#1BD1CB"/><stop offset=".078" stop-color="#1BD2CB"/><stop offset=".086" stop-color="#1AD2CB"/><stop offset=".094" stop-color="#1AD3CB"/><stop offset=".102" stop-color="#19D3CB"/><stop offset=".109" stop-color="#19D4CB"/><stop offset=".117" stop-color="#18D4CB"/><stop offset=".125" stop-color="#18D5CB"/><stop offset=".133" stop-color="#17D5CC"/><stop offset=".141" stop-color="#17D6CC"/><stop offset=".148" stop-color="#16D7CC"/><stop offset=".156" stop-color="#16D7CC"/><stop offset=".164" stop-color="#15D8CC"/><stop offset=".172" stop-color="#15D8CC"/><stop offset=".18" stop-color="#14D9CC"/><stop offset=".188" stop-color="#14D9CC"/><stop offset=".195" stop-color="#13DACC"/><stop offset=".203" stop-color="#13DACD"/><stop offset=".211" stop-color="#12DBCD"/><stop offset=".219" stop-color="#12DBCD"/><stop offset=".227" stop-color="#11DCCD"/><stop offset=".234" stop-color="#11DCCD"/><stop offset=".242" stop-color="#10DDCD"/><stop offset=".25" stop-color="#10DDCD"/><stop offset=".258" stop-color="#0FDECD"/><stop offset=".266" stop-color="#0FDECD"/><stop offset=".273" stop-color="#0EDFCD"/><stop offset=".281" stop-color="#0EDFCE"/><stop offset=".289" stop-color="#0DE0CE"/><stop offset=".297" stop-color="#0DE0CE"/><stop offset=".305" stop-color="#0CE1CE"/><stop offset=".313" stop-color="#0CE1CE"/><stop offset=".32" stop-color="#0BE2CE"/><stop offset=".328" stop-color="#0BE2CE"/><stop offset=".336" stop-color="#0AE3CE"/><stop offset=".344" stop-color="#0AE3CE"/><stop offset=".352" stop-color="#09E4CF"/><stop offset=".359" stop-color="#09E4CF"/><stop offset=".367" stop-color="#08E5CF"/><stop offset=".375" stop-color="#08E5CF"/><stop offset=".406" stop-color="#07E5CF"/><stop offset=".422" stop-color="#07E5CF"/><stop offset=".438" stop-color="#07E4CF"/><stop offset=".453" stop-color="#07E4D0"/><stop offset=".469" stop-color="#07E3D0"/><stop offset=".484" stop-color="#07E3D0"/><stop offset=".5" stop-color="#08E2D0"/><stop offset=".516" stop-color="#08E2D0"/><stop offset=".531" stop-color="#08E1D0"/><stop offset=".547" stop-color="#08E0D0"/><stop offset=".563" stop-color="#08E0D1"/><stop offset=".578" stop-color="#08DFD1"/><stop offset=".594" stop-color="#08DFD1"/><stop offset=".609" stop-color="#08DED1"/><stop offset=".625" stop-color="#08DED1"/><stop offset=".641" stop-color="#08DDD1"/><stop offset=".656" stop-color="#08DCD1"/><stop offset=".672" stop-color="#08DCD2"/><stop offset=".688" stop-color="#08DBD2"/><stop offset=".703" stop-color="#08DBD2"/><stop offset=".719" stop-color="#09DAD2"/><stop offset=".734" stop-color="#09DAD2"/><stop offset=".75" stop-color="#09D9D2"/><stop offset=".766" stop-color="#09D9D3"/><stop offset=".781" stop-color="#09D8D3"/><stop offset=".797" stop-color="#09D7D3"/><stop offset=".813" stop-color="#09D7D3"/><stop offset=".828" stop-color="#09D6D3"/><stop offset=".844" stop-color="#09D6D3"/><stop offset=".859" stop-color="#09D5D3"/><stop offset=".875" stop-color="#09D5D4"/><stop offset=".891" stop-color="#09D4D4"/><stop offset=".906" stop-color="#09D4D4"/><stop offset=".922" stop-color="#09D3D4"/><stop offset=".938" stop-color="#0AD2D4"/><stop offset=".953" stop-color="#0AD2D4"/><stop offset=".969" stop-color="#0AD1D4"/><stop offset=".984" stop-color="#0AD1D5"/><stop offset="1" stop-color="#0AD0D5"/></linearGradient><linearGradient id="p" x1="317.635" x2="317.635" y1="158.071" y2="477.622" gradientUnits="userSpaceOnUse"><stop stop-color="#B03AAB"/><stop offset=".008" stop-color="#B03AAB"/><stop offset=".012" stop-color="#AF3BAB"/><stop offset=".016" stop-color="#AE3CAB"/><stop offset=".02" stop-color="#AD3EAC"/><stop offset=".023" stop-color="#AB3FAC"/><stop offset=".027" stop-color="#AA40AC"/><stop offset=".031" stop-color="#A842AD"/><stop offset=".035" stop-color="#A743AD"/><stop offset=".039" stop-color="#A545AD"/><stop offset=".043" stop-color="#A446AE"/><stop offset=".047" stop-color="#A248AE"/><stop offset=".051" stop-color="#A149AE"/><stop offset=".055" stop-color="#9F4BAF"/><stop offset=".059" stop-color="#9E4CAF"/><stop offset=".063" stop-color="#9D4EAF"/><stop offset=".066" stop-color="#9B4FAF"/><stop offset=".07" stop-color="#9A51B0"/><stop offset=".074" stop-color="#9852B0"/><stop offset=".078" stop-color="#9754B0"/><stop offset=".082" stop-color="#9555B1"/><stop offset=".086" stop-color="#9457B1"/><stop offset=".09" stop-color="#9258B1"/><stop offset=".094" stop-color="#915AB2"/><stop offset=".098" stop-color="#905BB2"/><stop offset=".102" stop-color="#8E5CB2"/><stop offset=".105" stop-color="#8D5EB3"/><stop offset=".109" stop-color="#8B5FB3"/><stop offset=".113" stop-color="#8A61B3"/><stop offset=".117" stop-color="#8862B3"/><stop offset=".121" stop-color="#8764B4"/><stop offset=".125" stop-color="#8565B4"/><stop offset=".129" stop-color="#8467B4"/><stop offset=".133" stop-color="#8368B5"/><stop offset=".137" stop-color="#816AB5"/><stop offset=".141" stop-color="#806BB5"/><stop offset=".145" stop-color="#7E6DB6"/><stop offset=".148" stop-color="#7D6EB6"/><stop offset=".152" stop-color="#7B70B6"/><stop offset=".156" stop-color="#7A71B7"/><stop offset=".16" stop-color="#7873B7"/><stop offset=".164" stop-color="#7774B7"/><stop offset=".168" stop-color="#7576B7"/><stop offset=".172" stop-color="#7477B8"/><stop offset=".176" stop-color="#7378B8"/><stop offset=".18" stop-color="#717AB8"/><stop offset=".184" stop-color="#707BB9"/><stop offset=".188" stop-color="#6E7DB9"/><stop offset=".191" stop-color="#6D7EB9"/><stop offset=".195" stop-color="#6B80BA"/><stop offset=".199" stop-color="#6A81BA"/><stop offset=".203" stop-color="#6883BA"/><stop offset=".207" stop-color="#6784BB"/><stop offset=".211" stop-color="#6686BB"/><stop offset=".215" stop-color="#6487BB"/><stop offset=".219" stop-color="#6389BB"/><stop offset=".223" stop-color="#618ABC"/><stop offset=".227" stop-color="#608CBC"/><stop offset=".23" stop-color="#5E8DBC"/><stop offset=".234" stop-color="#5D8FBD"/><stop offset=".238" stop-color="#5B90BD"/><stop offset=".242" stop-color="#5A92BD"/><stop offset=".246" stop-color="#5993BE"/><stop offset=".25" stop-color="#5794BE"/><stop offset=".254" stop-color="#5696BE"/><stop offset=".258" stop-color="#5497BF"/><stop offset=".262" stop-color="#5399BF"/><stop offset=".266" stop-color="#519ABF"/><stop offset=".27" stop-color="#509CBF"/><stop offset=".273" stop-color="#4E9DC0"/><stop offset=".277" stop-color="#4D9FC0"/><stop offset=".281" stop-color="#4CA0C0"/><stop offset=".285" stop-color="#4AA2C1"/><stop offset=".289" stop-color="#49A3C1"/><stop offset=".293" stop-color="#47A5C1"/><stop offset=".297" stop-color="#46A6C2"/><stop offset=".301" stop-color="#44A8C2"/><stop offset=".305" stop-color="#43A9C2"/><stop offset=".309" stop-color="#41ABC3"/><stop offset=".313" stop-color="#40ACC3"/><stop offset=".316" stop-color="#3EAEC3"/><stop offset=".32" stop-color="#3DAFC3"/><stop offset=".324" stop-color="#3CB0C4"/><stop offset=".328" stop-color="#3AB2C4"/><stop offset=".332" stop-color="#39B3C4"/><stop offset=".336" stop-color="#37B5C5"/><stop offset=".34" stop-color="#36B6C5"/><stop offset=".344" stop-color="#34B8C5"/><stop offset=".348" stop-color="#33B9C6"/><stop offset=".352" stop-color="#31BBC6"/><stop offset=".355" stop-color="#30BCC6"/><stop offset=".359" stop-color="#2FBEC7"/><stop offset=".363" stop-color="#2DBFC7"/><stop offset=".367" stop-color="#2CC1C7"/><stop offset=".371" stop-color="#2AC2C7"/><stop offset=".375" stop-color="#29C4C8"/><stop offset=".379" stop-color="#27C5C8"/><stop offset=".383" stop-color="#26C7C8"/><stop offset=".387" stop-color="#24C8C9"/><stop offset=".391" stop-color="#23CAC9"/><stop offset=".395" stop-color="#22CBC9"/><stop offset=".398" stop-color="#20CCCA"/><stop offset=".402" stop-color="#1FCECA"/><stop offset=".406" stop-color="#1DCFCA"/><stop offset=".41" stop-color="#1CD1CB"/><stop offset=".414" stop-color="#1AD2CB"/><stop offset=".418" stop-color="#19D4CB"/><stop offset=".422" stop-color="#17D5CC"/><stop offset=".426" stop-color="#16D7CC"/><stop offset=".43" stop-color="#14D8CC"/><stop offset=".434" stop-color="#13DACC"/><stop offset=".438" stop-color="#12DBCD"/><stop offset=".441" stop-color="#10DDCD"/><stop offset=".445" stop-color="#0FDECD"/><stop offset=".449" stop-color="#0DE0CE"/><stop offset=".453" stop-color="#0CE1CE"/><stop offset=".457" stop-color="#0AE3CE"/><stop offset=".461" stop-color="#09E4CF"/><stop offset=".465" stop-color="#08E5CF"/><stop offset=".469" stop-color="#07E5CF"/><stop offset=".473" stop-color="#07E5CF"/><stop offset=".477" stop-color="#07E4D0"/><stop offset=".48" stop-color="#07E3D0"/><stop offset=".484" stop-color="#07E2D0"/><stop offset=".488" stop-color="#08E1D0"/><stop offset=".492" stop-color="#08E1D0"/><stop offset=".496" stop-color="#08E0D1"/><stop offset=".5" stop-color="#08DFD1"/><stop offset=".504" stop-color="#08DED1"/><stop offset=".508" stop-color="#08DDD1"/><stop offset=".512" stop-color="#08DDD1"/><stop offset=".516" stop-color="#08DCD2"/><stop offset=".52" stop-color="#08DBD2"/><stop offset=".523" stop-color="#09DAD2"/><stop offset=".527" stop-color="#09D9D2"/><stop offset=".531" stop-color="#09D9D3"/><stop offset=".535" stop-color="#09D8D3"/><stop offset=".539" stop-color="#09D7D3"/><stop offset=".543" stop-color="#09D6D3"/><stop offset=".547" stop-color="#09D5D3"/><stop offset=".551" stop-color="#09D5D4"/><stop offset=".555" stop-color="#09D4D4"/><stop offset=".559" stop-color="#0AD3D4"/><stop offset=".563" stop-color="#0AD2D4"/><stop offset=".566" stop-color="#0AD1D4"/><stop offset=".57" stop-color="#0AD0D5"/><stop offset=".574" stop-color="#0AD0D5"/><stop offset=".578" stop-color="#0ACFD5"/><stop offset=".582" stop-color="#0ACED5"/><stop offset=".586" stop-color="#0ACDD5"/><stop offset=".59" stop-color="#0ACCD6"/><stop offset=".594" stop-color="#0ACCD6"/><stop offset=".598" stop-color="#0BCBD6"/><stop offset=".602" stop-color="#0BCAD6"/><stop offset=".605" stop-color="#0BC9D7"/><stop offset=".609" stop-color="#0BC8D7"/><stop offset=".613" stop-color="#0BC8D7"/><stop offset=".617" stop-color="#0BC7D7"/><stop offset=".621" stop-color="#0BC6D7"/><stop offset=".625" stop-color="#0BC5D8"/><stop offset=".629" stop-color="#0BC4D8"/><stop offset=".633" stop-color="#0CC4D8"/><stop offset=".637" stop-color="#0CC3D8"/><stop offset=".641" stop-color="#0CC2D8"/><stop offset=".645" stop-color="#0CC1D9"/><stop offset=".648" stop-color="#0CC0D9"/><stop offset=".652" stop-color="#0CC0D9"/><stop offset=".656" stop-color="#0CBFD9"/><stop offset=".66" stop-color="#0CBEDA"/><stop offset=".664" stop-color="#0CBDDA"/><stop offset=".668" stop-color="#0CBCDA"/><stop offset=".672" stop-color="#0DBCDA"/><stop offset=".676" stop-color="#0DBBDA"/><stop offset=".68" stop-color="#0DBADB"/><stop offset=".684" stop-color="#0DB9DB"/><stop offset=".688" stop-color="#0DB8DB"/><stop offset=".691" stop-color="#0DB7DB"/><stop offset=".695" stop-color="#0DB7DB"/><stop offset=".699" stop-color="#0DB6DC"/><stop offset=".703" stop-color="#0DB5DC"/><stop offset=".707" stop-color="#0EB4DC"/><stop offset=".711" stop-color="#0EB3DC"/><stop offset=".715" stop-color="#0EB3DC"/><stop offset=".719" stop-color="#0EB2DD"/><stop offset=".723" stop-color="#0EB1DD"/><stop offset=".727" stop-color="#0EB0DD"/><stop offset=".73" stop-color="#0EAFDD"/><stop offset=".734" stop-color="#0EAFDE"/><stop offset=".738" stop-color="#0EAEDE"/><stop offset=".742" stop-color="#0EADDE"/><stop offset=".746" stop-color="#0FACDE"/><stop offset=".75" stop-color="#0FABDE"/><stop offset=".754" stop-color="#0FABDF"/><stop offset=".758" stop-color="#0FAADF"/><stop offset=".762" stop-color="#0FA9DF"/><stop offset=".766" stop-color="#0FA8DF"/><stop offset=".77" stop-color="#0FA7DF"/><stop offset=".773" stop-color="#0FA7E0"/><stop offset=".777" stop-color="#0FA6E0"/><stop offset=".781" stop-color="#10A5E0"/><stop offset=".785" stop-color="#10A4E0"/><stop offset=".789" stop-color="#10A3E1"/><stop offset=".793" stop-color="#10A3E1"/><stop offset=".797" stop-color="#10A2E1"/><stop offset=".801" stop-color="#10A1E1"/><stop offset=".805" stop-color="#10A0E1"/><stop offset=".809" stop-color="#109FE2"/><stop offset=".813" stop-color="#109FE2"/><stop offset=".816" stop-color="#109EE2"/><stop offset=".82" stop-color="#119DE2"/><stop offset=".824" stop-color="#119CE2"/><stop offset=".828" stop-color="#119BE3"/><stop offset=".832" stop-color="#119AE3"/><stop offset=".836" stop-color="#119AE3"/><stop offset=".84" stop-color="#1199E3"/><stop offset=".844" stop-color="#1198E3"/><stop offset=".848" stop-color="#1197E4"/><stop offset=".852" stop-color="#1196E4"/><stop offset=".855" stop-color="#1296E4"/><stop offset=".859" stop-color="#1295E4"/><stop offset=".863" stop-color="#1294E5"/><stop offset=".867" stop-color="#1293E5"/><stop offset=".871" stop-color="#1292E5"/><stop offset=".875" stop-color="#1292E5"/><stop offset=".879" stop-color="#1291E5"/><stop offset=".883" stop-color="#1290E6"/><stop offset=".887" stop-color="#128FE6"/><stop offset=".891" stop-color="#138EE6"/><stop offset=".895" stop-color="#138EE6"/><stop offset=".898" stop-color="#138DE6"/><stop offset=".902" stop-color="#138CE7"/><stop offset=".906" stop-color="#138BE7"/><stop offset=".91" stop-color="#138AE7"/><stop offset=".914" stop-color="#138AE7"/><stop offset=".918" stop-color="#1389E7"/><stop offset=".922" stop-color="#1388E8"/><stop offset=".926" stop-color="#1387E8"/><stop offset=".93" stop-color="#1486E8"/><stop offset=".934" stop-color="#1486E8"/><stop offset=".938" stop-color="#1485E9"/><stop offset=".941" stop-color="#1484E9"/><stop offset=".945" stop-color="#1483E9"/><stop offset=".953" stop-color="#1483E9"/><stop offset=".969" stop-color="#1483E9"/><stop offset="1" stop-color="#1483E9"/></linearGradient><linearGradient id="t" x1="367.148" x2="367.148" y1="285.924" y2="341.142" gradientUnits="userSpaceOnUse"><stop stop-color="#1FCDCA"/><stop offset=".008" stop-color="#1FCDCA"/><stop offset=".016" stop-color="#1FCECA"/><stop offset=".023" stop-color="#1ECECA"/><stop offset=".031" stop-color="#1ECFCA"/><stop offset=".039" stop-color="#1DCFCA"/><stop offset=".047" stop-color="#1DD0CA"/><stop offset=".055" stop-color="#1CD0CA"/><stop offset=".063" stop-color="#1CD1CB"/><stop offset=".07" stop-color="#1BD1CB"/><stop offset=".078" stop-color="#1BD2CB"/><stop offset=".086" stop-color="#1AD2CB"/><stop offset=".094" stop-color="#1AD3CB"/><stop offset=".102" stop-color="#19D3CB"/><stop offset=".109" stop-color="#19D4CB"/><stop offset=".117" stop-color="#18D4CB"/><stop offset=".125" stop-color="#18D5CB"/><stop offset=".133" stop-color="#17D5CC"/><stop offset=".141" stop-color="#17D6CC"/><stop offset=".148" stop-color="#16D7CC"/><stop offset=".156" stop-color="#16D7CC"/><stop offset=".164" stop-color="#15D8CC"/><stop offset=".172" stop-color="#15D8CC"/><stop offset=".18" stop-color="#14D9CC"/><stop offset=".188" stop-color="#14D9CC"/><stop offset=".195" stop-color="#13DACC"/><stop offset=".203" stop-color="#13DACD"/><stop offset=".211" stop-color="#12DBCD"/><stop offset=".219" stop-color="#12DBCD"/><stop offset=".227" stop-color="#11DCCD"/><stop offset=".234" stop-color="#11DCCD"/><stop offset=".242" stop-color="#10DDCD"/><stop offset=".25" stop-color="#10DDCD"/><stop offset=".258" stop-color="#0FDECD"/><stop offset=".266" stop-color="#0FDECD"/><stop offset=".273" stop-color="#0EDFCD"/><stop offset=".281" stop-color="#0EDFCE"/><stop offset=".289" stop-color="#0DE0CE"/><stop offset=".297" stop-color="#0DE0CE"/><stop offset=".305" stop-color="#0CE1CE"/><stop offset=".313" stop-color="#0CE1CE"/><stop offset=".32" stop-color="#0BE2CE"/><stop offset=".328" stop-color="#0BE2CE"/><stop offset=".336" stop-color="#0AE3CE"/><stop offset=".344" stop-color="#0AE3CE"/><stop offset=".352" stop-color="#09E4CF"/><stop offset=".359" stop-color="#09E4CF"/><stop offset=".367" stop-color="#08E5CF"/><stop offset=".375" stop-color="#08E5CF"/><stop offset=".406" stop-color="#07E5CF"/><stop offset=".422" stop-color="#07E5CF"/><stop offset=".438" stop-color="#07E4CF"/><stop offset=".453" stop-color="#07E4D0"/><stop offset=".469" stop-color="#07E3D0"/><stop offset=".484" stop-color="#07E3D0"/><stop offset=".5" stop-color="#08E2D0"/><stop offset=".516" stop-color="#08E2D0"/><stop offset=".531" stop-color="#08E1D0"/><stop offset=".547" stop-color="#08E0D0"/><stop offset=".563" stop-color="#08E0D1"/><stop offset=".578" stop-color="#08DFD1"/><stop offset=".594" stop-color="#08DFD1"/><stop offset=".609" stop-color="#08DED1"/><stop offset=".625" stop-color="#08DED1"/><stop offset=".641" stop-color="#08DDD1"/><stop offset=".656" stop-color="#08DCD1"/><stop offset=".672" stop-color="#08DCD2"/><stop offset=".688" stop-color="#08DBD2"/><stop offset=".703" stop-color="#08DBD2"/><stop offset=".719" stop-color="#09DAD2"/><stop offset=".734" stop-color="#09DAD2"/><stop offset=".75" stop-color="#09D9D2"/><stop offset=".766" stop-color="#09D9D3"/><stop offset=".781" stop-color="#09D8D3"/><stop offset=".797" stop-color="#09D7D3"/><stop offset=".813" stop-color="#09D7D3"/><stop offset=".828" stop-color="#09D6D3"/><stop offset=".844" stop-color="#09D6D3"/><stop offset=".859" stop-color="#09D5D3"/><stop offset=".875" stop-color="#09D5D4"/><stop offset=".891" stop-color="#09D4D4"/><stop offset=".906" stop-color="#09D4D4"/><stop offset=".922" stop-color="#09D3D4"/><stop offset=".938" stop-color="#0AD2D4"/><stop offset=".953" stop-color="#0AD2D4"/><stop offset=".969" stop-color="#0AD1D4"/><stop offset=".984" stop-color="#0AD1D5"/><stop offset="1" stop-color="#0AD0D5"/></linearGradient></defs></svg>