<svg xmlns="http://www.w3.org/2000/svg" width="318" height="636" fill="none" viewBox="0 0 318 636"><g clip-path="url(#clip0_1410_86)"><mask id="mask0_1410_86" width="636" height="636" x="-318" y="0" maskUnits="userSpaceOnUse" style="mask-type:luminance"><path fill="#fff" d="M-318 0h636v636h-636z"/></mask><g mask="url(#mask0_1410_86)"><mask id="mask1_1410_86" width="636" height="636" x="-318" y="0" maskUnits="userSpaceOnUse" style="mask-type:luminance"><path fill="#fff" d="M-9.694 554.88c36.484 0 69.683 21.63 84.578 55.117l2.013 4.508 4.77-1.309a303.6 303.6 0 0 0 54.769-21.005l4.385-2.197-1.486-4.684c-10.476-33.169-1.781-68.983 22.711-93.475 17.473-17.469 40.689-27.085 65.391-27.085a92.4 92.4 0 0 1 32.394 5.852l4.606 1.725 2.417-4.284a303.7 303.7 0 0 0 23.695-53.627l1.523-4.617-4.292-2.272c-30.141-15.946-48.868-47.248-48.868-81.711 0-35.537 20.65-68.324 52.625-83.533l4.366-2.077-1.302-4.665a304 304 0 0 0-21.349-54.941l-2.136-4.224-4.561 1.291a92.8 92.8 0 0 1-25.297 3.487c-24.701.011-47.918-9.616-65.39-27.078-24.605-24.615-33.334-61.903-22.221-94.997l1.504-4.482-4.108-2.339a303.4 303.4 0 0 0-54.13-24.144l-4.463-1.485-2.338 4.07C73.63 59.386 42.875 77.21 9.848 77.21c-34.695 0-67.201-20.144-82.796-51.311l-2.099-4.194-4.527 1.216a303.5 303.5 0 0 0-55.479 20.919l-4.243 2.099 1.246 4.557c8.695 31.964-.442 66.36-23.841 89.759-17.473 17.462-40.69 27.089-65.391 27.089-10.316 0-20.526-1.736-30.355-5.145l-4.471-1.541-2.376 4.078a303.4 303.4 0 0 0-24.597 53.638l-1.583 4.58 4.243 2.327c29.397 16.209 47.664 47.241 47.664 80.997 0 36.117-21.054 69.117-53.65 84.05l-4.397 2.02 1.239 4.684a303 303 0 0 0 20.44 54.941l2.155 4.415 4.692-1.437c8.736-2.671 17.873-4.022 27.163-4.022 24.713 0 47.929 9.616 65.402 27.085 25.69 25.689 33.899 64.369 20.9 98.544l-1.736 4.576 4.243 2.444a303 303 0 0 0 53.43 24.241l4.684 1.601 2.278-4.396c15.995-30.927 47.499-50.144 82.22-50.144m73.667 80.918c-5.6-35.803-36.798-62.996-73.667-62.996-35.226 0-65.484 24.799-72.862 58.648-35.017-9.204-67.957-24.129-98.062-44.434 21.084-29.244 18.15-70.401-7.767-96.329-14.08-14.08-32.806-21.84-52.73-21.84-14.098 0-27.575 3.862-39.357 11.21-18.064-31.257-30.632-64.972-37.423-100.393 35.306-6.33 61.216-36.857 61.216-73.386 0-34.407-23.179-63.849-55.936-72.223 9.29-34.605 24.174-67.153 44.318-96.913 12.097 7.951 26.445 12.28 41.015 12.28 19.912-.011 38.639-7.76 52.718-21.839 23.822-23.83 28.552-60.546 12.212-89.412C-131.413 20.182-98.042 7.588-63.007.67c7.397 33.812 37.711 58.618 72.855 58.618 33.58 0 62.862-22.527 71.797-54.364 34.56 8.953 67.134 23.497 96.98 43.275-18.868 29.165-15.045 68.245 9.915 93.205 14.079 14.079 32.806 21.832 52.718 21.832 13.256 0 26.064-3.45 37.386-10.02 18.352 30.879 31.29 64.261 38.522 99.382-34.796 6.686-60.332 37.135-60.332 73.218 0 34.404 24.126 64.53 57.066 72.507-8.879 34.931-23.437 67.864-43.361 98.055a74.63 74.63 0 0 0-43.102-13.706c-19.912 0-38.639 7.757-52.718 21.836-24.806 24.817-28.735 63.658-10.181 92.767-31.264 18.487-65.039 31.425-100.565 38.523"/></mask><g mask="url(#mask1_1410_86)"><mask id="mask2_1410_86" width="636" height="636" x="-318" y="0" maskUnits="userSpaceOnUse" style="mask-type:luminance"><path fill="#fff" d="M-9.694 554.88c36.484 0 69.683 21.63 84.578 55.117l2.013 4.508 4.77-1.309a303.6 303.6 0 0 0 54.769-21.005l4.385-2.197-1.486-4.684c-10.476-33.169-1.781-68.983 22.711-93.475 17.473-17.469 40.689-27.085 65.391-27.085a92.4 92.4 0 0 1 32.394 5.852l4.606 1.725 2.417-4.284a303.7 303.7 0 0 0 23.695-53.627l1.523-4.617-4.292-2.272c-30.141-15.946-48.868-47.248-48.868-81.711 0-35.537 20.65-68.324 52.625-83.533l4.366-2.077-1.302-4.665a304 304 0 0 0-21.349-54.941l-2.136-4.224-4.561 1.291a92.8 92.8 0 0 1-25.297 3.487c-24.701.011-47.918-9.616-65.39-27.078-24.605-24.615-33.334-61.903-22.221-94.997l1.504-4.482-4.108-2.339a303.4 303.4 0 0 0-54.13-24.144l-4.463-1.485-2.338 4.07C73.63 59.386 42.875 77.21 9.848 77.21c-34.695 0-67.201-20.144-82.796-51.311l-2.099-4.194-4.527 1.216a303.5 303.5 0 0 0-55.479 20.919l-4.243 2.099 1.246 4.557c8.695 31.964-.442 66.36-23.841 89.759-17.473 17.462-40.69 27.089-65.391 27.089-10.316 0-20.526-1.736-30.355-5.145l-4.471-1.541-2.376 4.078a303.4 303.4 0 0 0-24.597 53.638l-1.583 4.58 4.243 2.327c29.397 16.209 47.664 47.241 47.664 80.997 0 36.117-21.054 69.117-53.65 84.05l-4.397 2.02 1.239 4.684a303 303 0 0 0 20.44 54.941l2.155 4.415 4.692-1.437c8.736-2.671 17.873-4.022 27.163-4.022 24.713 0 47.929 9.616 65.402 27.085 25.69 25.689 33.899 64.369 20.9 98.544l-1.736 4.576 4.243 2.444a303 303 0 0 0 53.43 24.241l4.684 1.601 2.278-4.396c15.995-30.927 47.499-50.144 82.22-50.144m73.667 80.918c-5.6-35.803-36.798-62.996-73.667-62.996-35.226 0-65.484 24.799-72.862 58.648-35.017-9.204-67.957-24.129-98.062-44.434 21.084-29.244 18.15-70.401-7.767-96.329-14.08-14.08-32.806-21.84-52.73-21.84-14.098 0-27.575 3.862-39.357 11.21-18.064-31.257-30.632-64.972-37.423-100.393 35.306-6.33 61.216-36.857 61.216-73.386 0-34.407-23.179-63.849-55.936-72.223 9.29-34.605 24.174-67.153 44.318-96.913 12.097 7.951 26.445 12.28 41.015 12.28 19.912-.011 38.639-7.76 52.718-21.839 23.822-23.83 28.552-60.546 12.212-89.412C-131.413 20.182-98.042 7.588-63.007.67c7.397 33.812 37.711 58.618 72.855 58.618 33.58 0 62.862-22.527 71.797-54.364 34.56 8.953 67.134 23.497 96.98 43.275-18.868 29.165-15.045 68.245 9.915 93.205 14.079 14.079 32.806 21.832 52.718 21.832 13.256 0 26.064-3.45 37.386-10.02 18.352 30.879 31.29 64.261 38.522 99.382-34.796 6.686-60.332 37.135-60.332 73.218 0 34.404 24.126 64.53 57.066 72.507-8.879 34.931-23.437 67.864-43.361 98.055a74.63 74.63 0 0 0-43.102-13.706c-19.912 0-38.639 7.757-52.718 21.836-24.806 24.817-28.735 63.658-10.181 92.767-31.264 18.487-65.039 31.425-100.565 38.523"/></mask><g mask="url(#mask2_1410_86)"><path fill="url(#paint0_linear_1410_86)" d="m540.685 92.652-766.606-315.474-315.489 766.639 766.605 315.475z"/></g></g></g><mask id="mask3_1410_86" width="636" height="636" x="-318" y="0" maskUnits="userSpaceOnUse" style="mask-type:luminance"><path fill="#fff" d="M-318 0h636v636h-636z"/></mask><g mask="url(#mask3_1410_86)"><mask id="mask4_1410_86" width="636" height="636" x="-318" y="0" maskUnits="userSpaceOnUse" style="mask-type:luminance"><path fill="#fff" d="M-9.694 554.88c36.484 0 69.683 21.63 84.578 55.117l2.013 4.508 4.77-1.309a303.6 303.6 0 0 0 54.769-21.005l4.385-2.197-1.486-4.684c-10.476-33.169-1.781-68.983 22.711-93.475 17.473-17.469 40.689-27.085 65.391-27.085a92.4 92.4 0 0 1 32.394 5.852l4.606 1.725 2.417-4.284a303.7 303.7 0 0 0 23.695-53.627l1.523-4.617-4.292-2.272c-30.141-15.946-48.868-47.248-48.868-81.711 0-35.537 20.65-68.324 52.625-83.533l4.366-2.077-1.302-4.665a304 304 0 0 0-21.349-54.941l-2.136-4.224-4.561 1.291a92.8 92.8 0 0 1-25.297 3.487c-24.701.011-47.918-9.616-65.39-27.078-24.605-24.615-33.334-61.903-22.221-94.997l1.504-4.482-4.108-2.339a303.4 303.4 0 0 0-54.13-24.144l-4.463-1.485-2.338 4.07C73.63 59.386 42.875 77.21 9.848 77.21c-34.695 0-67.201-20.144-82.796-51.311l-2.099-4.194-4.527 1.216a303.5 303.5 0 0 0-55.479 20.919l-4.243 2.099 1.246 4.557c8.695 31.964-.442 66.36-23.841 89.759-17.473 17.462-40.69 27.089-65.391 27.089-10.316 0-20.526-1.736-30.355-5.145l-4.471-1.541-2.376 4.078a303.4 303.4 0 0 0-24.597 53.638l-1.583 4.58 4.243 2.327c29.397 16.209 47.664 47.241 47.664 80.997 0 36.117-21.054 69.117-53.65 84.05l-4.397 2.02 1.239 4.684a303 303 0 0 0 20.44 54.941l2.155 4.415 4.692-1.437c8.736-2.671 17.873-4.022 27.163-4.022 24.713 0 47.929 9.616 65.402 27.085 25.69 25.689 33.899 64.369 20.9 98.544l-1.736 4.576 4.243 2.444a303 303 0 0 0 53.43 24.241l4.684 1.601 2.278-4.396c15.995-30.927 47.499-50.144 82.22-50.144m73.667 80.918c-5.6-35.803-36.798-62.996-73.667-62.996-35.226 0-65.484 24.799-72.862 58.648-35.017-9.204-67.957-24.129-98.062-44.434 21.084-29.244 18.15-70.401-7.767-96.329-14.08-14.08-32.806-21.84-52.73-21.84-14.098 0-27.575 3.862-39.357 11.21-18.064-31.257-30.632-64.972-37.423-100.393 35.306-6.33 61.216-36.857 61.216-73.386 0-34.407-23.179-63.849-55.936-72.223 9.29-34.605 24.174-67.153 44.318-96.913 12.097 7.951 26.445 12.28 41.015 12.28 19.912-.011 38.639-7.76 52.718-21.839 23.822-23.83 28.552-60.546 12.212-89.412C-131.413 20.182-98.042 7.588-63.007.67c7.397 33.812 37.711 58.618 72.855 58.618 33.58 0 62.862-22.527 71.797-54.364 34.56 8.953 67.134 23.497 96.98 43.275-18.868 29.165-15.045 68.245 9.915 93.205 14.079 14.079 32.806 21.832 52.718 21.832 13.256 0 26.064-3.45 37.386-10.02 18.352 30.879 31.29 64.261 38.522 99.382-34.796 6.686-60.332 37.135-60.332 73.218 0 34.404 24.126 64.53 57.066 72.507-8.879 34.931-23.437 67.864-43.361 98.055a74.63 74.63 0 0 0-43.102-13.706c-19.912 0-38.639 7.757-52.718 21.836-24.806 24.817-28.735 63.658-10.181 92.767-31.264 18.487-65.039 31.425-100.565 38.523"/></mask><g mask="url(#mask4_1410_86)"><mask id="mask5_1410_86" width="636" height="636" x="-318" y="0" maskUnits="userSpaceOnUse" style="mask-type:luminance"><path fill="#fff" d="M-9.694 554.88c36.484 0 69.683 21.63 84.578 55.117l2.013 4.508 4.77-1.309a303.6 303.6 0 0 0 54.769-21.005l4.385-2.197-1.486-4.684c-10.476-33.169-1.781-68.983 22.711-93.475 17.473-17.469 40.689-27.085 65.391-27.085a92.4 92.4 0 0 1 32.394 5.852l4.606 1.725 2.417-4.284a303.7 303.7 0 0 0 23.695-53.627l1.523-4.617-4.292-2.272c-30.141-15.946-48.868-47.248-48.868-81.711 0-35.537 20.65-68.324 52.625-83.533l4.366-2.077-1.302-4.665a304 304 0 0 0-21.349-54.941l-2.136-4.224-4.561 1.291a92.8 92.8 0 0 1-25.297 3.487c-24.701.011-47.918-9.616-65.39-27.078-24.605-24.615-33.334-61.903-22.221-94.997l1.504-4.482-4.108-2.339a303.4 303.4 0 0 0-54.13-24.144l-4.463-1.485-2.338 4.07C73.63 59.386 42.875 77.21 9.848 77.21c-34.695 0-67.201-20.144-82.796-51.311l-2.099-4.194-4.527 1.216a303.5 303.5 0 0 0-55.479 20.919l-4.243 2.099 1.246 4.557c8.695 31.964-.442 66.36-23.841 89.759-17.473 17.462-40.69 27.089-65.391 27.089-10.316 0-20.526-1.736-30.355-5.145l-4.471-1.541-2.376 4.078a303.4 303.4 0 0 0-24.597 53.638l-1.583 4.58 4.243 2.327c29.397 16.209 47.664 47.241 47.664 80.997 0 36.117-21.054 69.117-53.65 84.05l-4.397 2.02 1.239 4.684a303 303 0 0 0 20.44 54.941l2.155 4.415 4.692-1.437c8.736-2.671 17.873-4.022 27.163-4.022 24.713 0 47.929 9.616 65.402 27.085 25.69 25.689 33.899 64.369 20.9 98.544l-1.736 4.576 4.243 2.444a303 303 0 0 0 53.43 24.241l4.684 1.601 2.278-4.396c15.995-30.927 47.499-50.144 82.22-50.144m73.667 80.918c-5.6-35.803-36.798-62.996-73.667-62.996-35.226 0-65.484 24.799-72.862 58.648-35.017-9.204-67.957-24.129-98.062-44.434 21.084-29.244 18.15-70.401-7.767-96.329-14.08-14.08-32.806-21.84-52.73-21.84-14.098 0-27.575 3.862-39.357 11.21-18.064-31.257-30.632-64.972-37.423-100.393 35.306-6.33 61.216-36.857 61.216-73.386 0-34.407-23.179-63.849-55.936-72.223 9.29-34.605 24.174-67.153 44.318-96.913 12.097 7.951 26.445 12.28 41.015 12.28 19.912-.011 38.639-7.76 52.718-21.839 23.822-23.83 28.552-60.546 12.212-89.412C-131.413 20.182-98.042 7.588-63.007.67c7.397 33.812 37.711 58.618 72.855 58.618 33.58 0 62.862-22.527 71.797-54.364 34.56 8.953 67.134 23.497 96.98 43.275-18.868 29.165-15.045 68.245 9.915 93.205 14.079 14.079 32.806 21.832 52.718 21.832 13.256 0 26.064-3.45 37.386-10.02 18.352 30.879 31.29 64.261 38.522 99.382-34.796 6.686-60.332 37.135-60.332 73.218 0 34.404 24.126 64.53 57.066 72.507-8.879 34.931-23.437 67.864-43.361 98.055a74.63 74.63 0 0 0-43.102-13.706c-19.912 0-38.639 7.757-52.718 21.836-24.806 24.817-28.735 63.658-10.181 92.767-31.264 18.487-65.039 31.425-100.565 38.523"/></mask><g mask="url(#mask5_1410_86)"><path fill="url(#paint1_linear_1410_86)" d="m540.685 92.652-766.606-315.474-315.489 766.639 766.605 315.475z"/></g></g></g><mask id="mask6_1410_86" width="295" height="320" x="-148" y="158" maskUnits="userSpaceOnUse" style="mask-type:luminance"><path fill="#fff" d="M-147.506 158.042h294.054v319.916h-294.054z"/></mask><g mask="url(#mask6_1410_86)"><mask id="mask7_1410_86" width="294" height="320" x="-147" y="158" maskUnits="userSpaceOnUse" style="mask-type:luminance"><path fill="#fff" d="M136.655 323.182c-.453 2.795-3.173 4.127-5.182 2.567l-.067-.056c-1.658-1.284-3.88-.625-4.838 1.425l-.711 1.523c-.849 1.841-.382 4.149 1.092 5.298 3.959 3.113 6.006 6.36 8.161 12.459 2.473 6.986-.161 15.307-3.457 20.766-3.256 5.384-10.432 9.645-16.149 8.564-.909-.172-1.713-.756-2.252-1.639-1.923-3.18-4.06-6.319-6.264-9.578-1.216-1.789-2.585-3.801-4.482-5.429-1.541-1.313-5.429-4.464-9.608-6.525.048-.823.097-1.628.127-2.421.19-5.249.037-10.48-.183-15.613-.116-2.586-1.983-4.58-4.157-4.427l-.393.03c-2.155.142-3.801 2.327-3.697 4.894.221 4.894.363 9.855.184 14.686-.086 2.248-.24 4.617-.797 6.682-.89 3.248-2.978 6.028-5.545 7.577-1.572.95-2.425 3.008-2.088 5.051l.075.479c.497 3.015 3.277 4.673 5.593 3.303 3.824-2.252 6.986-6.005 8.853-10.573 2.136 1.205 4.587 2.911 6.817 4.808.988.849 1.908 2.2 2.873 3.618 8.441 12.444 14.016 20.653 13.085 34.953-.565 8.725-5.048 17.204-11.416 21.6-5.545 3.831-14.472 4.827-21.14 2.709-1.38-.442-2.383-1.897-2.473-3.592-.61-12.673-7.486-24.769-17.132-30.247.7-2.473 1.186-4.972 1.616-7.404.48-2.683.94-5.556.91-8.576a27.5 27.5 0 0 0-1.482-8.676c-.97-2.818-3.918-3.794-5.98-1.983l-.276.239c-1.425 1.257-2.04 3.506-1.37 5.47.547 1.598.842 3.323.861 5.059.019 2.028-.333 4.202-.737 6.447-.67 3.764-1.455 7.7-3.076 10.783-.927 1.792-2.162 3.199-3.457 4.033-1.34.853-2.069 2.634-1.942 4.434l.038.497c.24 3.353 3.292 5.298 5.796 3.697 1.983-1.265 3.8-3.091 5.313-5.362.086.056.175.135.269.191 7.786 4.367 13.084 14.723 12.396 24.971-.221 3.371-1.026 6.81-2.376 10.229-2.185 5.497-5.758 10.825-10.922 16.272-4.894 5.175-9.174 8.239-13.466 9.639-12.156 3.973-23.994 1.455-33.333-7.098-1.627-1.486-3.15-2.96-3.936-4.647-.67-1.456-.965-3.409-1.235-5.47-.662-5.134-1.1-11.015-1.32-17.114a9.9 9.9 0 0 1-3.517.659c-1.647 0-3.237-.431-4.752-1.216 0 .059.011.116.011.183-.22 6.233-.662 12.25-1.34 17.488-.269 2.061-.557 4.014-1.238 5.47-.786 1.687-2.308 3.161-3.936 4.647-9.328 8.553-21.177 11.071-33.333 7.098-4.28-1.4-8.56-4.464-13.466-9.639-5.163-5.447-8.736-10.775-10.91-16.272-1.358-3.419-2.155-6.858-2.384-10.229-.68-10.248 4.617-20.604 12.392-24.971.098-.056.184-.135.27-.191 1.511 2.271 3.333 4.097 5.316 5.362 2.489 1.601 5.557-.344 5.796-3.697l.037-.497c.135-1.8-.594-3.573-1.934-4.434-1.302-.834-2.53-2.241-3.468-4.033-1.62-3.083-2.406-7.019-3.076-10.783-.393-2.245-.744-4.419-.726-6.447.008-1.736.307-3.461.86-5.059.663-1.964.05-4.213-1.38-5.47l-.277-.239c-2.057-1.811-5.01-.835-5.975 1.983a27.9 27.9 0 0 0-1.485 8.676c-.019 3.02.441 5.893.92 8.576.43 2.432.91 4.931 1.609 7.404-9.646 5.478-16.515 17.574-17.136 30.247-.079 1.695-1.082 3.15-2.473 3.592-6.657 2.118-15.584 1.122-21.129-2.709-6.368-4.396-10.85-12.875-11.426-21.6-.928-14.3 4.647-22.509 13.095-34.953.965-1.418 1.874-2.769 2.873-3.618 2.22-1.897 4.674-3.603 6.817-4.808 1.868 4.576 5.03 8.332 8.853 10.581 2.316 1.362 5.096-.296 5.582-3.311l.079-.479c.333-2.043-.52-4.101-2.088-5.051-2.567-1.549-4.658-4.329-5.537-7.577-.565-2.065-.719-4.434-.805-6.682-.172-4.831-.037-9.792.184-14.686.112-2.567-1.546-4.752-3.7-4.894l-.382-.03c-2.186-.153-4.041 1.841-4.157 4.427-.232 5.133-.374 10.364-.184 15.613.03.793.068 1.598.128 2.421-4.187 2.061-8.067 5.212-9.609 6.525-1.897 1.628-3.266 3.64-4.482 5.429-2.215 3.259-4.348 6.398-6.275 9.578-.535.883-1.339 1.467-2.241 1.639-5.717 1.081-12.901-3.18-16.148-8.564-3.296-5.459-5.938-13.78-3.457-20.766 2.155-6.091 4.194-9.346 8.16-12.459 1.463-1.149 1.942-3.457 1.092-5.298l-.718-1.523c-.95-2.058-3.18-2.709-4.83-1.425-.026.018-.045.037-.075.056-2.002 1.571-4.722.25-5.182-2.548-1.687-10.353-1.553-20.238.486-28.305 3.42-13.503 12.127-29.435 26.303-33.659 12.022-3.58 25.488 2.455 32.08 13.881.247.431.546.786.88 1.063-2.788 4.501-4.434 10.02-4.685 15.613-.13 2.96 2.062 5.306 4.512 4.864l.386-.067c1.867-.333 3.225-2.211 3.34-4.452.192-3.851 1.382-7.644 3.383-10.641 2.01-3.009 4.846-5.239 7.958-6.331 1.811-.651 3.039-2.645 2.893-4.886l-.03-.449c-.199-2.941-2.612-4.954-4.999-4.131-2.432.834-4.76 2.136-6.866 3.812-7.445-12.9-21.15-20.305-34.8-18.954-1.923.191-3.592-1.56-3.666-3.85-.202-5.298-.109-10.634.658-15.823 1.302-8.774 4.55-16.104 9.141-20.631 1.78-1.755 3.962-3.307 6.656-4.744 9.997-5.324 21.054-5.459 29.566-.344 8.122 4.886 13.518 14.865 13.66 24.675.011.831.228 1.598.584 2.249a25 25 0 0 0-2.077 2.836c-1.534 2.424-.748 5.911 1.598 7.097l.362.191c1.65.835 3.574.258 4.648-1.436 2.192-3.458 5.623-5.852 9.234-6.436 1.77-.288 3.142-2.013 3.322-4.119l.049-.468c.258-3.001-1.897-5.526-4.415-5.126a18.7 18.7 0 0 0-5.28 1.658c-1.264-12.183-8.093-23.927-17.959-29.858a34 34 0 0 0-2.997-1.586c-2.088-.969-2.836-4.071-1.455-6.181 9.282-14.184 20.496-20.582 34.71-19.969 1.246.056 5.414 1.025 6.38 1.542 1.215.726 4.856 3.322 5.9 4.273.078.086.153.172.239.258 1.534 1.818 3.027 3.341 4.34 4.692 3.341 3.431 5.545 5.69 6.963 10.48 1.283 4.347 1.59 9.29 1.83 14.135v16.448a71 71 0 0 1-2.788 7.374c-2.94 6.571-7.805 12.77-14.865 18.936-4.954 4.329-10.805 6.226-15.901 5.298-1.437-.269-2.93.431-3.648 1.946-1.235 2.593.134 5.65 2.47 6.091 1.226.228 2.48.344 3.744.344 5.893 0 12.1-2.462 17.406-7.097 5.754-5.029 10.24-10.155 13.582-15.535v134.792c1.522-.812 3.143-1.253 4.808-1.253 1.676 0 3.285.441 4.819 1.253V234.964c3.457 6.458 8.474 12.519 15.258 18.45 5.316 4.635 11.523 7.097 17.413 7.097q1.824.002 3.592-.318c1.86-.333 3.314-2.402 3.056-4.594-.28-2.376-2.11-3.854-3.996-3.487-5.114.965-11.003-.921-15.987-5.28-7.057-6.166-11.924-12.365-14.865-18.936a68.4 68.4 0 0 1-4.471-13.783v-6.657c.411-4.777.333-9.473-.259-13.925a33 33 0 0 1 .842-3.592c1.407-4.79 3.622-7.049 6.956-10.48 1.31-1.34 2.795-2.863 4.329-4.674.086-.097.172-.183.258-.276 1.033-.951 4.673-3.547 5.89-4.273.976-.517 5.144-1.486 6.378-1.542 14.226-.613 25.432 5.773 34.722 19.969 1.38 2.11.632 5.212-1.467 6.181a32 32 0 0 0-2.986 1.586c-9.877 5.931-16.706 17.675-17.97 29.858a19 19 0 0 0-5.287-1.665c-2.51-.393-4.666 2.132-4.396 5.133l.037.468c.191 2.106 1.564 3.831 3.334 4.119 3.603.584 7.041 2.978 9.223 6.436 1.074 1.694 3.008 2.271 4.647 1.436l.374-.191c2.346-1.186 3.12-4.673 1.598-7.097a26 26 0 0 0-2.088-2.836 4.9 4.9 0 0 0 .595-2.249c.142-9.81 5.537-19.789 13.66-24.675 8.504-5.115 19.557-4.98 29.566.344 2.693 1.437 4.867 2.989 6.648 4.744 4.599 4.527 7.835 11.857 9.137 20.631.767 5.189.864 10.525.67 15.823-.086 2.29-1.744 4.041-3.667 3.85-13.649-1.351-27.354 6.054-34.8 18.954-2.106-1.676-4.441-2.978-6.877-3.812-2.383-.823-4.797 1.19-4.987 4.131l-.03.449c-.154 2.241 1.074 4.235 2.892 4.886 3.102 1.092 5.949 3.322 7.95 6.331 2.002 3.008 3.189 6.798 3.38 10.641.126 2.241 1.477 4.119 3.352 4.452l.374.067c2.462.442 4.654-1.915 4.523-4.864-.258-5.593-1.897-11.12-4.695-15.613.344-.277.643-.632.883-1.063 6.589-11.426 20.054-17.461 32.087-13.881 14.166 4.224 22.872 20.156 26.292 33.659 2.05 8.067 2.174 17.933.49 28.286m5.373 17.548c-.367-.928-.393-1.983-.116-2.96 4.624-16.253 5.429-32.787 2.155-45.699-4.273-16.878-13.38-30.325-24.634-36.992-1.239-.737-1.995-2.26-1.897-3.899.419-7.143.505-14.558-.595-21.989-1.639-11.064-5.889-20.47-11.992-26.475-2.364-2.338-5.163-4.34-8.545-6.151-6.043-3.207-12.43-4.834-18.648-4.902-1.141-.022-2.211-.71-2.825-1.859-11.591-21.607-26.58-31.732-45.755-30.901-1.964.086-7.57 1.257-9.78 2.578-.48.288-6.455 4.186-8.13 6.196-1.374 1.631-2.721 3.026-4.034 4.37-2.825 2.892-5.519 5.661-7.596 10.008-2.069-4.347-4.77-7.116-7.587-10.008-1.314-1.344-2.672-2.739-4.041-4.37-1.676-2.01-7.655-5.908-8.134-6.196-2.211-1.321-7.816-2.492-9.77-2.578-19.175-.831-34.174 9.294-45.755 30.901-.613 1.149-1.683 1.837-2.836 1.859-6.214.068-12.605 1.695-18.647 4.902-3.383 1.811-6.178 3.813-8.542 6.151-6.095 6.005-10.357 15.411-11.996 26.475-1.1 7.431-1.014 14.846-.583 21.989.097 1.639-.67 3.162-1.905 3.899-11.247 6.667-20.354 20.114-24.638 36.992-3.262 12.912-2.469 29.446 2.167 45.699a4.74 4.74 0 0 1-.116 2.96 94 94 0 0 0-.689 1.867c-3.229 9.099-1.601 20.421 4.359 30.276 3.334 5.538 9.253 10.155 15.565 11.966 1.904.535 2.997 2.918 2.402 5.14-1.291 4.857-1.886 10.204-1.482 16.381.775 12.021 6.713 23.257 15.498 29.311 4.901 3.39 11.415 5.122 17.813 5.122 2.892 0 5.758-.355 8.44-1.081 1.61-.43 3.245.584 3.87 2.402.247.73.508 1.459.793 2.178 2.675 6.723 6.888 13.084 12.904 19.422 5.878 6.218 11.206 9.952 16.751 11.763 4.408 1.437 8.83 2.144 13.17 2.144 9.983 0 19.539-3.734 27.396-10.929 2.01-1.83 4.07-3.857 5.593-6.637 1.523 2.78 3.592 4.807 5.594 6.637 7.854 7.195 17.413 10.929 27.392 10.929 4.351 0 8.774-.707 13.17-2.144 5.549-1.811 10.873-5.545 16.762-11.763 6.005-6.338 10.23-12.699 12.893-19.422.288-.719.558-1.448.805-2.178.613-1.818 2.252-2.832 3.869-2.402 2.675.726 5.537 1.081 8.43 1.081 6.397 0 12.922-1.732 17.824-5.122 8.774-6.054 14.715-17.29 15.497-29.311.404-6.177-.191-11.524-1.493-16.381-.595-2.211.509-4.605 2.406-5.14 6.312-1.811 12.231-6.428 15.572-11.966 5.949-9.855 7.577-21.177 4.359-30.276q-.344-.962-.688-1.867"/></mask><g mask="url(#mask7_1410_86)"><mask id="mask8_1410_86" width="294" height="320" x="-147" y="158" maskUnits="userSpaceOnUse" style="mask-type:luminance"><path fill="#fff" d="M136.655 323.182c-.453 2.795-3.173 4.127-5.182 2.567l-.067-.056c-1.658-1.284-3.88-.625-4.838 1.425l-.711 1.523c-.849 1.841-.382 4.149 1.092 5.298 3.959 3.113 6.006 6.36 8.161 12.459 2.473 6.986-.161 15.307-3.457 20.766-3.256 5.384-10.432 9.645-16.149 8.564-.909-.172-1.713-.756-2.252-1.639-1.923-3.18-4.06-6.319-6.264-9.578-1.216-1.789-2.585-3.801-4.482-5.429-1.541-1.313-5.429-4.464-9.608-6.525.048-.823.097-1.628.127-2.421.19-5.249.037-10.48-.183-15.613-.116-2.586-1.983-4.58-4.157-4.427l-.393.03c-2.155.142-3.801 2.327-3.697 4.894.221 4.894.363 9.855.184 14.686-.086 2.248-.24 4.617-.797 6.682-.89 3.248-2.978 6.028-5.545 7.577-1.572.95-2.425 3.008-2.088 5.051l.075.479c.497 3.015 3.277 4.673 5.593 3.303 3.824-2.252 6.986-6.005 8.853-10.573 2.136 1.205 4.587 2.911 6.817 4.808.988.849 1.908 2.2 2.873 3.618 8.441 12.444 14.016 20.653 13.085 34.953-.565 8.725-5.048 17.204-11.416 21.6-5.545 3.831-14.472 4.827-21.14 2.709-1.38-.442-2.383-1.897-2.473-3.592-.61-12.673-7.486-24.769-17.132-30.247.7-2.473 1.186-4.972 1.616-7.404.48-2.683.94-5.556.91-8.576a27.5 27.5 0 0 0-1.482-8.676c-.97-2.818-3.918-3.794-5.98-1.983l-.276.239c-1.425 1.257-2.04 3.506-1.37 5.47.547 1.598.842 3.323.861 5.059.019 2.028-.333 4.202-.737 6.447-.67 3.764-1.455 7.7-3.076 10.783-.927 1.792-2.162 3.199-3.457 4.033-1.34.853-2.069 2.634-1.942 4.434l.038.497c.24 3.353 3.292 5.298 5.796 3.697 1.983-1.265 3.8-3.091 5.313-5.362.086.056.175.135.269.191 7.786 4.367 13.084 14.723 12.396 24.971-.221 3.371-1.026 6.81-2.376 10.229-2.185 5.497-5.758 10.825-10.922 16.272-4.894 5.175-9.174 8.239-13.466 9.639-12.156 3.973-23.994 1.455-33.333-7.098-1.627-1.486-3.15-2.96-3.936-4.647-.67-1.456-.965-3.409-1.235-5.47-.662-5.134-1.1-11.015-1.32-17.114a9.9 9.9 0 0 1-3.517.659c-1.647 0-3.237-.431-4.752-1.216 0 .059.011.116.011.183-.22 6.233-.662 12.25-1.34 17.488-.269 2.061-.557 4.014-1.238 5.47-.786 1.687-2.308 3.161-3.936 4.647-9.328 8.553-21.177 11.071-33.333 7.098-4.28-1.4-8.56-4.464-13.466-9.639-5.163-5.447-8.736-10.775-10.91-16.272-1.358-3.419-2.155-6.858-2.384-10.229-.68-10.248 4.617-20.604 12.392-24.971.098-.056.184-.135.27-.191 1.511 2.271 3.333 4.097 5.316 5.362 2.489 1.601 5.557-.344 5.796-3.697l.037-.497c.135-1.8-.594-3.573-1.934-4.434-1.302-.834-2.53-2.241-3.468-4.033-1.62-3.083-2.406-7.019-3.076-10.783-.393-2.245-.744-4.419-.726-6.447.008-1.736.307-3.461.86-5.059.663-1.964.05-4.213-1.38-5.47l-.277-.239c-2.057-1.811-5.01-.835-5.975 1.983a27.9 27.9 0 0 0-1.485 8.676c-.019 3.02.441 5.893.92 8.576.43 2.432.91 4.931 1.609 7.404-9.646 5.478-16.515 17.574-17.136 30.247-.079 1.695-1.082 3.15-2.473 3.592-6.657 2.118-15.584 1.122-21.129-2.709-6.368-4.396-10.85-12.875-11.426-21.6-.928-14.3 4.647-22.509 13.095-34.953.965-1.418 1.874-2.769 2.873-3.618 2.22-1.897 4.674-3.603 6.817-4.808 1.868 4.576 5.03 8.332 8.853 10.581 2.316 1.362 5.096-.296 5.582-3.311l.079-.479c.333-2.043-.52-4.101-2.088-5.051-2.567-1.549-4.658-4.329-5.537-7.577-.565-2.065-.719-4.434-.805-6.682-.172-4.831-.037-9.792.184-14.686.112-2.567-1.546-4.752-3.7-4.894l-.382-.03c-2.186-.153-4.041 1.841-4.157 4.427-.232 5.133-.374 10.364-.184 15.613.03.793.068 1.598.128 2.421-4.187 2.061-8.067 5.212-9.609 6.525-1.897 1.628-3.266 3.64-4.482 5.429-2.215 3.259-4.348 6.398-6.275 9.578-.535.883-1.339 1.467-2.241 1.639-5.717 1.081-12.901-3.18-16.148-8.564-3.296-5.459-5.938-13.78-3.457-20.766 2.155-6.091 4.194-9.346 8.16-12.459 1.463-1.149 1.942-3.457 1.092-5.298l-.718-1.523c-.95-2.058-3.18-2.709-4.83-1.425-.026.018-.045.037-.075.056-2.002 1.571-4.722.25-5.182-2.548-1.687-10.353-1.553-20.238.486-28.305 3.42-13.503 12.127-29.435 26.303-33.659 12.022-3.58 25.488 2.455 32.08 13.881.247.431.546.786.88 1.063-2.788 4.501-4.434 10.02-4.685 15.613-.13 2.96 2.062 5.306 4.512 4.864l.386-.067c1.867-.333 3.225-2.211 3.34-4.452.192-3.851 1.382-7.644 3.383-10.641 2.01-3.009 4.846-5.239 7.958-6.331 1.811-.651 3.039-2.645 2.893-4.886l-.03-.449c-.199-2.941-2.612-4.954-4.999-4.131-2.432.834-4.76 2.136-6.866 3.812-7.445-12.9-21.15-20.305-34.8-18.954-1.923.191-3.592-1.56-3.666-3.85-.202-5.298-.109-10.634.658-15.823 1.302-8.774 4.55-16.104 9.141-20.631 1.78-1.755 3.962-3.307 6.656-4.744 9.997-5.324 21.054-5.459 29.566-.344 8.122 4.886 13.518 14.865 13.66 24.675.011.831.228 1.598.584 2.249a25 25 0 0 0-2.077 2.836c-1.534 2.424-.748 5.911 1.598 7.097l.362.191c1.65.835 3.574.258 4.648-1.436 2.192-3.458 5.623-5.852 9.234-6.436 1.77-.288 3.142-2.013 3.322-4.119l.049-.468c.258-3.001-1.897-5.526-4.415-5.126a18.7 18.7 0 0 0-5.28 1.658c-1.264-12.183-8.093-23.927-17.959-29.858a34 34 0 0 0-2.997-1.586c-2.088-.969-2.836-4.071-1.455-6.181 9.282-14.184 20.496-20.582 34.71-19.969 1.246.056 5.414 1.025 6.38 1.542 1.215.726 4.856 3.322 5.9 4.273.078.086.153.172.239.258 1.534 1.818 3.027 3.341 4.34 4.692 3.341 3.431 5.545 5.69 6.963 10.48 1.283 4.347 1.59 9.29 1.83 14.135v16.448a71 71 0 0 1-2.788 7.374c-2.94 6.571-7.805 12.77-14.865 18.936-4.954 4.329-10.805 6.226-15.901 5.298-1.437-.269-2.93.431-3.648 1.946-1.235 2.593.134 5.65 2.47 6.091 1.226.228 2.48.344 3.744.344 5.893 0 12.1-2.462 17.406-7.097 5.754-5.029 10.24-10.155 13.582-15.535v134.792c1.522-.812 3.143-1.253 4.808-1.253 1.676 0 3.285.441 4.819 1.253V234.964c3.457 6.458 8.474 12.519 15.258 18.45 5.316 4.635 11.523 7.097 17.413 7.097q1.824.002 3.592-.318c1.86-.333 3.314-2.402 3.056-4.594-.28-2.376-2.11-3.854-3.996-3.487-5.114.965-11.003-.921-15.987-5.28-7.057-6.166-11.924-12.365-14.865-18.936a68.4 68.4 0 0 1-4.471-13.783v-6.657c.411-4.777.333-9.473-.259-13.925a33 33 0 0 1 .842-3.592c1.407-4.79 3.622-7.049 6.956-10.48 1.31-1.34 2.795-2.863 4.329-4.674.086-.097.172-.183.258-.276 1.033-.951 4.673-3.547 5.89-4.273.976-.517 5.144-1.486 6.378-1.542 14.226-.613 25.432 5.773 34.722 19.969 1.38 2.11.632 5.212-1.467 6.181a32 32 0 0 0-2.986 1.586c-9.877 5.931-16.706 17.675-17.97 29.858a19 19 0 0 0-5.287-1.665c-2.51-.393-4.666 2.132-4.396 5.133l.037.468c.191 2.106 1.564 3.831 3.334 4.119 3.603.584 7.041 2.978 9.223 6.436 1.074 1.694 3.008 2.271 4.647 1.436l.374-.191c2.346-1.186 3.12-4.673 1.598-7.097a26 26 0 0 0-2.088-2.836 4.9 4.9 0 0 0 .595-2.249c.142-9.81 5.537-19.789 13.66-24.675 8.504-5.115 19.557-4.98 29.566.344 2.693 1.437 4.867 2.989 6.648 4.744 4.599 4.527 7.835 11.857 9.137 20.631.767 5.189.864 10.525.67 15.823-.086 2.29-1.744 4.041-3.667 3.85-13.649-1.351-27.354 6.054-34.8 18.954-2.106-1.676-4.441-2.978-6.877-3.812-2.383-.823-4.797 1.19-4.987 4.131l-.03.449c-.154 2.241 1.074 4.235 2.892 4.886 3.102 1.092 5.949 3.322 7.95 6.331 2.002 3.008 3.189 6.798 3.38 10.641.126 2.241 1.477 4.119 3.352 4.452l.374.067c2.462.442 4.654-1.915 4.523-4.864-.258-5.593-1.897-11.12-4.695-15.613.344-.277.643-.632.883-1.063 6.589-11.426 20.054-17.461 32.087-13.881 14.166 4.224 22.872 20.156 26.292 33.659 2.05 8.067 2.174 17.933.49 28.286m5.373 17.548c-.367-.928-.393-1.983-.116-2.96 4.624-16.253 5.429-32.787 2.155-45.699-4.273-16.878-13.38-30.325-24.634-36.992-1.239-.737-1.995-2.26-1.897-3.899.419-7.143.505-14.558-.595-21.989-1.639-11.064-5.889-20.47-11.992-26.475-2.364-2.338-5.163-4.34-8.545-6.151-6.043-3.207-12.43-4.834-18.648-4.902-1.141-.022-2.211-.71-2.825-1.859-11.591-21.607-26.58-31.732-45.755-30.901-1.964.086-7.57 1.257-9.78 2.578-.48.288-6.455 4.186-8.13 6.196-1.374 1.631-2.721 3.026-4.034 4.37-2.825 2.892-5.519 5.661-7.596 10.008-2.069-4.347-4.77-7.116-7.587-10.008-1.314-1.344-2.672-2.739-4.041-4.37-1.676-2.01-7.655-5.908-8.134-6.196-2.211-1.321-7.816-2.492-9.77-2.578-19.175-.831-34.174 9.294-45.755 30.901-.613 1.149-1.683 1.837-2.836 1.859-6.214.068-12.605 1.695-18.647 4.902-3.383 1.811-6.178 3.813-8.542 6.151-6.095 6.005-10.357 15.411-11.996 26.475-1.1 7.431-1.014 14.846-.583 21.989.097 1.639-.67 3.162-1.905 3.899-11.247 6.667-20.354 20.114-24.638 36.992-3.262 12.912-2.469 29.446 2.167 45.699a4.74 4.74 0 0 1-.116 2.96 94 94 0 0 0-.689 1.867c-3.229 9.099-1.601 20.421 4.359 30.276 3.334 5.538 9.253 10.155 15.565 11.966 1.904.535 2.997 2.918 2.402 5.14-1.291 4.857-1.886 10.204-1.482 16.381.775 12.021 6.713 23.257 15.498 29.311 4.901 3.39 11.415 5.122 17.813 5.122 2.892 0 5.758-.355 8.44-1.081 1.61-.43 3.245.584 3.87 2.402.247.73.508 1.459.793 2.178 2.675 6.723 6.888 13.084 12.904 19.422 5.878 6.218 11.206 9.952 16.751 11.763 4.408 1.437 8.83 2.144 13.17 2.144 9.983 0 19.539-3.734 27.396-10.929 2.01-1.83 4.07-3.857 5.593-6.637 1.523 2.78 3.592 4.807 5.594 6.637 7.854 7.195 17.413 10.929 27.392 10.929 4.351 0 8.774-.707 13.17-2.144 5.549-1.811 10.873-5.545 16.762-11.763 6.005-6.338 10.23-12.699 12.893-19.422.288-.719.558-1.448.805-2.178.613-1.818 2.252-2.832 3.869-2.402 2.675.726 5.537 1.081 8.43 1.081 6.397 0 12.922-1.732 17.824-5.122 8.774-6.054 14.715-17.29 15.497-29.311.404-6.177-.191-11.524-1.493-16.381-.595-2.211.509-4.605 2.406-5.14 6.312-1.811 12.231-6.428 15.572-11.966 5.949-9.855 7.577-21.177 4.359-30.276q-.344-.962-.688-1.867"/></mask><g mask="url(#mask8_1410_86)"><path fill="url(#paint2_linear_1410_86)" d="M147.341 158.072h-295.402v319.549h295.402z"/></g></g></g><mask id="mask9_1410_86" width="19" height="55" x="40" y="286" maskUnits="userSpaceOnUse" style="mask-type:luminance"><path fill="#fff" d="M40.229 286.393h18.198v54.596H40.228z"/></mask><g mask="url(#mask9_1410_86)"><mask id="mask10_1410_86" width="18" height="55" x="40" y="286" maskUnits="userSpaceOnUse" style="mask-type:luminance"><path fill="#fff" d="M49.55 317.569c-1.494-6.851-.97-14.166 1.466-20.613.4-1.085.83-2.02 1.272-2.828.92-1.676.767-3.869-.288-5.418l-.247-.367c-1.657-2.42-4.849-2.308-6.293.289-.719 1.283-1.37 2.712-1.976 4.31-3.199 8.478-3.876 18.094-1.923 27.077 1.59 7.289 4.864 13.949 9.376 19.168 1.688 1.953 4.453 1.665 5.863-.576l.229-.363c1.17-1.848 1.055-4.475-.345-6.084-3.438-3.984-5.93-9.05-7.135-14.595"/></mask><g mask="url(#mask10_1410_86)"><mask id="mask11_1410_86" width="18" height="55" x="40" y="286" maskUnits="userSpaceOnUse" style="mask-type:luminance"><path fill="#fff" d="M49.55 317.569c-1.494-6.851-.97-14.166 1.466-20.613.4-1.085.83-2.02 1.272-2.828.92-1.676.767-3.869-.288-5.418l-.247-.367c-1.657-2.42-4.849-2.308-6.293.289-.719 1.283-1.37 2.712-1.976 4.31-3.199 8.478-3.876 18.094-1.923 27.077 1.59 7.289 4.864 13.949 9.376 19.168 1.688 1.953 4.453 1.665 5.863-.576l.229-.363c1.17-1.848 1.055-4.475-.345-6.084-3.438-3.984-5.93-9.05-7.135-14.595"/></mask><g mask="url(#mask11_1410_86)"><path fill="url(#paint3_linear_1410_86)" d="M58.2 285.925H39.608v55.218H58.2z"/></g></g></g></g><defs><linearGradient id="paint0_linear_1410_86" x1="157.792" x2="-157.698" y1="-64.915" y2="701.724" gradientUnits="userSpaceOnUse"><stop stop-color="#b03aab"/><stop offset=".063" stop-color="#b03aab"/><stop offset=".078" stop-color="#b03aab"/><stop offset=".082" stop-color="#ae3cab"/><stop offset=".086" stop-color="#ac3eac"/><stop offset=".09" stop-color="#ab3fac"/><stop offset=".094" stop-color="#a941ad"/><stop offset=".098" stop-color="#a743ad"/><stop offset=".102" stop-color="#a645ad"/><stop offset=".105" stop-color="#a446ae"/><stop offset=".109" stop-color="#a248ae"/><stop offset=".113" stop-color="#a04aae"/><stop offset=".117" stop-color="#9f4baf"/><stop offset=".121" stop-color="#9d4daf"/><stop offset=".125" stop-color="#9b4faf"/><stop offset=".129" stop-color="#9a51b0"/><stop offset=".133" stop-color="#9852b0"/><stop offset=".137" stop-color="#9654b0"/><stop offset=".141" stop-color="#9556b1"/><stop offset=".145" stop-color="#9358b1"/><stop offset=".148" stop-color="#9159b2"/><stop offset=".152" stop-color="#905bb2"/><stop offset=".156" stop-color="#8e5db2"/><stop offset=".16" stop-color="#8c5eb3"/><stop offset=".164" stop-color="#8b60b3"/><stop offset=".168" stop-color="#8962b3"/><stop offset=".172" stop-color="#8764b4"/><stop offset=".176" stop-color="#8665b4"/><stop offset=".18" stop-color="#8467b4"/><stop offset=".184" stop-color="#8269b5"/><stop offset=".188" stop-color="#806ab5"/><stop offset=".191" stop-color="#7f6cb5"/><stop offset=".195" stop-color="#7d6eb6"/><stop offset=".199" stop-color="#7b70b6"/><stop offset=".203" stop-color="#7a71b7"/><stop offset=".207" stop-color="#7873b7"/><stop offset=".211" stop-color="#7675b7"/><stop offset=".215" stop-color="#7576b8"/><stop offset=".219" stop-color="#7378b8"/><stop offset=".223" stop-color="#717ab8"/><stop offset=".227" stop-color="#707cb9"/><stop offset=".23" stop-color="#6e7db9"/><stop offset=".234" stop-color="#6c7fb9"/><stop offset=".238" stop-color="#6b81ba"/><stop offset=".242" stop-color="#6982ba"/><stop offset=".246" stop-color="#6784bb"/><stop offset=".25" stop-color="#6586bb"/><stop offset=".254" stop-color="#6488bb"/><stop offset=".258" stop-color="#6289bc"/><stop offset=".262" stop-color="#608bbc"/><stop offset=".266" stop-color="#5f8dbc"/><stop offset=".27" stop-color="#5d8ebd"/><stop offset=".273" stop-color="#5b90bd"/><stop offset=".277" stop-color="#5a92bd"/><stop offset=".281" stop-color="#5894be"/><stop offset=".285" stop-color="#5695be"/><stop offset=".289" stop-color="#5597be"/><stop offset=".293" stop-color="#5399bf"/><stop offset=".297" stop-color="#519abf"/><stop offset=".301" stop-color="#509cc0"/><stop offset=".305" stop-color="#4e9ec0"/><stop offset=".309" stop-color="#4ca0c0"/><stop offset=".313" stop-color="#4aa1c1"/><stop offset=".316" stop-color="#49a3c1"/><stop offset=".32" stop-color="#47a5c1"/><stop offset=".324" stop-color="#45a7c2"/><stop offset=".328" stop-color="#44a8c2"/><stop offset=".332" stop-color="#42aac2"/><stop offset=".336" stop-color="#40acc3"/><stop offset=".34" stop-color="#3fadc3"/><stop offset=".344" stop-color="#3dafc4"/><stop offset=".348" stop-color="#3bb1c4"/><stop offset=".352" stop-color="#3ab3c4"/><stop offset=".355" stop-color="#38b4c5"/><stop offset=".359" stop-color="#36b6c5"/><stop offset=".363" stop-color="#35b8c5"/><stop offset=".367" stop-color="#33b9c6"/><stop offset=".371" stop-color="#31bbc6"/><stop offset=".375" stop-color="#2fbdc6"/><stop offset=".379" stop-color="#2ebfc7"/><stop offset=".383" stop-color="#2cc0c7"/><stop offset=".387" stop-color="#2ac2c7"/><stop offset=".391" stop-color="#29c4c8"/><stop offset=".395" stop-color="#27c5c8"/><stop offset=".398" stop-color="#25c7c9"/><stop offset=".402" stop-color="#24c9c9"/><stop offset=".406" stop-color="#22cbc9"/><stop offset=".41" stop-color="#20ccca"/><stop offset=".414" stop-color="#1fceca"/><stop offset=".418" stop-color="#1dd0ca"/><stop offset=".422" stop-color="#1bd1cb"/><stop offset=".426" stop-color="#1ad3cb"/><stop offset=".43" stop-color="#18d5cb"/><stop offset=".434" stop-color="#16d7cc"/><stop offset=".438" stop-color="#14d8cc"/><stop offset=".441" stop-color="#13dacc"/><stop offset=".445" stop-color="#11dccd"/><stop offset=".449" stop-color="#0fddcd"/><stop offset=".453" stop-color="#0edfce"/><stop offset=".457" stop-color="#0ce1ce"/><stop offset=".461" stop-color="#0ae3ce"/><stop offset=".465" stop-color="#09e4cf"/><stop offset=".469" stop-color="#07e6cf"/><stop offset=".473" stop-color="#07e5cf"/><stop offset=".477" stop-color="#07e4cf"/><stop offset=".48" stop-color="#07e3d0"/><stop offset=".484" stop-color="#07e2d0"/><stop offset=".488" stop-color="#08e1d0"/><stop offset=".492" stop-color="#08e0d0"/><stop offset=".496" stop-color="#08dfd1"/><stop offset=".5" stop-color="#08ded1"/><stop offset=".504" stop-color="#08ded1"/><stop offset=".508" stop-color="#08ddd1"/><stop offset=".512" stop-color="#08dcd2"/><stop offset=".516" stop-color="#08dbd2"/><stop offset=".52" stop-color="#09dad2"/><stop offset=".523" stop-color="#09d9d2"/><stop offset=".527" stop-color="#09d8d3"/><stop offset=".531" stop-color="#09d7d3"/><stop offset=".535" stop-color="#09d6d3"/><stop offset=".539" stop-color="#09d5d3"/><stop offset=".543" stop-color="#09d4d4"/><stop offset=".547" stop-color="#09d3d4"/><stop offset=".551" stop-color="#0ad2d4"/><stop offset=".555" stop-color="#0ad1d4"/><stop offset=".559" stop-color="#0ad0d5"/><stop offset=".563" stop-color="#0acfd5"/><stop offset=".566" stop-color="#0aced5"/><stop offset=".57" stop-color="#0aced5"/><stop offset=".574" stop-color="#0acdd6"/><stop offset=".578" stop-color="#0accd6"/><stop offset=".582" stop-color="#0bcbd6"/><stop offset=".586" stop-color="#0bcad6"/><stop offset=".59" stop-color="#0bc9d7"/><stop offset=".594" stop-color="#0bc8d7"/><stop offset=".598" stop-color="#0bc7d7"/><stop offset=".602" stop-color="#0bc6d7"/><stop offset=".605" stop-color="#0bc5d8"/><stop offset=".609" stop-color="#0bc4d8"/><stop offset=".613" stop-color="#0cc3d8"/><stop offset=".617" stop-color="#0cc2d8"/><stop offset=".621" stop-color="#0cc1d9"/><stop offset=".625" stop-color="#0cc0d9"/><stop offset=".629" stop-color="#0cbfd9"/><stop offset=".633" stop-color="#0cbfd9"/><stop offset=".637" stop-color="#0cbeda"/><stop offset=".641" stop-color="#0cbdda"/><stop offset=".645" stop-color="#0dbcda"/><stop offset=".648" stop-color="#0dbbda"/><stop offset=".652" stop-color="#0dbadb"/><stop offset=".656" stop-color="#0db9db"/><stop offset=".66" stop-color="#0db8db"/><stop offset=".664" stop-color="#0db7db"/><stop offset=".668" stop-color="#0db6dc"/><stop offset=".672" stop-color="#0db5dc"/><stop offset=".676" stop-color="#0eb4dc"/><stop offset=".68" stop-color="#0eb3dc"/><stop offset=".684" stop-color="#0eb2dd"/><stop offset=".688" stop-color="#0eb1dd"/><stop offset=".691" stop-color="#0eb0dd"/><stop offset=".695" stop-color="#0eafdd"/><stop offset=".699" stop-color="#0eafde"/><stop offset=".703" stop-color="#0eaede"/><stop offset=".707" stop-color="#0fadde"/><stop offset=".711" stop-color="#0facde"/><stop offset=".715" stop-color="#0fabdf"/><stop offset=".719" stop-color="#0faadf"/><stop offset=".723" stop-color="#0fa9df"/><stop offset=".727" stop-color="#0fa8df"/><stop offset=".73" stop-color="#0fa7e0"/><stop offset=".734" stop-color="#0fa6e0"/><stop offset=".738" stop-color="#10a5e0"/><stop offset=".742" stop-color="#10a4e0"/><stop offset=".746" stop-color="#10a3e1"/><stop offset=".75" stop-color="#10a2e1"/><stop offset=".754" stop-color="#10a1e1"/><stop offset=".758" stop-color="#10a0e1"/><stop offset=".762" stop-color="#109fe2"/><stop offset=".766" stop-color="#109fe2"/><stop offset=".77" stop-color="#119ee2"/><stop offset=".773" stop-color="#119de2"/><stop offset=".777" stop-color="#119ce2"/><stop offset=".781" stop-color="#119be3"/><stop offset=".785" stop-color="#119ae3"/><stop offset=".789" stop-color="#1199e3"/><stop offset=".793" stop-color="#1198e3"/><stop offset=".797" stop-color="#1197e4"/><stop offset=".801" stop-color="#1196e4"/><stop offset=".805" stop-color="#1295e4"/><stop offset=".809" stop-color="#1294e4"/><stop offset=".813" stop-color="#1293e5"/><stop offset=".816" stop-color="#1292e5"/><stop offset=".82" stop-color="#1291e5"/><stop offset=".824" stop-color="#1290e5"/><stop offset=".828" stop-color="#1290e6"/><stop offset=".832" stop-color="#128fe6"/><stop offset=".836" stop-color="#138ee6"/><stop offset=".84" stop-color="#138de6"/><stop offset=".844" stop-color="#138ce7"/><stop offset=".848" stop-color="#138be7"/><stop offset=".852" stop-color="#138ae7"/><stop offset=".855" stop-color="#1389e7"/><stop offset=".859" stop-color="#1388e8"/><stop offset=".863" stop-color="#1387e8"/><stop offset=".867" stop-color="#1486e8"/><stop offset=".871" stop-color="#1485e8"/><stop offset=".875" stop-color="#1484e9"/><stop offset=".879" stop-color="#1484e9"/><stop offset=".883" stop-color="#1483e9"/><stop offset=".891" stop-color="#1483e9"/><stop offset=".906" stop-color="#1483e9"/><stop offset=".938" stop-color="#1483e9"/><stop offset="1" stop-color="#1483e9"/></linearGradient><linearGradient id="paint1_linear_1410_86" x1="157.792" x2="-157.698" y1="-64.915" y2="701.724" gradientUnits="userSpaceOnUse"><stop stop-color="#b03aab"/><stop offset=".063" stop-color="#b03aab"/><stop offset=".078" stop-color="#b03aab"/><stop offset=".082" stop-color="#ae3cab"/><stop offset=".086" stop-color="#ac3eac"/><stop offset=".09" stop-color="#ab3fac"/><stop offset=".094" stop-color="#a941ad"/><stop offset=".098" stop-color="#a743ad"/><stop offset=".102" stop-color="#a645ad"/><stop offset=".105" stop-color="#a446ae"/><stop offset=".109" stop-color="#a248ae"/><stop offset=".113" stop-color="#a04aae"/><stop offset=".117" stop-color="#9f4baf"/><stop offset=".121" stop-color="#9d4daf"/><stop offset=".125" stop-color="#9b4faf"/><stop offset=".129" stop-color="#9a51b0"/><stop offset=".133" stop-color="#9852b0"/><stop offset=".137" stop-color="#9654b0"/><stop offset=".141" stop-color="#9556b1"/><stop offset=".145" stop-color="#9358b1"/><stop offset=".148" stop-color="#9159b2"/><stop offset=".152" stop-color="#905bb2"/><stop offset=".156" stop-color="#8e5db2"/><stop offset=".16" stop-color="#8c5eb3"/><stop offset=".164" stop-color="#8b60b3"/><stop offset=".168" stop-color="#8962b3"/><stop offset=".172" stop-color="#8764b4"/><stop offset=".176" stop-color="#8665b4"/><stop offset=".18" stop-color="#8467b4"/><stop offset=".184" stop-color="#8269b5"/><stop offset=".188" stop-color="#806ab5"/><stop offset=".191" stop-color="#7f6cb5"/><stop offset=".195" stop-color="#7d6eb6"/><stop offset=".199" stop-color="#7b70b6"/><stop offset=".203" stop-color="#7a71b7"/><stop offset=".207" stop-color="#7873b7"/><stop offset=".211" stop-color="#7675b7"/><stop offset=".215" stop-color="#7576b8"/><stop offset=".219" stop-color="#7378b8"/><stop offset=".223" stop-color="#717ab8"/><stop offset=".227" stop-color="#707cb9"/><stop offset=".23" stop-color="#6e7db9"/><stop offset=".234" stop-color="#6c7fb9"/><stop offset=".238" stop-color="#6b81ba"/><stop offset=".242" stop-color="#6982ba"/><stop offset=".246" stop-color="#6784bb"/><stop offset=".25" stop-color="#6586bb"/><stop offset=".254" stop-color="#6488bb"/><stop offset=".258" stop-color="#6289bc"/><stop offset=".262" stop-color="#608bbc"/><stop offset=".266" stop-color="#5f8dbc"/><stop offset=".27" stop-color="#5d8ebd"/><stop offset=".273" stop-color="#5b90bd"/><stop offset=".277" stop-color="#5a92bd"/><stop offset=".281" stop-color="#5894be"/><stop offset=".285" stop-color="#5695be"/><stop offset=".289" stop-color="#5597be"/><stop offset=".293" stop-color="#5399bf"/><stop offset=".297" stop-color="#519abf"/><stop offset=".301" stop-color="#509cc0"/><stop offset=".305" stop-color="#4e9ec0"/><stop offset=".309" stop-color="#4ca0c0"/><stop offset=".313" stop-color="#4aa1c1"/><stop offset=".316" stop-color="#49a3c1"/><stop offset=".32" stop-color="#47a5c1"/><stop offset=".324" stop-color="#45a7c2"/><stop offset=".328" stop-color="#44a8c2"/><stop offset=".332" stop-color="#42aac2"/><stop offset=".336" stop-color="#40acc3"/><stop offset=".34" stop-color="#3fadc3"/><stop offset=".344" stop-color="#3dafc4"/><stop offset=".348" stop-color="#3bb1c4"/><stop offset=".352" stop-color="#3ab3c4"/><stop offset=".355" stop-color="#38b4c5"/><stop offset=".359" stop-color="#36b6c5"/><stop offset=".363" stop-color="#35b8c5"/><stop offset=".367" stop-color="#33b9c6"/><stop offset=".371" stop-color="#31bbc6"/><stop offset=".375" stop-color="#2fbdc6"/><stop offset=".379" stop-color="#2ebfc7"/><stop offset=".383" stop-color="#2cc0c7"/><stop offset=".387" stop-color="#2ac2c7"/><stop offset=".391" stop-color="#29c4c8"/><stop offset=".395" stop-color="#27c5c8"/><stop offset=".398" stop-color="#25c7c9"/><stop offset=".402" stop-color="#24c9c9"/><stop offset=".406" stop-color="#22cbc9"/><stop offset=".41" stop-color="#20ccca"/><stop offset=".414" stop-color="#1fceca"/><stop offset=".418" stop-color="#1dd0ca"/><stop offset=".422" stop-color="#1bd1cb"/><stop offset=".426" stop-color="#1ad3cb"/><stop offset=".43" stop-color="#18d5cb"/><stop offset=".434" stop-color="#16d7cc"/><stop offset=".438" stop-color="#14d8cc"/><stop offset=".441" stop-color="#13dacc"/><stop offset=".445" stop-color="#11dccd"/><stop offset=".449" stop-color="#0fddcd"/><stop offset=".453" stop-color="#0edfce"/><stop offset=".457" stop-color="#0ce1ce"/><stop offset=".461" stop-color="#0ae3ce"/><stop offset=".465" stop-color="#09e4cf"/><stop offset=".469" stop-color="#07e6cf"/><stop offset=".473" stop-color="#07e5cf"/><stop offset=".477" stop-color="#07e4cf"/><stop offset=".48" stop-color="#07e3d0"/><stop offset=".484" stop-color="#07e2d0"/><stop offset=".488" stop-color="#08e1d0"/><stop offset=".492" stop-color="#08e0d0"/><stop offset=".496" stop-color="#08dfd1"/><stop offset=".5" stop-color="#08ded1"/><stop offset=".504" stop-color="#08ded1"/><stop offset=".508" stop-color="#08ddd1"/><stop offset=".512" stop-color="#08dcd2"/><stop offset=".516" stop-color="#08dbd2"/><stop offset=".52" stop-color="#09dad2"/><stop offset=".523" stop-color="#09d9d2"/><stop offset=".527" stop-color="#09d8d3"/><stop offset=".531" stop-color="#09d7d3"/><stop offset=".535" stop-color="#09d6d3"/><stop offset=".539" stop-color="#09d5d3"/><stop offset=".543" stop-color="#09d4d4"/><stop offset=".547" stop-color="#09d3d4"/><stop offset=".551" stop-color="#0ad2d4"/><stop offset=".555" stop-color="#0ad1d4"/><stop offset=".559" stop-color="#0ad0d5"/><stop offset=".563" stop-color="#0acfd5"/><stop offset=".566" stop-color="#0aced5"/><stop offset=".57" stop-color="#0aced5"/><stop offset=".574" stop-color="#0acdd6"/><stop offset=".578" stop-color="#0accd6"/><stop offset=".582" stop-color="#0bcbd6"/><stop offset=".586" stop-color="#0bcad6"/><stop offset=".59" stop-color="#0bc9d7"/><stop offset=".594" stop-color="#0bc8d7"/><stop offset=".598" stop-color="#0bc7d7"/><stop offset=".602" stop-color="#0bc6d7"/><stop offset=".605" stop-color="#0bc5d8"/><stop offset=".609" stop-color="#0bc4d8"/><stop offset=".613" stop-color="#0cc3d8"/><stop offset=".617" stop-color="#0cc2d8"/><stop offset=".621" stop-color="#0cc1d9"/><stop offset=".625" stop-color="#0cc0d9"/><stop offset=".629" stop-color="#0cbfd9"/><stop offset=".633" stop-color="#0cbfd9"/><stop offset=".637" stop-color="#0cbeda"/><stop offset=".641" stop-color="#0cbdda"/><stop offset=".645" stop-color="#0dbcda"/><stop offset=".648" stop-color="#0dbbda"/><stop offset=".652" stop-color="#0dbadb"/><stop offset=".656" stop-color="#0db9db"/><stop offset=".66" stop-color="#0db8db"/><stop offset=".664" stop-color="#0db7db"/><stop offset=".668" stop-color="#0db6dc"/><stop offset=".672" stop-color="#0db5dc"/><stop offset=".676" stop-color="#0eb4dc"/><stop offset=".68" stop-color="#0eb3dc"/><stop offset=".684" stop-color="#0eb2dd"/><stop offset=".688" stop-color="#0eb1dd"/><stop offset=".691" stop-color="#0eb0dd"/><stop offset=".695" stop-color="#0eafdd"/><stop offset=".699" stop-color="#0eafde"/><stop offset=".703" stop-color="#0eaede"/><stop offset=".707" stop-color="#0fadde"/><stop offset=".711" stop-color="#0facde"/><stop offset=".715" stop-color="#0fabdf"/><stop offset=".719" stop-color="#0faadf"/><stop offset=".723" stop-color="#0fa9df"/><stop offset=".727" stop-color="#0fa8df"/><stop offset=".73" stop-color="#0fa7e0"/><stop offset=".734" stop-color="#0fa6e0"/><stop offset=".738" stop-color="#10a5e0"/><stop offset=".742" stop-color="#10a4e0"/><stop offset=".746" stop-color="#10a3e1"/><stop offset=".75" stop-color="#10a2e1"/><stop offset=".754" stop-color="#10a1e1"/><stop offset=".758" stop-color="#10a0e1"/><stop offset=".762" stop-color="#109fe2"/><stop offset=".766" stop-color="#109fe2"/><stop offset=".77" stop-color="#119ee2"/><stop offset=".773" stop-color="#119de2"/><stop offset=".777" stop-color="#119ce2"/><stop offset=".781" stop-color="#119be3"/><stop offset=".785" stop-color="#119ae3"/><stop offset=".789" stop-color="#1199e3"/><stop offset=".793" stop-color="#1198e3"/><stop offset=".797" stop-color="#1197e4"/><stop offset=".801" stop-color="#1196e4"/><stop offset=".805" stop-color="#1295e4"/><stop offset=".809" stop-color="#1294e4"/><stop offset=".813" stop-color="#1293e5"/><stop offset=".816" stop-color="#1292e5"/><stop offset=".82" stop-color="#1291e5"/><stop offset=".824" stop-color="#1290e5"/><stop offset=".828" stop-color="#1290e6"/><stop offset=".832" stop-color="#128fe6"/><stop offset=".836" stop-color="#138ee6"/><stop offset=".84" stop-color="#138de6"/><stop offset=".844" stop-color="#138ce7"/><stop offset=".848" stop-color="#138be7"/><stop offset=".852" stop-color="#138ae7"/><stop offset=".855" stop-color="#1389e7"/><stop offset=".859" stop-color="#1388e8"/><stop offset=".863" stop-color="#1387e8"/><stop offset=".867" stop-color="#1486e8"/><stop offset=".871" stop-color="#1485e8"/><stop offset=".875" stop-color="#1484e9"/><stop offset=".879" stop-color="#1484e9"/><stop offset=".883" stop-color="#1483e9"/><stop offset=".891" stop-color="#1483e9"/><stop offset=".906" stop-color="#1483e9"/><stop offset=".938" stop-color="#1483e9"/><stop offset="1" stop-color="#1483e9"/></linearGradient><linearGradient id="paint2_linear_1410_86" x1="-.365" x2="-.365" y1="158.071" y2="477.622" gradientUnits="userSpaceOnUse"><stop stop-color="#b03aab"/><stop offset=".008" stop-color="#b03aab"/><stop offset=".012" stop-color="#af3bab"/><stop offset=".016" stop-color="#ae3cab"/><stop offset=".02" stop-color="#ad3eac"/><stop offset=".023" stop-color="#ab3fac"/><stop offset=".027" stop-color="#aa40ac"/><stop offset=".031" stop-color="#a842ad"/><stop offset=".035" stop-color="#a743ad"/><stop offset=".039" stop-color="#a545ad"/><stop offset=".043" stop-color="#a446ae"/><stop offset=".047" stop-color="#a248ae"/><stop offset=".051" stop-color="#a149ae"/><stop offset=".055" stop-color="#9f4baf"/><stop offset=".059" stop-color="#9e4caf"/><stop offset=".063" stop-color="#9d4eaf"/><stop offset=".066" stop-color="#9b4faf"/><stop offset=".07" stop-color="#9a51b0"/><stop offset=".074" stop-color="#9852b0"/><stop offset=".078" stop-color="#9754b0"/><stop offset=".082" stop-color="#9555b1"/><stop offset=".086" stop-color="#9457b1"/><stop offset=".09" stop-color="#9258b1"/><stop offset=".094" stop-color="#915ab2"/><stop offset=".098" stop-color="#905bb2"/><stop offset=".102" stop-color="#8e5cb2"/><stop offset=".105" stop-color="#8d5eb3"/><stop offset=".109" stop-color="#8b5fb3"/><stop offset=".113" stop-color="#8a61b3"/><stop offset=".117" stop-color="#8862b3"/><stop offset=".121" stop-color="#8764b4"/><stop offset=".125" stop-color="#8565b4"/><stop offset=".129" stop-color="#8467b4"/><stop offset=".133" stop-color="#8368b5"/><stop offset=".137" stop-color="#816ab5"/><stop offset=".141" stop-color="#806bb5"/><stop offset=".145" stop-color="#7e6db6"/><stop offset=".148" stop-color="#7d6eb6"/><stop offset=".152" stop-color="#7b70b6"/><stop offset=".156" stop-color="#7a71b7"/><stop offset=".16" stop-color="#7873b7"/><stop offset=".164" stop-color="#7774b7"/><stop offset=".168" stop-color="#7576b7"/><stop offset=".172" stop-color="#7477b8"/><stop offset=".176" stop-color="#7378b8"/><stop offset=".18" stop-color="#717ab8"/><stop offset=".184" stop-color="#707bb9"/><stop offset=".188" stop-color="#6e7db9"/><stop offset=".191" stop-color="#6d7eb9"/><stop offset=".195" stop-color="#6b80ba"/><stop offset=".199" stop-color="#6a81ba"/><stop offset=".203" stop-color="#6883ba"/><stop offset=".207" stop-color="#6784bb"/><stop offset=".211" stop-color="#6686bb"/><stop offset=".215" stop-color="#6487bb"/><stop offset=".219" stop-color="#6389bb"/><stop offset=".223" stop-color="#618abc"/><stop offset=".227" stop-color="#608cbc"/><stop offset=".23" stop-color="#5e8dbc"/><stop offset=".234" stop-color="#5d8fbd"/><stop offset=".238" stop-color="#5b90bd"/><stop offset=".242" stop-color="#5a92bd"/><stop offset=".246" stop-color="#5993be"/><stop offset=".25" stop-color="#5794be"/><stop offset=".254" stop-color="#5696be"/><stop offset=".258" stop-color="#5497bf"/><stop offset=".262" stop-color="#5399bf"/><stop offset=".266" stop-color="#519abf"/><stop offset=".27" stop-color="#509cbf"/><stop offset=".273" stop-color="#4e9dc0"/><stop offset=".277" stop-color="#4d9fc0"/><stop offset=".281" stop-color="#4ca0c0"/><stop offset=".285" stop-color="#4aa2c1"/><stop offset=".289" stop-color="#49a3c1"/><stop offset=".293" stop-color="#47a5c1"/><stop offset=".297" stop-color="#46a6c2"/><stop offset=".301" stop-color="#44a8c2"/><stop offset=".305" stop-color="#43a9c2"/><stop offset=".309" stop-color="#41abc3"/><stop offset=".313" stop-color="#40acc3"/><stop offset=".316" stop-color="#3eaec3"/><stop offset=".32" stop-color="#3dafc3"/><stop offset=".324" stop-color="#3cb0c4"/><stop offset=".328" stop-color="#3ab2c4"/><stop offset=".332" stop-color="#39b3c4"/><stop offset=".336" stop-color="#37b5c5"/><stop offset=".34" stop-color="#36b6c5"/><stop offset=".344" stop-color="#34b8c5"/><stop offset=".348" stop-color="#33b9c6"/><stop offset=".352" stop-color="#31bbc6"/><stop offset=".355" stop-color="#30bcc6"/><stop offset=".359" stop-color="#2fbec7"/><stop offset=".363" stop-color="#2dbfc7"/><stop offset=".367" stop-color="#2cc1c7"/><stop offset=".371" stop-color="#2ac2c7"/><stop offset=".375" stop-color="#29c4c8"/><stop offset=".379" stop-color="#27c5c8"/><stop offset=".383" stop-color="#26c7c8"/><stop offset=".387" stop-color="#24c8c9"/><stop offset=".391" stop-color="#23cac9"/><stop offset=".395" stop-color="#22cbc9"/><stop offset=".398" stop-color="#20ccca"/><stop offset=".402" stop-color="#1fceca"/><stop offset=".406" stop-color="#1dcfca"/><stop offset=".41" stop-color="#1cd1cb"/><stop offset=".414" stop-color="#1ad2cb"/><stop offset=".418" stop-color="#19d4cb"/><stop offset=".422" stop-color="#17d5cc"/><stop offset=".426" stop-color="#16d7cc"/><stop offset=".43" stop-color="#14d8cc"/><stop offset=".434" stop-color="#13dacc"/><stop offset=".438" stop-color="#12dbcd"/><stop offset=".441" stop-color="#10ddcd"/><stop offset=".445" stop-color="#0fdecd"/><stop offset=".449" stop-color="#0de0ce"/><stop offset=".453" stop-color="#0ce1ce"/><stop offset=".457" stop-color="#0ae3ce"/><stop offset=".461" stop-color="#09e4cf"/><stop offset=".465" stop-color="#08e5cf"/><stop offset=".469" stop-color="#07e5cf"/><stop offset=".473" stop-color="#07e5cf"/><stop offset=".477" stop-color="#07e4d0"/><stop offset=".48" stop-color="#07e3d0"/><stop offset=".484" stop-color="#07e2d0"/><stop offset=".488" stop-color="#08e1d0"/><stop offset=".492" stop-color="#08e1d0"/><stop offset=".496" stop-color="#08e0d1"/><stop offset=".5" stop-color="#08dfd1"/><stop offset=".504" stop-color="#08ded1"/><stop offset=".508" stop-color="#08ddd1"/><stop offset=".512" stop-color="#08ddd1"/><stop offset=".516" stop-color="#08dcd2"/><stop offset=".52" stop-color="#08dbd2"/><stop offset=".523" stop-color="#09dad2"/><stop offset=".527" stop-color="#09d9d2"/><stop offset=".531" stop-color="#09d9d3"/><stop offset=".535" stop-color="#09d8d3"/><stop offset=".539" stop-color="#09d7d3"/><stop offset=".543" stop-color="#09d6d3"/><stop offset=".547" stop-color="#09d5d3"/><stop offset=".551" stop-color="#09d5d4"/><stop offset=".555" stop-color="#09d4d4"/><stop offset=".559" stop-color="#0ad3d4"/><stop offset=".563" stop-color="#0ad2d4"/><stop offset=".566" stop-color="#0ad1d4"/><stop offset=".57" stop-color="#0ad0d5"/><stop offset=".574" stop-color="#0ad0d5"/><stop offset=".578" stop-color="#0acfd5"/><stop offset=".582" stop-color="#0aced5"/><stop offset=".586" stop-color="#0acdd5"/><stop offset=".59" stop-color="#0accd6"/><stop offset=".594" stop-color="#0accd6"/><stop offset=".598" stop-color="#0bcbd6"/><stop offset=".602" stop-color="#0bcad6"/><stop offset=".605" stop-color="#0bc9d7"/><stop offset=".609" stop-color="#0bc8d7"/><stop offset=".613" stop-color="#0bc8d7"/><stop offset=".617" stop-color="#0bc7d7"/><stop offset=".621" stop-color="#0bc6d7"/><stop offset=".625" stop-color="#0bc5d8"/><stop offset=".629" stop-color="#0bc4d8"/><stop offset=".633" stop-color="#0cc4d8"/><stop offset=".637" stop-color="#0cc3d8"/><stop offset=".641" stop-color="#0cc2d8"/><stop offset=".645" stop-color="#0cc1d9"/><stop offset=".648" stop-color="#0cc0d9"/><stop offset=".652" stop-color="#0cc0d9"/><stop offset=".656" stop-color="#0cbfd9"/><stop offset=".66" stop-color="#0cbeda"/><stop offset=".664" stop-color="#0cbdda"/><stop offset=".668" stop-color="#0cbcda"/><stop offset=".672" stop-color="#0dbcda"/><stop offset=".676" stop-color="#0dbbda"/><stop offset=".68" stop-color="#0dbadb"/><stop offset=".684" stop-color="#0db9db"/><stop offset=".688" stop-color="#0db8db"/><stop offset=".691" stop-color="#0db7db"/><stop offset=".695" stop-color="#0db7db"/><stop offset=".699" stop-color="#0db6dc"/><stop offset=".703" stop-color="#0db5dc"/><stop offset=".707" stop-color="#0eb4dc"/><stop offset=".711" stop-color="#0eb3dc"/><stop offset=".715" stop-color="#0eb3dc"/><stop offset=".719" stop-color="#0eb2dd"/><stop offset=".723" stop-color="#0eb1dd"/><stop offset=".727" stop-color="#0eb0dd"/><stop offset=".73" stop-color="#0eafdd"/><stop offset=".734" stop-color="#0eafde"/><stop offset=".738" stop-color="#0eaede"/><stop offset=".742" stop-color="#0eadde"/><stop offset=".746" stop-color="#0facde"/><stop offset=".75" stop-color="#0fabde"/><stop offset=".754" stop-color="#0fabdf"/><stop offset=".758" stop-color="#0faadf"/><stop offset=".762" stop-color="#0fa9df"/><stop offset=".766" stop-color="#0fa8df"/><stop offset=".77" stop-color="#0fa7df"/><stop offset=".773" stop-color="#0fa7e0"/><stop offset=".777" stop-color="#0fa6e0"/><stop offset=".781" stop-color="#10a5e0"/><stop offset=".785" stop-color="#10a4e0"/><stop offset=".789" stop-color="#10a3e1"/><stop offset=".793" stop-color="#10a3e1"/><stop offset=".797" stop-color="#10a2e1"/><stop offset=".801" stop-color="#10a1e1"/><stop offset=".805" stop-color="#10a0e1"/><stop offset=".809" stop-color="#109fe2"/><stop offset=".813" stop-color="#109fe2"/><stop offset=".816" stop-color="#109ee2"/><stop offset=".82" stop-color="#119de2"/><stop offset=".824" stop-color="#119ce2"/><stop offset=".828" stop-color="#119be3"/><stop offset=".832" stop-color="#119ae3"/><stop offset=".836" stop-color="#119ae3"/><stop offset=".84" stop-color="#1199e3"/><stop offset=".844" stop-color="#1198e3"/><stop offset=".848" stop-color="#1197e4"/><stop offset=".852" stop-color="#1196e4"/><stop offset=".855" stop-color="#1296e4"/><stop offset=".859" stop-color="#1295e4"/><stop offset=".863" stop-color="#1294e5"/><stop offset=".867" stop-color="#1293e5"/><stop offset=".871" stop-color="#1292e5"/><stop offset=".875" stop-color="#1292e5"/><stop offset=".879" stop-color="#1291e5"/><stop offset=".883" stop-color="#1290e6"/><stop offset=".887" stop-color="#128fe6"/><stop offset=".891" stop-color="#138ee6"/><stop offset=".895" stop-color="#138ee6"/><stop offset=".898" stop-color="#138de6"/><stop offset=".902" stop-color="#138ce7"/><stop offset=".906" stop-color="#138be7"/><stop offset=".91" stop-color="#138ae7"/><stop offset=".914" stop-color="#138ae7"/><stop offset=".918" stop-color="#1389e7"/><stop offset=".922" stop-color="#1388e8"/><stop offset=".926" stop-color="#1387e8"/><stop offset=".93" stop-color="#1486e8"/><stop offset=".934" stop-color="#1486e8"/><stop offset=".938" stop-color="#1485e9"/><stop offset=".941" stop-color="#1484e9"/><stop offset=".945" stop-color="#1483e9"/><stop offset=".953" stop-color="#1483e9"/><stop offset=".969" stop-color="#1483e9"/><stop offset="1" stop-color="#1483e9"/></linearGradient><linearGradient id="paint3_linear_1410_86" x1="49.147" x2="49.147" y1="285.924" y2="341.142" gradientUnits="userSpaceOnUse"><stop stop-color="#1fcdca"/><stop offset=".008" stop-color="#1fcdca"/><stop offset=".016" stop-color="#1fceca"/><stop offset=".023" stop-color="#1ececa"/><stop offset=".031" stop-color="#1ecfca"/><stop offset=".039" stop-color="#1dcfca"/><stop offset=".047" stop-color="#1dd0ca"/><stop offset=".055" stop-color="#1cd0ca"/><stop offset=".063" stop-color="#1cd1cb"/><stop offset=".07" stop-color="#1bd1cb"/><stop offset=".078" stop-color="#1bd2cb"/><stop offset=".086" stop-color="#1ad2cb"/><stop offset=".094" stop-color="#1ad3cb"/><stop offset=".102" stop-color="#19d3cb"/><stop offset=".109" stop-color="#19d4cb"/><stop offset=".117" stop-color="#18d4cb"/><stop offset=".125" stop-color="#18d5cb"/><stop offset=".133" stop-color="#17d5cc"/><stop offset=".141" stop-color="#17d6cc"/><stop offset=".148" stop-color="#16d7cc"/><stop offset=".156" stop-color="#16d7cc"/><stop offset=".164" stop-color="#15d8cc"/><stop offset=".172" stop-color="#15d8cc"/><stop offset=".18" stop-color="#14d9cc"/><stop offset=".188" stop-color="#14d9cc"/><stop offset=".195" stop-color="#13dacc"/><stop offset=".203" stop-color="#13dacd"/><stop offset=".211" stop-color="#12dbcd"/><stop offset=".219" stop-color="#12dbcd"/><stop offset=".227" stop-color="#11dccd"/><stop offset=".234" stop-color="#11dccd"/><stop offset=".242" stop-color="#10ddcd"/><stop offset=".25" stop-color="#10ddcd"/><stop offset=".258" stop-color="#0fdecd"/><stop offset=".266" stop-color="#0fdecd"/><stop offset=".273" stop-color="#0edfcd"/><stop offset=".281" stop-color="#0edfce"/><stop offset=".289" stop-color="#0de0ce"/><stop offset=".297" stop-color="#0de0ce"/><stop offset=".305" stop-color="#0ce1ce"/><stop offset=".313" stop-color="#0ce1ce"/><stop offset=".32" stop-color="#0be2ce"/><stop offset=".328" stop-color="#0be2ce"/><stop offset=".336" stop-color="#0ae3ce"/><stop offset=".344" stop-color="#0ae3ce"/><stop offset=".352" stop-color="#09e4cf"/><stop offset=".359" stop-color="#09e4cf"/><stop offset=".367" stop-color="#08e5cf"/><stop offset=".375" stop-color="#08e5cf"/><stop offset=".406" stop-color="#07e5cf"/><stop offset=".422" stop-color="#07e5cf"/><stop offset=".438" stop-color="#07e4cf"/><stop offset=".453" stop-color="#07e4d0"/><stop offset=".469" stop-color="#07e3d0"/><stop offset=".484" stop-color="#07e3d0"/><stop offset=".5" stop-color="#08e2d0"/><stop offset=".516" stop-color="#08e2d0"/><stop offset=".531" stop-color="#08e1d0"/><stop offset=".547" stop-color="#08e0d0"/><stop offset=".563" stop-color="#08e0d1"/><stop offset=".578" stop-color="#08dfd1"/><stop offset=".594" stop-color="#08dfd1"/><stop offset=".609" stop-color="#08ded1"/><stop offset=".625" stop-color="#08ded1"/><stop offset=".641" stop-color="#08ddd1"/><stop offset=".656" stop-color="#08dcd1"/><stop offset=".672" stop-color="#08dcd2"/><stop offset=".688" stop-color="#08dbd2"/><stop offset=".703" stop-color="#08dbd2"/><stop offset=".719" stop-color="#09dad2"/><stop offset=".734" stop-color="#09dad2"/><stop offset=".75" stop-color="#09d9d2"/><stop offset=".766" stop-color="#09d9d3"/><stop offset=".781" stop-color="#09d8d3"/><stop offset=".797" stop-color="#09d7d3"/><stop offset=".813" stop-color="#09d7d3"/><stop offset=".828" stop-color="#09d6d3"/><stop offset=".844" stop-color="#09d6d3"/><stop offset=".859" stop-color="#09d5d3"/><stop offset=".875" stop-color="#09d5d4"/><stop offset=".891" stop-color="#09d4d4"/><stop offset=".906" stop-color="#09d4d4"/><stop offset=".922" stop-color="#09d3d4"/><stop offset=".938" stop-color="#0ad2d4"/><stop offset=".953" stop-color="#0ad2d4"/><stop offset=".969" stop-color="#0ad1d4"/><stop offset=".984" stop-color="#0ad1d5"/><stop offset="1" stop-color="#0ad0d5"/></linearGradient><clipPath id="clip0_1410_86"><path fill="#fff" d="M0 0h318v636H0z"/></clipPath></defs></svg>