<svg width="636" height="636" viewBox="0 0 636 636" fill="none" xmlns="http://www.w3.org/2000/svg">
<mask id="mask0_1419_190" style="mask-type:luminance" maskUnits="userSpaceOnUse" x="0" y="0" width="636" height="636">
<path d="M0 0H636V636H0V0Z" fill="white"/>
</mask>
<g mask="url(#mask0_1419_190)">
<mask id="mask1_1419_190" style="mask-type:luminance" maskUnits="userSpaceOnUse" x="0" y="0" width="636" height="636">
<path d="M308.306 554.88C344.79 554.88 377.989 576.51 392.884 609.997L394.897 614.505L399.667 613.196C418.498 608.002 436.925 600.935 454.436 592.191L458.821 589.994L457.335 585.31C446.859 552.141 455.554 516.327 480.046 491.835C497.519 474.366 520.735 464.751 545.437 464.751C556.531 464.751 567.43 466.722 577.831 470.602L582.437 472.327L584.854 468.043C594.451 450.997 602.428 432.951 608.549 414.416L610.072 409.799L605.78 407.528C575.639 391.581 556.912 360.28 556.912 325.816C556.912 290.279 577.562 257.492 609.537 242.283L613.903 240.206L612.601 235.541C607.303 216.635 600.119 198.155 591.252 180.6L589.116 176.376L584.555 177.667C576.365 179.987 567.86 181.154 559.258 181.154C534.557 181.165 511.34 171.538 493.868 154.076C469.263 129.461 460.534 92.1729 471.647 59.079L473.151 54.5967L469.043 52.2582C451.846 42.4704 433.64 34.3475 414.914 28.1142L410.45 26.6288L408.112 30.6996C391.63 59.3858 360.875 77.2105 327.848 77.2105C293.153 77.2105 260.647 57.0661 245.052 25.8992L242.953 21.7049L238.426 22.9209C219.344 28.0468 200.685 35.0846 182.947 43.8398L178.704 45.9388L179.95 50.496C188.645 82.4599 179.508 116.856 156.109 140.255C138.636 157.717 115.419 167.344 90.7178 167.344C80.4024 167.344 70.1918 165.608 60.3628 162.199L55.8917 160.658L53.5158 164.736C43.6007 181.76 35.3245 199.805 28.919 218.375L27.3363 222.954L31.5792 225.281C60.9764 241.49 79.2425 272.522 79.2425 306.278C79.2425 342.395 58.189 375.395 25.5928 390.328L21.1965 392.348L22.4349 397.033C27.4411 415.92 34.318 434.407 42.8749 451.973L45.03 456.388L49.7219 454.951C58.4584 452.28 67.5952 450.929 76.8854 450.929C101.598 450.929 124.814 460.545 142.287 478.014C167.977 503.704 176.186 542.383 163.187 576.559L161.451 581.134L165.694 583.578C182.651 593.358 200.629 601.507 219.123 607.819L223.808 609.42L226.086 605.024C242.081 574.097 273.585 554.88 308.306 554.88ZM381.973 635.798C376.372 599.996 345.175 572.802 308.306 572.802C273.08 572.802 242.822 597.601 235.444 631.451C200.427 622.246 167.487 607.321 137.382 587.016C158.466 557.772 155.532 516.616 129.615 490.687C115.535 476.607 96.809 468.847 76.8854 468.847C62.7873 468.847 49.3103 472.709 37.5282 480.057C19.4641 448.8 6.89634 415.085 0.105469 379.664C35.4105 373.334 61.3206 342.807 61.3206 306.278C61.3206 271.871 38.1419 242.429 5.38477 234.055C14.675 199.45 29.5588 166.902 49.7032 137.142C61.7995 145.093 76.1483 149.422 90.7178 149.422C110.63 149.411 129.357 141.662 143.436 127.583C167.258 103.753 171.988 67.0373 155.648 38.1714C186.587 20.1821 219.958 7.58813 254.993 0.670044C262.39 34.4822 292.704 59.2886 327.848 59.2886C361.429 59.2886 390.71 36.7608 399.645 4.92416C434.205 13.8776 466.779 28.421 496.625 48.1987C477.757 77.3639 481.58 116.444 506.54 141.404C520.619 155.483 539.346 163.236 559.258 163.236C572.514 163.236 585.322 159.786 596.644 153.216C614.996 184.095 627.934 217.477 635.166 252.598C600.37 259.284 574.834 289.733 574.834 325.816C574.834 360.22 598.96 390.346 631.9 398.323C623.021 433.254 608.463 466.187 588.539 496.378C576.002 487.499 560.927 482.672 545.437 482.672C525.525 482.672 506.798 490.429 492.719 504.508C467.913 529.326 463.984 568.166 482.538 597.275C451.274 615.762 417.499 628.701 381.973 635.798Z" fill="white"/>
</mask>
<g mask="url(#mask1_1419_190)">
<mask id="mask2_1419_190" style="mask-type:luminance" maskUnits="userSpaceOnUse" x="0" y="0" width="636" height="636">
<path d="M308.306 554.88C344.79 554.88 377.989 576.51 392.884 609.997L394.897 614.505L399.667 613.196C418.498 608.002 436.925 600.935 454.436 592.191L458.821 589.994L457.335 585.31C446.859 552.141 455.554 516.327 480.046 491.835C497.519 474.366 520.735 464.751 545.437 464.751C556.531 464.751 567.43 466.722 577.831 470.602L582.437 472.327L584.854 468.043C594.451 450.997 602.428 432.951 608.549 414.416L610.072 409.799L605.78 407.528C575.639 391.581 556.912 360.28 556.912 325.816C556.912 290.279 577.562 257.492 609.537 242.283L613.903 240.206L612.601 235.541C607.303 216.635 600.119 198.155 591.252 180.6L589.116 176.376L584.555 177.667C576.365 179.987 567.86 181.154 559.258 181.154C534.557 181.165 511.34 171.538 493.868 154.076C469.263 129.461 460.534 92.1729 471.647 59.079L473.151 54.5967L469.043 52.2582C451.846 42.4704 433.64 34.3475 414.914 28.1142L410.45 26.6288L408.112 30.6996C391.63 59.3858 360.875 77.2105 327.848 77.2105C293.153 77.2105 260.647 57.0661 245.052 25.8992L242.953 21.7049L238.426 22.9209C219.344 28.0468 200.685 35.0846 182.947 43.8398L178.704 45.9388L179.95 50.496C188.645 82.4599 179.508 116.856 156.109 140.255C138.636 157.717 115.419 167.344 90.7178 167.344C80.4024 167.344 70.1918 165.608 60.3628 162.199L55.8917 160.658L53.5158 164.736C43.6007 181.76 35.3245 199.805 28.919 218.375L27.3363 222.954L31.5792 225.281C60.9764 241.49 79.2425 272.522 79.2425 306.278C79.2425 342.395 58.189 375.395 25.5928 390.328L21.1965 392.348L22.4349 397.033C27.4411 415.92 34.318 434.407 42.8749 451.973L45.03 456.388L49.7219 454.951C58.4584 452.28 67.5952 450.929 76.8854 450.929C101.598 450.929 124.814 460.545 142.287 478.014C167.977 503.704 176.186 542.383 163.187 576.559L161.451 581.134L165.694 583.578C182.651 593.358 200.629 601.507 219.123 607.819L223.808 609.42L226.086 605.024C242.081 574.097 273.585 554.88 308.306 554.88ZM381.973 635.798C376.372 599.996 345.175 572.802 308.306 572.802C273.08 572.802 242.822 597.601 235.444 631.451C200.427 622.246 167.487 607.321 137.382 587.016C158.466 557.772 155.532 516.616 129.615 490.687C115.535 476.607 96.809 468.847 76.8854 468.847C62.7873 468.847 49.3103 472.709 37.5282 480.057C19.4641 448.8 6.89634 415.085 0.105469 379.664C35.4105 373.334 61.3206 342.807 61.3206 306.278C61.3206 271.871 38.1419 242.429 5.38477 234.055C14.675 199.45 29.5588 166.902 49.7032 137.142C61.7995 145.093 76.1483 149.422 90.7178 149.422C110.63 149.411 129.357 141.662 143.436 127.583C167.258 103.753 171.988 67.0373 155.648 38.1714C186.587 20.1821 219.958 7.58813 254.993 0.670044C262.39 34.4822 292.704 59.2886 327.848 59.2886C361.429 59.2886 390.71 36.7608 399.645 4.92416C434.205 13.8776 466.779 28.421 496.625 48.1987C477.757 77.3639 481.58 116.444 506.54 141.404C520.619 155.483 539.346 163.236 559.258 163.236C572.514 163.236 585.322 159.786 596.644 153.216C614.996 184.095 627.934 217.477 635.166 252.598C600.37 259.284 574.834 289.733 574.834 325.816C574.834 360.22 598.96 390.346 631.9 398.323C623.021 433.254 608.463 466.187 588.539 496.378C576.002 487.499 560.927 482.672 545.437 482.672C525.525 482.672 506.798 490.429 492.719 504.508C467.913 529.326 463.984 568.166 482.538 597.275C451.274 615.762 417.499 628.701 381.973 635.798Z" fill="white"/>
</mask>
<g mask="url(#mask2_1419_190)">
<path d="M858.685 92.6527L92.0793 -222.822L-223.41 543.817L543.195 859.292L858.685 92.6527Z" fill="url(#paint0_linear_1419_190)"/>
</g>
</g>
</g>
<mask id="mask3_1419_190" style="mask-type:luminance" maskUnits="userSpaceOnUse" x="0" y="0" width="636" height="636">
<path d="M0 0H636V636H0V0Z" fill="white"/>
</mask>
<g mask="url(#mask3_1419_190)">
<mask id="mask4_1419_190" style="mask-type:luminance" maskUnits="userSpaceOnUse" x="0" y="0" width="636" height="636">
<path d="M308.306 554.88C344.79 554.88 377.989 576.51 392.884 609.997L394.897 614.505L399.667 613.196C418.498 608.002 436.925 600.935 454.436 592.191L458.821 589.994L457.335 585.31C446.859 552.141 455.554 516.327 480.046 491.835C497.519 474.366 520.735 464.751 545.437 464.751C556.531 464.751 567.43 466.722 577.831 470.602L582.437 472.327L584.854 468.043C594.451 450.997 602.428 432.951 608.549 414.416L610.072 409.799L605.78 407.528C575.639 391.581 556.912 360.28 556.912 325.816C556.912 290.279 577.562 257.492 609.537 242.283L613.903 240.206L612.601 235.541C607.303 216.635 600.119 198.155 591.252 180.6L589.116 176.376L584.555 177.667C576.365 179.987 567.86 181.154 559.258 181.154C534.557 181.165 511.34 171.538 493.868 154.076C469.263 129.461 460.534 92.1729 471.647 59.079L473.151 54.5967L469.043 52.2582C451.846 42.4704 433.64 34.3475 414.914 28.1142L410.45 26.6288L408.112 30.6996C391.63 59.3858 360.875 77.2105 327.848 77.2105C293.153 77.2105 260.647 57.0661 245.052 25.8992L242.953 21.7049L238.426 22.9209C219.344 28.0468 200.685 35.0846 182.947 43.8398L178.704 45.9388L179.95 50.496C188.645 82.4599 179.508 116.856 156.109 140.255C138.636 157.717 115.419 167.344 90.7178 167.344C80.4024 167.344 70.1918 165.608 60.3628 162.199L55.8917 160.658L53.5158 164.736C43.6007 181.76 35.3245 199.805 28.919 218.375L27.3363 222.954L31.5792 225.281C60.9764 241.49 79.2425 272.522 79.2425 306.278C79.2425 342.395 58.189 375.395 25.5928 390.328L21.1965 392.348L22.4349 397.033C27.4411 415.92 34.318 434.407 42.8749 451.973L45.03 456.388L49.7219 454.951C58.4584 452.28 67.5952 450.929 76.8854 450.929C101.598 450.929 124.814 460.545 142.287 478.014C167.977 503.704 176.186 542.383 163.187 576.559L161.451 581.134L165.694 583.578C182.651 593.358 200.629 601.507 219.123 607.819L223.808 609.42L226.086 605.024C242.081 574.097 273.585 554.88 308.306 554.88ZM381.973 635.798C376.372 599.996 345.175 572.802 308.306 572.802C273.08 572.802 242.822 597.601 235.444 631.451C200.427 622.246 167.487 607.321 137.382 587.016C158.466 557.772 155.532 516.616 129.615 490.687C115.535 476.607 96.809 468.847 76.8854 468.847C62.7873 468.847 49.3103 472.709 37.5282 480.057C19.4641 448.8 6.89634 415.085 0.105469 379.664C35.4105 373.334 61.3206 342.807 61.3206 306.278C61.3206 271.871 38.1419 242.429 5.38477 234.055C14.675 199.45 29.5588 166.902 49.7032 137.142C61.7995 145.093 76.1483 149.422 90.7178 149.422C110.63 149.411 129.357 141.662 143.436 127.583C167.258 103.753 171.988 67.0373 155.648 38.1714C186.587 20.1821 219.958 7.58813 254.993 0.670044C262.39 34.4822 292.704 59.2886 327.848 59.2886C361.429 59.2886 390.71 36.7608 399.645 4.92416C434.205 13.8776 466.779 28.421 496.625 48.1987C477.757 77.3639 481.58 116.444 506.54 141.404C520.619 155.483 539.346 163.236 559.258 163.236C572.514 163.236 585.322 159.786 596.644 153.216C614.996 184.095 627.934 217.477 635.166 252.598C600.37 259.284 574.834 289.733 574.834 325.816C574.834 360.22 598.96 390.346 631.9 398.323C623.021 433.254 608.463 466.187 588.539 496.378C576.002 487.499 560.927 482.672 545.437 482.672C525.525 482.672 506.798 490.429 492.719 504.508C467.913 529.326 463.984 568.166 482.538 597.275C451.274 615.762 417.499 628.701 381.973 635.798Z" fill="white"/>
</mask>
<g mask="url(#mask4_1419_190)">
<mask id="mask5_1419_190" style="mask-type:luminance" maskUnits="userSpaceOnUse" x="0" y="0" width="636" height="636">
<path d="M308.306 554.88C344.79 554.88 377.989 576.51 392.884 609.997L394.897 614.505L399.667 613.196C418.498 608.002 436.925 600.935 454.436 592.191L458.821 589.994L457.335 585.31C446.859 552.141 455.554 516.327 480.046 491.835C497.519 474.366 520.735 464.751 545.437 464.751C556.531 464.751 567.43 466.722 577.831 470.602L582.437 472.327L584.854 468.043C594.451 450.997 602.428 432.951 608.549 414.416L610.072 409.799L605.78 407.528C575.639 391.581 556.912 360.28 556.912 325.816C556.912 290.279 577.562 257.492 609.537 242.283L613.903 240.206L612.601 235.541C607.303 216.635 600.119 198.155 591.252 180.6L589.116 176.376L584.555 177.667C576.365 179.987 567.86 181.154 559.258 181.154C534.557 181.165 511.34 171.538 493.868 154.076C469.263 129.461 460.534 92.1729 471.647 59.079L473.151 54.5967L469.043 52.2582C451.846 42.4704 433.64 34.3475 414.914 28.1142L410.45 26.6288L408.112 30.6996C391.63 59.3858 360.875 77.2105 327.848 77.2105C293.153 77.2105 260.647 57.0661 245.052 25.8992L242.953 21.7049L238.426 22.9209C219.344 28.0468 200.685 35.0846 182.947 43.8398L178.704 45.9388L179.95 50.496C188.645 82.4599 179.508 116.856 156.109 140.255C138.636 157.717 115.419 167.344 90.7178 167.344C80.4024 167.344 70.1918 165.608 60.3628 162.199L55.8917 160.658L53.5158 164.736C43.6007 181.76 35.3245 199.805 28.919 218.375L27.3363 222.954L31.5792 225.281C60.9764 241.49 79.2425 272.522 79.2425 306.278C79.2425 342.395 58.189 375.395 25.5928 390.328L21.1965 392.348L22.4349 397.033C27.4411 415.92 34.318 434.407 42.8749 451.973L45.03 456.388L49.7219 454.951C58.4584 452.28 67.5952 450.929 76.8854 450.929C101.598 450.929 124.814 460.545 142.287 478.014C167.977 503.704 176.186 542.383 163.187 576.559L161.451 581.134L165.694 583.578C182.651 593.358 200.629 601.507 219.123 607.819L223.808 609.42L226.086 605.024C242.081 574.097 273.585 554.88 308.306 554.88ZM381.973 635.798C376.372 599.996 345.175 572.802 308.306 572.802C273.08 572.802 242.822 597.601 235.444 631.451C200.427 622.246 167.487 607.321 137.382 587.016C158.466 557.772 155.532 516.616 129.615 490.687C115.535 476.607 96.809 468.847 76.8854 468.847C62.7873 468.847 49.3103 472.709 37.5282 480.057C19.4641 448.8 6.89634 415.085 0.105469 379.664C35.4105 373.334 61.3206 342.807 61.3206 306.278C61.3206 271.871 38.1419 242.429 5.38477 234.055C14.675 199.45 29.5588 166.902 49.7032 137.142C61.7995 145.093 76.1483 149.422 90.7178 149.422C110.63 149.411 129.357 141.662 143.436 127.583C167.258 103.753 171.988 67.0373 155.648 38.1714C186.587 20.1821 219.958 7.58813 254.993 0.670044C262.39 34.4822 292.704 59.2886 327.848 59.2886C361.429 59.2886 390.71 36.7608 399.645 4.92416C434.205 13.8776 466.779 28.421 496.625 48.1987C477.757 77.3639 481.58 116.444 506.54 141.404C520.619 155.483 539.346 163.236 559.258 163.236C572.514 163.236 585.322 159.786 596.644 153.216C614.996 184.095 627.934 217.477 635.166 252.598C600.37 259.284 574.834 289.733 574.834 325.816C574.834 360.22 598.96 390.346 631.9 398.323C623.021 433.254 608.463 466.187 588.539 496.378C576.002 487.499 560.927 482.672 545.437 482.672C525.525 482.672 506.798 490.429 492.719 504.508C467.913 529.326 463.984 568.166 482.538 597.275C451.274 615.762 417.499 628.701 381.973 635.798Z" fill="white"/>
</mask>
<g mask="url(#mask5_1419_190)">
<path d="M858.685 92.6527L92.0793 -222.822L-223.41 543.817L543.195 859.292L858.685 92.6527Z" fill="url(#paint1_linear_1419_190)"/>
</g>
</g>
</g>
<mask id="mask6_1419_190" style="mask-type:luminance" maskUnits="userSpaceOnUse" x="258" y="286" width="19" height="55">
<path d="M258.613 286.393H276.812V340.989H258.613V286.393Z" fill="white"/>
</mask>
<g mask="url(#mask6_1419_190)">
<mask id="mask7_1419_190" style="mask-type:luminance" maskUnits="userSpaceOnUse" x="259" y="286" width="18" height="55">
<path d="M271.82 288.632C270.365 286.035 267.177 285.923 265.527 288.343L265.269 288.71C264.217 290.259 264.071 292.452 264.981 294.12C265.433 294.925 265.852 295.871 266.264 296.956C268.7 303.403 269.216 310.718 267.723 317.569C266.515 323.125 264.023 328.191 260.584 332.164C259.189 333.784 259.073 336.4 260.24 338.248L260.472 338.611C261.89 340.852 264.648 341.14 266.343 339.187C270.855 333.956 274.129 327.308 275.711 320.019C277.664 311.036 276.983 301.42 273.796 292.942C273.182 291.344 272.531 289.915 271.82 288.632Z" fill="white"/>
</mask>
<g mask="url(#mask7_1419_190)">
<mask id="mask8_1419_190" style="mask-type:luminance" maskUnits="userSpaceOnUse" x="259" y="286" width="18" height="55">
<path d="M271.82 288.632C270.365 286.035 267.177 285.923 265.527 288.343L265.269 288.71C264.217 290.259 264.071 292.452 264.981 294.12C265.433 294.925 265.852 295.871 266.264 296.956C268.7 303.403 269.216 310.718 267.723 317.569C266.515 323.125 264.023 328.191 260.584 332.164C259.189 333.784 259.073 336.4 260.24 338.248L260.472 338.611C261.89 340.852 264.648 341.14 266.343 339.187C270.855 333.956 274.129 327.308 275.711 320.019C277.664 311.036 276.983 301.42 273.796 292.942C273.182 291.344 272.531 289.915 271.82 288.632Z" fill="white"/>
</mask>
<g mask="url(#mask8_1419_190)">
<path d="M277.666 285.925H259.074V341.143H277.666V285.925Z" fill="url(#paint2_linear_1419_190)"/>
</g>
</g>
</g>
<mask id="mask9_1419_190" style="mask-type:luminance" maskUnits="userSpaceOnUse" x="170" y="158" width="295" height="320">
<path d="M170.494 158.042H464.548V477.958H170.494V158.042Z" fill="white"/>
</mask>
<g mask="url(#mask9_1419_190)">
<mask id="mask10_1419_190" style="mask-type:luminance" maskUnits="userSpaceOnUse" x="171" y="158" width="294" height="320">
<path d="M454.654 323.182C454.201 325.977 451.481 327.309 449.472 325.749L449.405 325.692C447.747 324.409 445.525 325.068 444.567 327.118L443.856 328.641C443.007 330.482 443.474 332.79 444.948 333.939C448.907 337.052 450.954 340.299 453.109 346.398C455.582 353.383 452.948 361.705 449.652 367.164C446.396 372.548 439.22 376.809 433.503 375.728C432.594 375.556 431.79 374.972 431.251 374.089C429.328 370.909 427.191 367.77 424.987 364.511C423.771 362.722 422.402 360.709 420.505 359.082C418.964 357.769 415.076 354.618 410.897 352.557C410.945 351.733 410.994 350.929 411.024 350.136C411.215 344.886 411.061 339.656 410.841 334.522C410.725 331.937 408.858 329.943 406.684 330.096L406.291 330.126C404.136 330.268 402.49 332.453 402.594 335.02C402.815 339.914 402.957 344.875 402.778 349.706C402.692 351.954 402.538 354.323 401.981 356.388C401.09 359.636 399.002 362.416 396.436 363.965C394.864 364.915 394.011 366.973 394.348 369.016L394.423 369.495C394.92 372.51 397.7 374.168 400.016 372.798C403.84 370.546 407.002 366.793 408.869 362.225C411.005 363.429 413.456 365.136 415.686 367.033C416.674 367.882 417.594 369.233 418.559 370.651C427 383.095 432.575 391.304 431.644 405.604C431.079 414.329 426.596 422.808 420.228 427.204C414.683 431.035 405.756 432.03 399.089 429.913C397.708 429.471 396.705 428.016 396.615 426.321C396.006 413.648 389.129 401.552 379.483 396.074C380.183 393.601 380.669 391.102 381.099 388.67C381.578 385.987 382.038 383.114 382.008 380.094C381.982 377.127 381.473 374.168 380.527 371.418C379.558 368.6 376.609 367.624 374.548 369.435L374.271 369.674C372.845 370.931 372.232 373.18 372.902 375.144C373.448 376.742 373.743 378.467 373.762 380.203C373.781 382.231 373.429 384.404 373.025 386.649C372.355 390.413 371.57 394.349 369.95 397.433C369.022 399.225 367.787 400.632 366.492 401.466C365.153 402.319 364.423 404.1 364.551 405.9L364.588 406.397C364.827 409.75 367.88 411.695 370.384 410.094C372.367 408.829 374.185 407.003 375.697 404.732C375.783 404.788 375.872 404.867 375.966 404.923C383.752 409.289 389.05 419.646 388.362 429.894C388.141 433.265 387.336 436.704 385.986 440.123C383.801 445.62 380.228 450.948 375.064 456.395C370.17 461.57 365.89 464.634 361.598 466.033C349.442 470.007 337.604 467.489 328.265 458.936C326.638 457.45 325.115 455.976 324.329 454.289C323.659 452.833 323.364 450.88 323.094 448.819C322.432 443.685 321.994 437.804 321.774 431.705C320.644 432.135 319.465 432.363 318.257 432.363C316.61 432.363 315.02 431.933 313.505 431.147C313.505 431.207 313.516 431.263 313.516 431.331C313.295 437.564 312.854 443.581 312.177 448.819C311.907 450.88 311.619 452.833 310.938 454.289C310.152 455.976 308.63 457.45 307.002 458.936C297.674 467.489 285.825 470.007 273.669 466.033C269.388 464.634 265.108 461.57 260.203 456.395C255.04 450.948 251.467 445.62 249.293 440.123C247.935 436.704 247.138 433.265 246.909 429.894C246.228 419.646 251.526 409.289 259.301 404.923C259.399 404.867 259.485 404.788 259.571 404.732C261.082 407.003 262.904 408.829 264.887 410.094C267.376 411.695 270.444 409.75 270.683 406.397L270.72 405.9C270.855 404.1 270.126 402.326 268.786 401.466C267.484 400.632 266.257 399.225 265.318 397.433C263.698 394.349 262.912 390.413 262.242 386.649C261.849 384.404 261.498 382.231 261.516 380.203C261.524 378.467 261.823 376.742 262.377 375.144C263.039 373.18 262.425 370.931 260.996 369.674L260.719 369.435C258.662 367.624 255.709 368.6 254.744 371.418C253.805 374.168 253.289 377.127 253.259 380.094C253.24 383.114 253.7 385.987 254.179 388.67C254.609 391.102 255.088 393.601 255.788 396.074C246.142 401.552 239.273 413.648 238.652 426.321C238.573 428.016 237.571 429.471 236.179 429.913C229.522 432.03 220.595 431.035 215.05 427.204C208.682 422.808 204.2 414.329 203.624 405.604C202.696 391.304 208.271 383.095 216.719 370.651C217.684 369.233 218.593 367.882 219.592 367.033C221.811 365.136 224.266 363.429 226.41 362.225C228.277 366.801 231.438 370.557 235.262 372.806C237.578 374.168 240.358 372.51 240.844 369.495L240.923 369.016C241.256 366.973 240.403 364.915 238.835 363.965C236.268 362.416 234.177 359.636 233.298 356.388C232.733 354.323 232.579 351.954 232.493 349.706C232.321 344.875 232.456 339.914 232.677 335.02C232.789 332.453 231.131 330.268 228.976 330.126L228.595 330.096C226.41 329.943 224.554 331.937 224.438 334.522C224.206 339.656 224.064 344.886 224.254 350.136C224.284 350.929 224.322 351.733 224.382 352.557C220.195 354.618 216.315 357.769 214.773 359.082C212.876 360.709 211.507 362.722 210.291 364.511C208.076 367.77 205.943 370.909 204.016 374.089C203.481 374.972 202.677 375.556 201.775 375.728C196.058 376.809 188.875 372.548 185.627 367.164C182.331 361.705 179.689 353.383 182.17 346.398C184.325 340.307 186.364 337.052 190.33 333.939C191.793 332.79 192.272 330.482 191.423 328.641L190.704 327.118C189.754 325.06 187.524 324.409 185.874 325.692C185.848 325.711 185.829 325.73 185.799 325.749C183.797 327.32 181.077 325.999 180.617 323.201C178.93 312.848 179.064 302.963 181.103 294.896C184.523 281.393 193.23 265.461 207.406 261.237C219.428 257.656 232.894 263.692 239.486 275.118C239.733 275.548 240.032 275.904 240.365 276.181C237.578 280.682 235.932 286.201 235.681 291.794C235.55 294.754 237.743 297.1 240.193 296.658L240.579 296.591C242.446 296.258 243.804 294.38 243.92 292.138C244.111 288.288 245.301 284.494 247.302 281.497C249.311 278.489 252.148 276.259 255.26 275.167C257.071 274.516 258.299 272.522 258.153 270.28L258.123 269.831C257.924 266.891 255.511 264.878 253.124 265.701C250.692 266.535 248.365 267.837 246.258 269.513C238.813 256.613 225.107 249.208 211.458 250.559C209.535 250.75 207.867 248.999 207.792 246.709C207.59 241.411 207.683 236.075 208.45 230.886C209.752 222.112 213 214.782 217.591 210.255C219.372 208.5 221.553 206.948 224.247 205.511C234.244 200.187 245.301 200.052 253.812 205.167C261.935 210.053 267.331 220.032 267.473 229.842C267.484 230.673 267.701 231.44 268.056 232.091C267.308 232.974 266.612 233.92 265.98 234.927C264.446 237.351 265.232 240.838 267.578 242.024L267.941 242.215C269.591 243.05 271.514 242.473 272.587 240.778C274.78 237.321 278.211 234.927 281.822 234.343C283.591 234.055 284.964 232.33 285.144 230.224L285.193 229.756C285.451 226.755 283.296 224.23 280.778 224.63C278.967 224.907 277.193 225.472 275.498 226.287C274.234 214.105 267.405 202.36 257.539 196.43C256.563 195.846 255.567 195.323 254.542 194.844C252.454 193.875 251.706 190.773 253.087 188.663C262.369 174.479 273.583 168.081 287.797 168.694C289.043 168.75 293.211 169.719 294.176 170.236C295.392 170.961 299.033 173.558 300.076 174.508C300.155 174.595 300.23 174.681 300.316 174.767C301.85 176.585 303.343 178.108 304.656 179.459C307.997 182.889 310.201 185.149 311.619 189.939C312.902 194.286 313.209 199.229 313.449 204.074V220.522C312.663 223.01 311.735 225.472 310.661 227.896C307.72 234.466 302.856 240.666 295.796 246.832C290.842 251.161 284.991 253.058 279.895 252.13C278.458 251.861 276.965 252.561 276.247 254.076C275.012 256.669 276.381 259.726 278.716 260.167C279.943 260.395 281.197 260.511 282.461 260.511C288.354 260.511 294.561 258.049 299.867 253.414C305.621 248.385 310.108 243.259 313.449 237.879V372.671C314.972 371.859 316.592 371.418 318.257 371.418C319.933 371.418 321.542 371.859 323.076 372.671V234.964C326.533 241.422 331.55 247.483 338.334 253.414C343.65 258.049 349.858 260.511 355.747 260.511C356.963 260.511 358.16 260.406 359.339 260.193C361.198 259.86 362.654 257.791 362.395 255.599C362.115 253.223 360.285 251.745 358.399 252.112C353.285 253.077 347.396 251.191 342.412 246.832C335.355 240.666 330.488 234.466 327.547 227.896C325.545 223.414 324.052 218.76 323.076 214.113V207.456C323.487 202.678 323.409 197.983 322.817 193.53C323.038 192.296 323.315 191.098 323.659 189.939C325.066 185.149 327.281 182.889 330.615 179.459C331.924 178.119 333.41 176.596 334.944 174.785C335.03 174.688 335.116 174.602 335.202 174.508C336.235 173.558 339.875 170.961 341.091 170.236C342.068 169.719 346.236 168.75 347.47 168.694C361.696 168.081 372.902 174.467 382.192 188.663C383.572 190.773 382.824 193.875 380.725 194.844C379.704 195.323 378.705 195.846 377.739 196.43C367.862 202.36 361.033 214.105 359.769 226.287C358.074 225.472 356.3 224.907 354.482 224.623C351.971 224.23 349.816 226.755 350.086 229.756L350.123 230.224C350.314 232.33 351.687 234.055 353.457 234.343C357.06 234.927 360.498 237.321 362.68 240.778C363.754 242.473 365.688 243.05 367.327 242.215L367.701 242.024C370.047 240.838 370.821 237.351 369.299 234.927C368.659 233.92 367.959 232.974 367.211 232.091C367.566 231.44 367.787 230.673 367.806 229.842C367.948 220.032 373.343 210.053 381.466 205.167C389.97 200.052 401.023 200.187 411.032 205.511C413.725 206.948 415.899 208.5 417.68 210.255C422.279 214.782 425.515 222.112 426.817 230.886C427.584 236.075 427.681 241.411 427.487 246.709C427.401 248.999 425.743 250.75 423.82 250.559C410.171 249.208 396.466 256.613 389.02 269.513C386.914 267.837 384.579 266.535 382.143 265.701C379.76 264.878 377.347 266.891 377.156 269.831L377.126 270.28C376.972 272.522 378.2 274.516 380.018 275.167C383.12 276.259 385.967 278.489 387.969 281.497C389.97 284.506 391.157 288.296 391.347 292.138C391.475 294.38 392.825 296.258 394.7 296.591L395.074 296.658C397.536 297.1 399.728 294.743 399.597 291.794C399.339 286.201 397.7 280.674 394.902 276.181C395.246 275.904 395.545 275.548 395.785 275.118C402.374 263.692 415.839 257.656 427.872 261.237C442.038 265.461 450.744 281.393 454.164 294.896C456.214 302.963 456.338 312.829 454.654 323.182ZM460.027 340.73C459.66 339.802 459.634 338.747 459.911 337.77C464.535 321.517 465.34 304.983 462.066 292.071C457.793 275.193 448.686 261.746 437.432 255.079C436.193 254.341 435.438 252.819 435.535 251.18C435.954 244.037 436.04 236.622 434.94 229.191C433.301 218.127 429.051 208.721 422.948 202.716C420.584 200.377 417.785 198.376 414.403 196.565C408.36 193.358 401.973 191.731 395.755 191.663C394.614 191.641 393.544 190.952 392.93 189.804C381.339 168.197 366.35 158.072 347.175 158.903C345.211 158.989 339.606 160.16 337.394 161.48C336.916 161.769 330.94 165.667 329.264 167.676C327.891 169.308 326.544 170.703 325.231 172.047C322.406 174.939 319.712 177.707 317.635 182.055C315.566 177.707 312.865 174.939 310.048 172.047C308.734 170.703 307.376 169.308 306.007 167.676C304.331 165.667 298.352 161.769 297.873 161.48C295.661 160.16 290.057 158.989 288.104 158.903C268.928 158.072 253.928 168.197 242.348 189.804C241.735 190.952 240.665 191.641 239.512 191.663C233.298 191.731 226.907 193.358 220.865 196.565C217.482 198.376 214.687 200.377 212.323 202.716C206.228 208.721 201.966 218.127 200.327 229.191C199.227 236.622 199.313 244.037 199.744 251.18C199.841 252.819 199.074 254.341 197.839 255.079C186.592 261.746 177.485 275.193 173.201 292.071C169.939 304.983 170.732 321.517 175.368 337.77C175.644 338.747 175.607 339.802 175.252 340.73C175.023 341.332 174.791 341.957 174.563 342.597C171.334 351.696 172.962 363.018 178.922 372.873C182.256 378.411 188.175 383.028 194.487 384.839C196.391 385.374 197.484 387.757 196.889 389.979C195.598 394.836 195.003 400.183 195.407 406.36C196.182 418.381 202.12 429.617 210.905 435.671C215.806 439.061 222.32 440.793 228.718 440.793C231.61 440.793 234.476 440.438 237.159 439.712C238.768 439.282 240.403 440.295 241.028 442.114C241.275 442.843 241.537 443.573 241.821 444.291C244.496 451.015 248.709 457.376 254.725 463.714C260.603 469.932 265.931 473.666 271.476 475.477C275.884 476.914 280.306 477.621 284.646 477.621C294.629 477.621 304.185 473.887 312.042 466.692C314.051 464.862 316.113 462.834 317.635 460.054C319.158 462.834 321.227 464.862 323.229 466.692C331.083 473.887 340.642 477.621 350.621 477.621C354.972 477.621 359.395 476.914 363.791 475.477C369.34 473.666 374.664 469.932 380.553 463.714C386.558 457.376 390.782 451.015 393.446 444.291C393.734 443.573 394.004 442.843 394.251 442.114C394.864 440.295 396.503 439.282 398.119 439.712C400.795 440.438 403.657 440.793 406.549 440.793C412.947 440.793 419.472 439.061 424.374 435.671C433.148 429.617 439.089 418.381 439.871 406.36C440.275 400.183 439.68 394.836 438.378 389.979C437.783 387.768 438.887 385.374 440.784 384.839C447.096 383.028 453.015 378.411 456.356 372.873C462.305 363.018 463.933 351.696 460.715 342.597C460.487 341.957 460.255 341.332 460.027 340.73Z" fill="white"/>
</mask>
<g mask="url(#mask10_1419_190)">
<mask id="mask11_1419_190" style="mask-type:luminance" maskUnits="userSpaceOnUse" x="171" y="158" width="294" height="320">
<path d="M454.654 323.182C454.201 325.977 451.481 327.309 449.472 325.749L449.405 325.692C447.747 324.409 445.525 325.068 444.567 327.118L443.856 328.641C443.007 330.482 443.474 332.79 444.948 333.939C448.907 337.052 450.954 340.299 453.109 346.398C455.582 353.383 452.948 361.705 449.652 367.164C446.396 372.548 439.22 376.809 433.503 375.728C432.594 375.556 431.79 374.972 431.251 374.089C429.328 370.909 427.191 367.77 424.987 364.511C423.771 362.722 422.402 360.709 420.505 359.082C418.964 357.769 415.076 354.618 410.897 352.557C410.945 351.733 410.994 350.929 411.024 350.136C411.215 344.886 411.061 339.656 410.841 334.522C410.725 331.937 408.858 329.943 406.684 330.096L406.291 330.126C404.136 330.268 402.49 332.453 402.594 335.02C402.815 339.914 402.957 344.875 402.778 349.706C402.692 351.954 402.538 354.323 401.981 356.388C401.09 359.636 399.002 362.416 396.436 363.965C394.864 364.915 394.011 366.973 394.348 369.016L394.423 369.495C394.92 372.51 397.7 374.168 400.016 372.798C403.84 370.546 407.002 366.793 408.869 362.225C411.005 363.429 413.456 365.136 415.686 367.033C416.674 367.882 417.594 369.233 418.559 370.651C427 383.095 432.575 391.304 431.644 405.604C431.079 414.329 426.596 422.808 420.228 427.204C414.683 431.035 405.756 432.03 399.089 429.913C397.708 429.471 396.705 428.016 396.615 426.321C396.006 413.648 389.129 401.552 379.483 396.074C380.183 393.601 380.669 391.102 381.099 388.67C381.578 385.987 382.038 383.114 382.008 380.094C381.982 377.127 381.473 374.168 380.527 371.418C379.558 368.6 376.609 367.624 374.548 369.435L374.271 369.674C372.845 370.931 372.232 373.18 372.902 375.144C373.448 376.742 373.743 378.467 373.762 380.203C373.781 382.231 373.429 384.404 373.025 386.649C372.355 390.413 371.57 394.349 369.95 397.433C369.022 399.225 367.787 400.632 366.492 401.466C365.153 402.319 364.423 404.1 364.551 405.9L364.588 406.397C364.827 409.75 367.88 411.695 370.384 410.094C372.367 408.829 374.185 407.003 375.697 404.732C375.783 404.788 375.872 404.867 375.966 404.923C383.752 409.289 389.05 419.646 388.362 429.894C388.141 433.265 387.336 436.704 385.986 440.123C383.801 445.62 380.228 450.948 375.064 456.395C370.17 461.57 365.89 464.634 361.598 466.033C349.442 470.007 337.604 467.489 328.265 458.936C326.638 457.45 325.115 455.976 324.329 454.289C323.659 452.833 323.364 450.88 323.094 448.819C322.432 443.685 321.994 437.804 321.774 431.705C320.644 432.135 319.465 432.363 318.257 432.363C316.61 432.363 315.02 431.933 313.505 431.147C313.505 431.207 313.516 431.263 313.516 431.331C313.295 437.564 312.854 443.581 312.177 448.819C311.907 450.88 311.619 452.833 310.938 454.289C310.152 455.976 308.63 457.45 307.002 458.936C297.674 467.489 285.825 470.007 273.669 466.033C269.388 464.634 265.108 461.57 260.203 456.395C255.04 450.948 251.467 445.62 249.293 440.123C247.935 436.704 247.138 433.265 246.909 429.894C246.228 419.646 251.526 409.289 259.301 404.923C259.399 404.867 259.485 404.788 259.571 404.732C261.082 407.003 262.904 408.829 264.887 410.094C267.376 411.695 270.444 409.75 270.683 406.397L270.72 405.9C270.855 404.1 270.126 402.326 268.786 401.466C267.484 400.632 266.257 399.225 265.318 397.433C263.698 394.349 262.912 390.413 262.242 386.649C261.849 384.404 261.498 382.231 261.516 380.203C261.524 378.467 261.823 376.742 262.377 375.144C263.039 373.18 262.425 370.931 260.996 369.674L260.719 369.435C258.662 367.624 255.709 368.6 254.744 371.418C253.805 374.168 253.289 377.127 253.259 380.094C253.24 383.114 253.7 385.987 254.179 388.67C254.609 391.102 255.088 393.601 255.788 396.074C246.142 401.552 239.273 413.648 238.652 426.321C238.573 428.016 237.571 429.471 236.179 429.913C229.522 432.03 220.595 431.035 215.05 427.204C208.682 422.808 204.2 414.329 203.624 405.604C202.696 391.304 208.271 383.095 216.719 370.651C217.684 369.233 218.593 367.882 219.592 367.033C221.811 365.136 224.266 363.429 226.41 362.225C228.277 366.801 231.438 370.557 235.262 372.806C237.578 374.168 240.358 372.51 240.844 369.495L240.923 369.016C241.256 366.973 240.403 364.915 238.835 363.965C236.268 362.416 234.177 359.636 233.298 356.388C232.733 354.323 232.579 351.954 232.493 349.706C232.321 344.875 232.456 339.914 232.677 335.02C232.789 332.453 231.131 330.268 228.976 330.126L228.595 330.096C226.41 329.943 224.554 331.937 224.438 334.522C224.206 339.656 224.064 344.886 224.254 350.136C224.284 350.929 224.322 351.733 224.382 352.557C220.195 354.618 216.315 357.769 214.773 359.082C212.876 360.709 211.507 362.722 210.291 364.511C208.076 367.77 205.943 370.909 204.016 374.089C203.481 374.972 202.677 375.556 201.775 375.728C196.058 376.809 188.875 372.548 185.627 367.164C182.331 361.705 179.689 353.383 182.17 346.398C184.325 340.307 186.364 337.052 190.33 333.939C191.793 332.79 192.272 330.482 191.423 328.641L190.704 327.118C189.754 325.06 187.524 324.409 185.874 325.692C185.848 325.711 185.829 325.73 185.799 325.749C183.797 327.32 181.077 325.999 180.617 323.201C178.93 312.848 179.064 302.963 181.103 294.896C184.523 281.393 193.23 265.461 207.406 261.237C219.428 257.656 232.894 263.692 239.486 275.118C239.733 275.548 240.032 275.904 240.365 276.181C237.578 280.682 235.932 286.201 235.681 291.794C235.55 294.754 237.743 297.1 240.193 296.658L240.579 296.591C242.446 296.258 243.804 294.38 243.92 292.138C244.111 288.288 245.301 284.494 247.302 281.497C249.311 278.489 252.148 276.259 255.26 275.167C257.071 274.516 258.299 272.522 258.153 270.28L258.123 269.831C257.924 266.891 255.511 264.878 253.124 265.701C250.692 266.535 248.365 267.837 246.258 269.513C238.813 256.613 225.107 249.208 211.458 250.559C209.535 250.75 207.867 248.999 207.792 246.709C207.59 241.411 207.683 236.075 208.45 230.886C209.752 222.112 213 214.782 217.591 210.255C219.372 208.5 221.553 206.948 224.247 205.511C234.244 200.187 245.301 200.052 253.812 205.167C261.935 210.053 267.331 220.032 267.473 229.842C267.484 230.673 267.701 231.44 268.056 232.091C267.308 232.974 266.612 233.92 265.98 234.927C264.446 237.351 265.232 240.838 267.578 242.024L267.941 242.215C269.591 243.05 271.514 242.473 272.587 240.778C274.78 237.321 278.211 234.927 281.822 234.343C283.591 234.055 284.964 232.33 285.144 230.224L285.193 229.756C285.451 226.755 283.296 224.23 280.778 224.63C278.967 224.907 277.193 225.472 275.498 226.287C274.234 214.105 267.405 202.36 257.539 196.43C256.563 195.846 255.567 195.323 254.542 194.844C252.454 193.875 251.706 190.773 253.087 188.663C262.369 174.479 273.583 168.081 287.797 168.694C289.043 168.75 293.211 169.719 294.176 170.236C295.392 170.961 299.033 173.558 300.076 174.508C300.155 174.595 300.23 174.681 300.316 174.767C301.85 176.585 303.343 178.108 304.656 179.459C307.997 182.889 310.201 185.149 311.619 189.939C312.902 194.286 313.209 199.229 313.449 204.074V220.522C312.663 223.01 311.735 225.472 310.661 227.896C307.72 234.466 302.856 240.666 295.796 246.832C290.842 251.161 284.991 253.058 279.895 252.13C278.458 251.861 276.965 252.561 276.247 254.076C275.012 256.669 276.381 259.726 278.716 260.167C279.943 260.395 281.197 260.511 282.461 260.511C288.354 260.511 294.561 258.049 299.867 253.414C305.621 248.385 310.108 243.259 313.449 237.879V372.671C314.972 371.859 316.592 371.418 318.257 371.418C319.933 371.418 321.542 371.859 323.076 372.671V234.964C326.533 241.422 331.55 247.483 338.334 253.414C343.65 258.049 349.858 260.511 355.747 260.511C356.963 260.511 358.16 260.406 359.339 260.193C361.198 259.86 362.654 257.791 362.395 255.599C362.115 253.223 360.285 251.745 358.399 252.112C353.285 253.077 347.396 251.191 342.412 246.832C335.355 240.666 330.488 234.466 327.547 227.896C325.545 223.414 324.052 218.76 323.076 214.113V207.456C323.487 202.678 323.409 197.983 322.817 193.53C323.038 192.296 323.315 191.098 323.659 189.939C325.066 185.149 327.281 182.889 330.615 179.459C331.924 178.119 333.41 176.596 334.944 174.785C335.03 174.688 335.116 174.602 335.202 174.508C336.235 173.558 339.875 170.961 341.091 170.236C342.068 169.719 346.236 168.75 347.47 168.694C361.696 168.081 372.902 174.467 382.192 188.663C383.572 190.773 382.824 193.875 380.725 194.844C379.704 195.323 378.705 195.846 377.739 196.43C367.862 202.36 361.033 214.105 359.769 226.287C358.074 225.472 356.3 224.907 354.482 224.623C351.971 224.23 349.816 226.755 350.086 229.756L350.123 230.224C350.314 232.33 351.687 234.055 353.457 234.343C357.06 234.927 360.498 237.321 362.68 240.778C363.754 242.473 365.688 243.05 367.327 242.215L367.701 242.024C370.047 240.838 370.821 237.351 369.299 234.927C368.659 233.92 367.959 232.974 367.211 232.091C367.566 231.44 367.787 230.673 367.806 229.842C367.948 220.032 373.343 210.053 381.466 205.167C389.97 200.052 401.023 200.187 411.032 205.511C413.725 206.948 415.899 208.5 417.68 210.255C422.279 214.782 425.515 222.112 426.817 230.886C427.584 236.075 427.681 241.411 427.487 246.709C427.401 248.999 425.743 250.75 423.82 250.559C410.171 249.208 396.466 256.613 389.02 269.513C386.914 267.837 384.579 266.535 382.143 265.701C379.76 264.878 377.347 266.891 377.156 269.831L377.126 270.28C376.972 272.522 378.2 274.516 380.018 275.167C383.12 276.259 385.967 278.489 387.969 281.497C389.97 284.506 391.157 288.296 391.347 292.138C391.475 294.38 392.825 296.258 394.7 296.591L395.074 296.658C397.536 297.1 399.728 294.743 399.597 291.794C399.339 286.201 397.7 280.674 394.902 276.181C395.246 275.904 395.545 275.548 395.785 275.118C402.374 263.692 415.839 257.656 427.872 261.237C442.038 265.461 450.744 281.393 454.164 294.896C456.214 302.963 456.338 312.829 454.654 323.182ZM460.027 340.73C459.66 339.802 459.634 338.747 459.911 337.77C464.535 321.517 465.34 304.983 462.066 292.071C457.793 275.193 448.686 261.746 437.432 255.079C436.193 254.341 435.438 252.819 435.535 251.18C435.954 244.037 436.04 236.622 434.94 229.191C433.301 218.127 429.051 208.721 422.948 202.716C420.584 200.377 417.785 198.376 414.403 196.565C408.36 193.358 401.973 191.731 395.755 191.663C394.614 191.641 393.544 190.952 392.93 189.804C381.339 168.197 366.35 158.072 347.175 158.903C345.211 158.989 339.606 160.16 337.394 161.48C336.916 161.769 330.94 165.667 329.264 167.676C327.891 169.308 326.544 170.703 325.231 172.047C322.406 174.939 319.712 177.707 317.635 182.055C315.566 177.707 312.865 174.939 310.048 172.047C308.734 170.703 307.376 169.308 306.007 167.676C304.331 165.667 298.352 161.769 297.873 161.48C295.661 160.16 290.057 158.989 288.104 158.903C268.928 158.072 253.928 168.197 242.348 189.804C241.735 190.952 240.665 191.641 239.512 191.663C233.298 191.731 226.907 193.358 220.865 196.565C217.482 198.376 214.687 200.377 212.323 202.716C206.228 208.721 201.966 218.127 200.327 229.191C199.227 236.622 199.313 244.037 199.744 251.18C199.841 252.819 199.074 254.341 197.839 255.079C186.592 261.746 177.485 275.193 173.201 292.071C169.939 304.983 170.732 321.517 175.368 337.77C175.644 338.747 175.607 339.802 175.252 340.73C175.023 341.332 174.791 341.957 174.563 342.597C171.334 351.696 172.962 363.018 178.922 372.873C182.256 378.411 188.175 383.028 194.487 384.839C196.391 385.374 197.484 387.757 196.889 389.979C195.598 394.836 195.003 400.183 195.407 406.36C196.182 418.381 202.12 429.617 210.905 435.671C215.806 439.061 222.32 440.793 228.718 440.793C231.61 440.793 234.476 440.438 237.159 439.712C238.768 439.282 240.403 440.295 241.028 442.114C241.275 442.843 241.537 443.573 241.821 444.291C244.496 451.015 248.709 457.376 254.725 463.714C260.603 469.932 265.931 473.666 271.476 475.477C275.884 476.914 280.306 477.621 284.646 477.621C294.629 477.621 304.185 473.887 312.042 466.692C314.051 464.862 316.113 462.834 317.635 460.054C319.158 462.834 321.227 464.862 323.229 466.692C331.083 473.887 340.642 477.621 350.621 477.621C354.972 477.621 359.395 476.914 363.791 475.477C369.34 473.666 374.664 469.932 380.553 463.714C386.558 457.376 390.782 451.015 393.446 444.291C393.734 443.573 394.004 442.843 394.251 442.114C394.864 440.295 396.503 439.282 398.119 439.712C400.795 440.438 403.657 440.793 406.549 440.793C412.947 440.793 419.472 439.061 424.374 435.671C433.148 429.617 439.089 418.381 439.871 406.36C440.275 400.183 439.68 394.836 438.378 389.979C437.783 387.768 438.887 385.374 440.784 384.839C447.096 383.028 453.015 378.411 456.356 372.873C462.305 363.018 463.933 351.696 460.715 342.597C460.487 341.957 460.255 341.332 460.027 340.73Z" fill="white"/>
</mask>
<g mask="url(#mask11_1419_190)">
<path d="M465.341 158.072H169.939V477.621H465.341V158.072Z" fill="url(#paint3_linear_1419_190)"/>
</g>
</g>
</g>
<mask id="mask12_1419_190" style="mask-type:luminance" maskUnits="userSpaceOnUse" x="358" y="286" width="19" height="55">
<path d="M358.229 286.393H376.427V340.989H358.229V286.393Z" fill="white"/>
</mask>
<g mask="url(#mask12_1419_190)">
<mask id="mask13_1419_190" style="mask-type:luminance" maskUnits="userSpaceOnUse" x="358" y="286" width="18" height="55">
<path d="M367.55 317.569C366.057 310.718 366.581 303.403 369.017 296.956C369.417 295.871 369.847 294.936 370.289 294.128C371.209 292.452 371.056 290.259 370.001 288.71L369.754 288.343C368.096 285.923 364.905 286.035 363.461 288.632C362.742 289.915 362.091 291.344 361.485 292.942C358.286 301.42 357.609 311.036 359.562 320.019C361.152 327.308 364.426 333.968 368.938 339.187C370.626 341.14 373.391 340.852 374.801 338.611L375.03 338.248C376.201 336.4 376.085 333.773 374.685 332.164C371.247 328.18 368.755 323.114 367.55 317.569Z" fill="white"/>
</mask>
<g mask="url(#mask13_1419_190)">
<mask id="mask14_1419_190" style="mask-type:luminance" maskUnits="userSpaceOnUse" x="358" y="286" width="18" height="55">
<path d="M367.55 317.569C366.057 310.718 366.581 303.403 369.017 296.956C369.417 295.871 369.847 294.936 370.289 294.128C371.209 292.452 371.056 290.259 370.001 288.71L369.754 288.343C368.096 285.923 364.905 286.035 363.461 288.632C362.742 289.915 362.091 291.344 361.485 292.942C358.286 301.42 357.609 311.036 359.562 320.019C361.152 327.308 364.426 333.968 368.938 339.187C370.626 341.14 373.391 340.852 374.801 338.611L375.03 338.248C376.201 336.4 376.085 333.773 374.685 332.164C371.247 328.18 368.755 323.114 367.55 317.569Z" fill="white"/>
</mask>
<g mask="url(#mask14_1419_190)">
<path d="M376.201 285.925H357.609V341.143H376.201V285.925Z" fill="url(#paint4_linear_1419_190)"/>
</g>
</g>
</g>
<defs>
<linearGradient id="paint0_linear_1419_190" x1="475.792" y1="-64.915" x2="160.302" y2="701.725" gradientUnits="userSpaceOnUse">
<stop stop-color="#B03AAB"/>
<stop offset="0.0625" stop-color="#B03AAB"/>
<stop offset="0.078125" stop-color="#B03AAB"/>
<stop offset="0.0820312" stop-color="#AE3CAB"/>
<stop offset="0.0859375" stop-color="#AC3EAC"/>
<stop offset="0.0898437" stop-color="#AB3FAC"/>
<stop offset="0.09375" stop-color="#A941AD"/>
<stop offset="0.0976562" stop-color="#A743AD"/>
<stop offset="0.101562" stop-color="#A645AD"/>
<stop offset="0.105469" stop-color="#A446AE"/>
<stop offset="0.109375" stop-color="#A248AE"/>
<stop offset="0.113281" stop-color="#A04AAE"/>
<stop offset="0.117187" stop-color="#9F4BAF"/>
<stop offset="0.121094" stop-color="#9D4DAF"/>
<stop offset="0.125" stop-color="#9B4FAF"/>
<stop offset="0.128906" stop-color="#9A51B0"/>
<stop offset="0.132812" stop-color="#9852B0"/>
<stop offset="0.136719" stop-color="#9654B0"/>
<stop offset="0.140625" stop-color="#9556B1"/>
<stop offset="0.144531" stop-color="#9358B1"/>
<stop offset="0.148437" stop-color="#9159B2"/>
<stop offset="0.152344" stop-color="#905BB2"/>
<stop offset="0.15625" stop-color="#8E5DB2"/>
<stop offset="0.160156" stop-color="#8C5EB3"/>
<stop offset="0.164062" stop-color="#8B60B3"/>
<stop offset="0.167969" stop-color="#8962B3"/>
<stop offset="0.171875" stop-color="#8764B4"/>
<stop offset="0.175781" stop-color="#8665B4"/>
<stop offset="0.179687" stop-color="#8467B4"/>
<stop offset="0.183594" stop-color="#8269B5"/>
<stop offset="0.1875" stop-color="#806AB5"/>
<stop offset="0.191406" stop-color="#7F6CB5"/>
<stop offset="0.195312" stop-color="#7D6EB6"/>
<stop offset="0.199219" stop-color="#7B70B6"/>
<stop offset="0.203125" stop-color="#7A71B7"/>
<stop offset="0.207031" stop-color="#7873B7"/>
<stop offset="0.210937" stop-color="#7675B7"/>
<stop offset="0.214844" stop-color="#7576B8"/>
<stop offset="0.21875" stop-color="#7378B8"/>
<stop offset="0.222656" stop-color="#717AB8"/>
<stop offset="0.226562" stop-color="#707CB9"/>
<stop offset="0.230469" stop-color="#6E7DB9"/>
<stop offset="0.234375" stop-color="#6C7FB9"/>
<stop offset="0.238281" stop-color="#6B81BA"/>
<stop offset="0.242187" stop-color="#6982BA"/>
<stop offset="0.246094" stop-color="#6784BB"/>
<stop offset="0.25" stop-color="#6586BB"/>
<stop offset="0.253906" stop-color="#6488BB"/>
<stop offset="0.257812" stop-color="#6289BC"/>
<stop offset="0.261719" stop-color="#608BBC"/>
<stop offset="0.265625" stop-color="#5F8DBC"/>
<stop offset="0.269531" stop-color="#5D8EBD"/>
<stop offset="0.273437" stop-color="#5B90BD"/>
<stop offset="0.277344" stop-color="#5A92BD"/>
<stop offset="0.28125" stop-color="#5894BE"/>
<stop offset="0.285156" stop-color="#5695BE"/>
<stop offset="0.289062" stop-color="#5597BE"/>
<stop offset="0.292969" stop-color="#5399BF"/>
<stop offset="0.296875" stop-color="#519ABF"/>
<stop offset="0.300781" stop-color="#509CC0"/>
<stop offset="0.304687" stop-color="#4E9EC0"/>
<stop offset="0.308594" stop-color="#4CA0C0"/>
<stop offset="0.3125" stop-color="#4AA1C1"/>
<stop offset="0.316406" stop-color="#49A3C1"/>
<stop offset="0.320312" stop-color="#47A5C1"/>
<stop offset="0.324219" stop-color="#45A7C2"/>
<stop offset="0.328125" stop-color="#44A8C2"/>
<stop offset="0.332031" stop-color="#42AAC2"/>
<stop offset="0.335938" stop-color="#40ACC3"/>
<stop offset="0.339844" stop-color="#3FADC3"/>
<stop offset="0.34375" stop-color="#3DAFC4"/>
<stop offset="0.347656" stop-color="#3BB1C4"/>
<stop offset="0.351562" stop-color="#3AB3C4"/>
<stop offset="0.355469" stop-color="#38B4C5"/>
<stop offset="0.359375" stop-color="#36B6C5"/>
<stop offset="0.363281" stop-color="#35B8C5"/>
<stop offset="0.367187" stop-color="#33B9C6"/>
<stop offset="0.371094" stop-color="#31BBC6"/>
<stop offset="0.375" stop-color="#2FBDC6"/>
<stop offset="0.378906" stop-color="#2EBFC7"/>
<stop offset="0.382812" stop-color="#2CC0C7"/>
<stop offset="0.386719" stop-color="#2AC2C7"/>
<stop offset="0.390625" stop-color="#29C4C8"/>
<stop offset="0.394531" stop-color="#27C5C8"/>
<stop offset="0.398437" stop-color="#25C7C9"/>
<stop offset="0.402344" stop-color="#24C9C9"/>
<stop offset="0.40625" stop-color="#22CBC9"/>
<stop offset="0.410156" stop-color="#20CCCA"/>
<stop offset="0.414062" stop-color="#1FCECA"/>
<stop offset="0.417969" stop-color="#1DD0CA"/>
<stop offset="0.421875" stop-color="#1BD1CB"/>
<stop offset="0.425781" stop-color="#1AD3CB"/>
<stop offset="0.429687" stop-color="#18D5CB"/>
<stop offset="0.433594" stop-color="#16D7CC"/>
<stop offset="0.4375" stop-color="#14D8CC"/>
<stop offset="0.441406" stop-color="#13DACC"/>
<stop offset="0.445312" stop-color="#11DCCD"/>
<stop offset="0.449219" stop-color="#0FDDCD"/>
<stop offset="0.453125" stop-color="#0EDFCE"/>
<stop offset="0.457031" stop-color="#0CE1CE"/>
<stop offset="0.460938" stop-color="#0AE3CE"/>
<stop offset="0.464844" stop-color="#09E4CF"/>
<stop offset="0.46875" stop-color="#07E6CF"/>
<stop offset="0.472656" stop-color="#07E5CF"/>
<stop offset="0.476563" stop-color="#07E4CF"/>
<stop offset="0.480469" stop-color="#07E3D0"/>
<stop offset="0.484375" stop-color="#07E2D0"/>
<stop offset="0.488281" stop-color="#08E1D0"/>
<stop offset="0.492187" stop-color="#08E0D0"/>
<stop offset="0.496094" stop-color="#08DFD1"/>
<stop offset="0.5" stop-color="#08DED1"/>
<stop offset="0.503906" stop-color="#08DED1"/>
<stop offset="0.507812" stop-color="#08DDD1"/>
<stop offset="0.511719" stop-color="#08DCD2"/>
<stop offset="0.515625" stop-color="#08DBD2"/>
<stop offset="0.519531" stop-color="#09DAD2"/>
<stop offset="0.523437" stop-color="#09D9D2"/>
<stop offset="0.527344" stop-color="#09D8D3"/>
<stop offset="0.53125" stop-color="#09D7D3"/>
<stop offset="0.535156" stop-color="#09D6D3"/>
<stop offset="0.539062" stop-color="#09D5D3"/>
<stop offset="0.542969" stop-color="#09D4D4"/>
<stop offset="0.546875" stop-color="#09D3D4"/>
<stop offset="0.550781" stop-color="#0AD2D4"/>
<stop offset="0.554687" stop-color="#0AD1D4"/>
<stop offset="0.558594" stop-color="#0AD0D5"/>
<stop offset="0.5625" stop-color="#0ACFD5"/>
<stop offset="0.566406" stop-color="#0ACED5"/>
<stop offset="0.570312" stop-color="#0ACED5"/>
<stop offset="0.574219" stop-color="#0ACDD6"/>
<stop offset="0.578125" stop-color="#0ACCD6"/>
<stop offset="0.582031" stop-color="#0BCBD6"/>
<stop offset="0.585937" stop-color="#0BCAD6"/>
<stop offset="0.589844" stop-color="#0BC9D7"/>
<stop offset="0.59375" stop-color="#0BC8D7"/>
<stop offset="0.597656" stop-color="#0BC7D7"/>
<stop offset="0.601562" stop-color="#0BC6D7"/>
<stop offset="0.605469" stop-color="#0BC5D8"/>
<stop offset="0.609375" stop-color="#0BC4D8"/>
<stop offset="0.613281" stop-color="#0CC3D8"/>
<stop offset="0.617188" stop-color="#0CC2D8"/>
<stop offset="0.621094" stop-color="#0CC1D9"/>
<stop offset="0.625" stop-color="#0CC0D9"/>
<stop offset="0.628906" stop-color="#0CBFD9"/>
<stop offset="0.632812" stop-color="#0CBFD9"/>
<stop offset="0.636719" stop-color="#0CBEDA"/>
<stop offset="0.640625" stop-color="#0CBDDA"/>
<stop offset="0.644531" stop-color="#0DBCDA"/>
<stop offset="0.648438" stop-color="#0DBBDA"/>
<stop offset="0.652344" stop-color="#0DBADB"/>
<stop offset="0.65625" stop-color="#0DB9DB"/>
<stop offset="0.660156" stop-color="#0DB8DB"/>
<stop offset="0.664063" stop-color="#0DB7DB"/>
<stop offset="0.667969" stop-color="#0DB6DC"/>
<stop offset="0.671875" stop-color="#0DB5DC"/>
<stop offset="0.675781" stop-color="#0EB4DC"/>
<stop offset="0.679688" stop-color="#0EB3DC"/>
<stop offset="0.683594" stop-color="#0EB2DD"/>
<stop offset="0.6875" stop-color="#0EB1DD"/>
<stop offset="0.691406" stop-color="#0EB0DD"/>
<stop offset="0.695313" stop-color="#0EAFDD"/>
<stop offset="0.699219" stop-color="#0EAFDE"/>
<stop offset="0.703125" stop-color="#0EAEDE"/>
<stop offset="0.707031" stop-color="#0FADDE"/>
<stop offset="0.710938" stop-color="#0FACDE"/>
<stop offset="0.714844" stop-color="#0FABDF"/>
<stop offset="0.71875" stop-color="#0FAADF"/>
<stop offset="0.722656" stop-color="#0FA9DF"/>
<stop offset="0.726563" stop-color="#0FA8DF"/>
<stop offset="0.730469" stop-color="#0FA7E0"/>
<stop offset="0.734375" stop-color="#0FA6E0"/>
<stop offset="0.738281" stop-color="#10A5E0"/>
<stop offset="0.742188" stop-color="#10A4E0"/>
<stop offset="0.746094" stop-color="#10A3E1"/>
<stop offset="0.75" stop-color="#10A2E1"/>
<stop offset="0.753906" stop-color="#10A1E1"/>
<stop offset="0.757812" stop-color="#10A0E1"/>
<stop offset="0.761719" stop-color="#109FE2"/>
<stop offset="0.765625" stop-color="#109FE2"/>
<stop offset="0.769531" stop-color="#119EE2"/>
<stop offset="0.773437" stop-color="#119DE2"/>
<stop offset="0.777344" stop-color="#119CE2"/>
<stop offset="0.78125" stop-color="#119BE3"/>
<stop offset="0.785156" stop-color="#119AE3"/>
<stop offset="0.789062" stop-color="#1199E3"/>
<stop offset="0.792969" stop-color="#1198E3"/>
<stop offset="0.796875" stop-color="#1197E4"/>
<stop offset="0.800781" stop-color="#1196E4"/>
<stop offset="0.804687" stop-color="#1295E4"/>
<stop offset="0.808594" stop-color="#1294E4"/>
<stop offset="0.8125" stop-color="#1293E5"/>
<stop offset="0.816406" stop-color="#1292E5"/>
<stop offset="0.820312" stop-color="#1291E5"/>
<stop offset="0.824219" stop-color="#1290E5"/>
<stop offset="0.828125" stop-color="#1290E6"/>
<stop offset="0.832031" stop-color="#128FE6"/>
<stop offset="0.835937" stop-color="#138EE6"/>
<stop offset="0.839844" stop-color="#138DE6"/>
<stop offset="0.84375" stop-color="#138CE7"/>
<stop offset="0.847656" stop-color="#138BE7"/>
<stop offset="0.851562" stop-color="#138AE7"/>
<stop offset="0.855469" stop-color="#1389E7"/>
<stop offset="0.859375" stop-color="#1388E8"/>
<stop offset="0.863281" stop-color="#1387E8"/>
<stop offset="0.867188" stop-color="#1486E8"/>
<stop offset="0.871094" stop-color="#1485E8"/>
<stop offset="0.875" stop-color="#1484E9"/>
<stop offset="0.878906" stop-color="#1484E9"/>
<stop offset="0.882812" stop-color="#1483E9"/>
<stop offset="0.890625" stop-color="#1483E9"/>
<stop offset="0.90625" stop-color="#1483E9"/>
<stop offset="0.9375" stop-color="#1483E9"/>
<stop offset="1" stop-color="#1483E9"/>
</linearGradient>
<linearGradient id="paint1_linear_1419_190" x1="475.792" y1="-64.915" x2="160.302" y2="701.725" gradientUnits="userSpaceOnUse">
<stop stop-color="#B03AAB"/>
<stop offset="0.0625" stop-color="#B03AAB"/>
<stop offset="0.078125" stop-color="#B03AAB"/>
<stop offset="0.0820312" stop-color="#AE3CAB"/>
<stop offset="0.0859375" stop-color="#AC3EAC"/>
<stop offset="0.0898437" stop-color="#AB3FAC"/>
<stop offset="0.09375" stop-color="#A941AD"/>
<stop offset="0.0976562" stop-color="#A743AD"/>
<stop offset="0.101562" stop-color="#A645AD"/>
<stop offset="0.105469" stop-color="#A446AE"/>
<stop offset="0.109375" stop-color="#A248AE"/>
<stop offset="0.113281" stop-color="#A04AAE"/>
<stop offset="0.117187" stop-color="#9F4BAF"/>
<stop offset="0.121094" stop-color="#9D4DAF"/>
<stop offset="0.125" stop-color="#9B4FAF"/>
<stop offset="0.128906" stop-color="#9A51B0"/>
<stop offset="0.132812" stop-color="#9852B0"/>
<stop offset="0.136719" stop-color="#9654B0"/>
<stop offset="0.140625" stop-color="#9556B1"/>
<stop offset="0.144531" stop-color="#9358B1"/>
<stop offset="0.148437" stop-color="#9159B2"/>
<stop offset="0.152344" stop-color="#905BB2"/>
<stop offset="0.15625" stop-color="#8E5DB2"/>
<stop offset="0.160156" stop-color="#8C5EB3"/>
<stop offset="0.164062" stop-color="#8B60B3"/>
<stop offset="0.167969" stop-color="#8962B3"/>
<stop offset="0.171875" stop-color="#8764B4"/>
<stop offset="0.175781" stop-color="#8665B4"/>
<stop offset="0.179687" stop-color="#8467B4"/>
<stop offset="0.183594" stop-color="#8269B5"/>
<stop offset="0.1875" stop-color="#806AB5"/>
<stop offset="0.191406" stop-color="#7F6CB5"/>
<stop offset="0.195312" stop-color="#7D6EB6"/>
<stop offset="0.199219" stop-color="#7B70B6"/>
<stop offset="0.203125" stop-color="#7A71B7"/>
<stop offset="0.207031" stop-color="#7873B7"/>
<stop offset="0.210937" stop-color="#7675B7"/>
<stop offset="0.214844" stop-color="#7576B8"/>
<stop offset="0.21875" stop-color="#7378B8"/>
<stop offset="0.222656" stop-color="#717AB8"/>
<stop offset="0.226562" stop-color="#707CB9"/>
<stop offset="0.230469" stop-color="#6E7DB9"/>
<stop offset="0.234375" stop-color="#6C7FB9"/>
<stop offset="0.238281" stop-color="#6B81BA"/>
<stop offset="0.242187" stop-color="#6982BA"/>
<stop offset="0.246094" stop-color="#6784BB"/>
<stop offset="0.25" stop-color="#6586BB"/>
<stop offset="0.253906" stop-color="#6488BB"/>
<stop offset="0.257812" stop-color="#6289BC"/>
<stop offset="0.261719" stop-color="#608BBC"/>
<stop offset="0.265625" stop-color="#5F8DBC"/>
<stop offset="0.269531" stop-color="#5D8EBD"/>
<stop offset="0.273437" stop-color="#5B90BD"/>
<stop offset="0.277344" stop-color="#5A92BD"/>
<stop offset="0.28125" stop-color="#5894BE"/>
<stop offset="0.285156" stop-color="#5695BE"/>
<stop offset="0.289062" stop-color="#5597BE"/>
<stop offset="0.292969" stop-color="#5399BF"/>
<stop offset="0.296875" stop-color="#519ABF"/>
<stop offset="0.300781" stop-color="#509CC0"/>
<stop offset="0.304687" stop-color="#4E9EC0"/>
<stop offset="0.308594" stop-color="#4CA0C0"/>
<stop offset="0.3125" stop-color="#4AA1C1"/>
<stop offset="0.316406" stop-color="#49A3C1"/>
<stop offset="0.320312" stop-color="#47A5C1"/>
<stop offset="0.324219" stop-color="#45A7C2"/>
<stop offset="0.328125" stop-color="#44A8C2"/>
<stop offset="0.332031" stop-color="#42AAC2"/>
<stop offset="0.335938" stop-color="#40ACC3"/>
<stop offset="0.339844" stop-color="#3FADC3"/>
<stop offset="0.34375" stop-color="#3DAFC4"/>
<stop offset="0.347656" stop-color="#3BB1C4"/>
<stop offset="0.351562" stop-color="#3AB3C4"/>
<stop offset="0.355469" stop-color="#38B4C5"/>
<stop offset="0.359375" stop-color="#36B6C5"/>
<stop offset="0.363281" stop-color="#35B8C5"/>
<stop offset="0.367187" stop-color="#33B9C6"/>
<stop offset="0.371094" stop-color="#31BBC6"/>
<stop offset="0.375" stop-color="#2FBDC6"/>
<stop offset="0.378906" stop-color="#2EBFC7"/>
<stop offset="0.382812" stop-color="#2CC0C7"/>
<stop offset="0.386719" stop-color="#2AC2C7"/>
<stop offset="0.390625" stop-color="#29C4C8"/>
<stop offset="0.394531" stop-color="#27C5C8"/>
<stop offset="0.398437" stop-color="#25C7C9"/>
<stop offset="0.402344" stop-color="#24C9C9"/>
<stop offset="0.40625" stop-color="#22CBC9"/>
<stop offset="0.410156" stop-color="#20CCCA"/>
<stop offset="0.414062" stop-color="#1FCECA"/>
<stop offset="0.417969" stop-color="#1DD0CA"/>
<stop offset="0.421875" stop-color="#1BD1CB"/>
<stop offset="0.425781" stop-color="#1AD3CB"/>
<stop offset="0.429687" stop-color="#18D5CB"/>
<stop offset="0.433594" stop-color="#16D7CC"/>
<stop offset="0.4375" stop-color="#14D8CC"/>
<stop offset="0.441406" stop-color="#13DACC"/>
<stop offset="0.445312" stop-color="#11DCCD"/>
<stop offset="0.449219" stop-color="#0FDDCD"/>
<stop offset="0.453125" stop-color="#0EDFCE"/>
<stop offset="0.457031" stop-color="#0CE1CE"/>
<stop offset="0.460938" stop-color="#0AE3CE"/>
<stop offset="0.464844" stop-color="#09E4CF"/>
<stop offset="0.46875" stop-color="#07E6CF"/>
<stop offset="0.472656" stop-color="#07E5CF"/>
<stop offset="0.476563" stop-color="#07E4CF"/>
<stop offset="0.480469" stop-color="#07E3D0"/>
<stop offset="0.484375" stop-color="#07E2D0"/>
<stop offset="0.488281" stop-color="#08E1D0"/>
<stop offset="0.492187" stop-color="#08E0D0"/>
<stop offset="0.496094" stop-color="#08DFD1"/>
<stop offset="0.5" stop-color="#08DED1"/>
<stop offset="0.503906" stop-color="#08DED1"/>
<stop offset="0.507812" stop-color="#08DDD1"/>
<stop offset="0.511719" stop-color="#08DCD2"/>
<stop offset="0.515625" stop-color="#08DBD2"/>
<stop offset="0.519531" stop-color="#09DAD2"/>
<stop offset="0.523437" stop-color="#09D9D2"/>
<stop offset="0.527344" stop-color="#09D8D3"/>
<stop offset="0.53125" stop-color="#09D7D3"/>
<stop offset="0.535156" stop-color="#09D6D3"/>
<stop offset="0.539062" stop-color="#09D5D3"/>
<stop offset="0.542969" stop-color="#09D4D4"/>
<stop offset="0.546875" stop-color="#09D3D4"/>
<stop offset="0.550781" stop-color="#0AD2D4"/>
<stop offset="0.554687" stop-color="#0AD1D4"/>
<stop offset="0.558594" stop-color="#0AD0D5"/>
<stop offset="0.5625" stop-color="#0ACFD5"/>
<stop offset="0.566406" stop-color="#0ACED5"/>
<stop offset="0.570312" stop-color="#0ACED5"/>
<stop offset="0.574219" stop-color="#0ACDD6"/>
<stop offset="0.578125" stop-color="#0ACCD6"/>
<stop offset="0.582031" stop-color="#0BCBD6"/>
<stop offset="0.585937" stop-color="#0BCAD6"/>
<stop offset="0.589844" stop-color="#0BC9D7"/>
<stop offset="0.59375" stop-color="#0BC8D7"/>
<stop offset="0.597656" stop-color="#0BC7D7"/>
<stop offset="0.601562" stop-color="#0BC6D7"/>
<stop offset="0.605469" stop-color="#0BC5D8"/>
<stop offset="0.609375" stop-color="#0BC4D8"/>
<stop offset="0.613281" stop-color="#0CC3D8"/>
<stop offset="0.617188" stop-color="#0CC2D8"/>
<stop offset="0.621094" stop-color="#0CC1D9"/>
<stop offset="0.625" stop-color="#0CC0D9"/>
<stop offset="0.628906" stop-color="#0CBFD9"/>
<stop offset="0.632812" stop-color="#0CBFD9"/>
<stop offset="0.636719" stop-color="#0CBEDA"/>
<stop offset="0.640625" stop-color="#0CBDDA"/>
<stop offset="0.644531" stop-color="#0DBCDA"/>
<stop offset="0.648438" stop-color="#0DBBDA"/>
<stop offset="0.652344" stop-color="#0DBADB"/>
<stop offset="0.65625" stop-color="#0DB9DB"/>
<stop offset="0.660156" stop-color="#0DB8DB"/>
<stop offset="0.664063" stop-color="#0DB7DB"/>
<stop offset="0.667969" stop-color="#0DB6DC"/>
<stop offset="0.671875" stop-color="#0DB5DC"/>
<stop offset="0.675781" stop-color="#0EB4DC"/>
<stop offset="0.679688" stop-color="#0EB3DC"/>
<stop offset="0.683594" stop-color="#0EB2DD"/>
<stop offset="0.6875" stop-color="#0EB1DD"/>
<stop offset="0.691406" stop-color="#0EB0DD"/>
<stop offset="0.695313" stop-color="#0EAFDD"/>
<stop offset="0.699219" stop-color="#0EAFDE"/>
<stop offset="0.703125" stop-color="#0EAEDE"/>
<stop offset="0.707031" stop-color="#0FADDE"/>
<stop offset="0.710938" stop-color="#0FACDE"/>
<stop offset="0.714844" stop-color="#0FABDF"/>
<stop offset="0.71875" stop-color="#0FAADF"/>
<stop offset="0.722656" stop-color="#0FA9DF"/>
<stop offset="0.726563" stop-color="#0FA8DF"/>
<stop offset="0.730469" stop-color="#0FA7E0"/>
<stop offset="0.734375" stop-color="#0FA6E0"/>
<stop offset="0.738281" stop-color="#10A5E0"/>
<stop offset="0.742188" stop-color="#10A4E0"/>
<stop offset="0.746094" stop-color="#10A3E1"/>
<stop offset="0.75" stop-color="#10A2E1"/>
<stop offset="0.753906" stop-color="#10A1E1"/>
<stop offset="0.757812" stop-color="#10A0E1"/>
<stop offset="0.761719" stop-color="#109FE2"/>
<stop offset="0.765625" stop-color="#109FE2"/>
<stop offset="0.769531" stop-color="#119EE2"/>
<stop offset="0.773437" stop-color="#119DE2"/>
<stop offset="0.777344" stop-color="#119CE2"/>
<stop offset="0.78125" stop-color="#119BE3"/>
<stop offset="0.785156" stop-color="#119AE3"/>
<stop offset="0.789062" stop-color="#1199E3"/>
<stop offset="0.792969" stop-color="#1198E3"/>
<stop offset="0.796875" stop-color="#1197E4"/>
<stop offset="0.800781" stop-color="#1196E4"/>
<stop offset="0.804687" stop-color="#1295E4"/>
<stop offset="0.808594" stop-color="#1294E4"/>
<stop offset="0.8125" stop-color="#1293E5"/>
<stop offset="0.816406" stop-color="#1292E5"/>
<stop offset="0.820312" stop-color="#1291E5"/>
<stop offset="0.824219" stop-color="#1290E5"/>
<stop offset="0.828125" stop-color="#1290E6"/>
<stop offset="0.832031" stop-color="#128FE6"/>
<stop offset="0.835937" stop-color="#138EE6"/>
<stop offset="0.839844" stop-color="#138DE6"/>
<stop offset="0.84375" stop-color="#138CE7"/>
<stop offset="0.847656" stop-color="#138BE7"/>
<stop offset="0.851562" stop-color="#138AE7"/>
<stop offset="0.855469" stop-color="#1389E7"/>
<stop offset="0.859375" stop-color="#1388E8"/>
<stop offset="0.863281" stop-color="#1387E8"/>
<stop offset="0.867188" stop-color="#1486E8"/>
<stop offset="0.871094" stop-color="#1485E8"/>
<stop offset="0.875" stop-color="#1484E9"/>
<stop offset="0.878906" stop-color="#1484E9"/>
<stop offset="0.882812" stop-color="#1483E9"/>
<stop offset="0.890625" stop-color="#1483E9"/>
<stop offset="0.90625" stop-color="#1483E9"/>
<stop offset="0.9375" stop-color="#1483E9"/>
<stop offset="1" stop-color="#1483E9"/>
</linearGradient>
<linearGradient id="paint2_linear_1419_190" x1="268.125" y1="285.924" x2="268.125" y2="341.142" gradientUnits="userSpaceOnUse">
<stop stop-color="#1FCDCA"/>
<stop offset="0.0078125" stop-color="#1FCDCA"/>
<stop offset="0.015625" stop-color="#1FCECA"/>
<stop offset="0.0234375" stop-color="#1ECECA"/>
<stop offset="0.03125" stop-color="#1ECFCA"/>
<stop offset="0.0390625" stop-color="#1DCFCA"/>
<stop offset="0.046875" stop-color="#1DD0CA"/>
<stop offset="0.0546875" stop-color="#1CD0CA"/>
<stop offset="0.0625" stop-color="#1CD1CB"/>
<stop offset="0.0703125" stop-color="#1BD1CB"/>
<stop offset="0.078125" stop-color="#1BD2CB"/>
<stop offset="0.0859375" stop-color="#1AD2CB"/>
<stop offset="0.09375" stop-color="#1AD3CB"/>
<stop offset="0.101562" stop-color="#19D3CB"/>
<stop offset="0.109375" stop-color="#19D4CB"/>
<stop offset="0.117188" stop-color="#18D4CB"/>
<stop offset="0.125" stop-color="#18D5CB"/>
<stop offset="0.132812" stop-color="#17D5CC"/>
<stop offset="0.140625" stop-color="#17D6CC"/>
<stop offset="0.148438" stop-color="#16D7CC"/>
<stop offset="0.15625" stop-color="#16D7CC"/>
<stop offset="0.164063" stop-color="#15D8CC"/>
<stop offset="0.171875" stop-color="#15D8CC"/>
<stop offset="0.179687" stop-color="#14D9CC"/>
<stop offset="0.1875" stop-color="#14D9CC"/>
<stop offset="0.195313" stop-color="#13DACC"/>
<stop offset="0.203125" stop-color="#13DACD"/>
<stop offset="0.210937" stop-color="#12DBCD"/>
<stop offset="0.21875" stop-color="#12DBCD"/>
<stop offset="0.226562" stop-color="#11DCCD"/>
<stop offset="0.234375" stop-color="#11DCCD"/>
<stop offset="0.242188" stop-color="#10DDCD"/>
<stop offset="0.25" stop-color="#10DDCD"/>
<stop offset="0.257812" stop-color="#0FDECD"/>
<stop offset="0.265625" stop-color="#0FDECD"/>
<stop offset="0.273438" stop-color="#0EDFCD"/>
<stop offset="0.28125" stop-color="#0EDFCE"/>
<stop offset="0.289063" stop-color="#0DE0CE"/>
<stop offset="0.296875" stop-color="#0DE0CE"/>
<stop offset="0.304687" stop-color="#0CE1CE"/>
<stop offset="0.3125" stop-color="#0CE1CE"/>
<stop offset="0.320313" stop-color="#0BE2CE"/>
<stop offset="0.328125" stop-color="#0BE2CE"/>
<stop offset="0.335937" stop-color="#0AE3CE"/>
<stop offset="0.34375" stop-color="#0AE3CE"/>
<stop offset="0.351562" stop-color="#09E4CF"/>
<stop offset="0.359375" stop-color="#09E4CF"/>
<stop offset="0.367188" stop-color="#08E5CF"/>
<stop offset="0.375" stop-color="#08E5CF"/>
<stop offset="0.40625" stop-color="#07E5CF"/>
<stop offset="0.421875" stop-color="#07E5CF"/>
<stop offset="0.4375" stop-color="#07E4CF"/>
<stop offset="0.453125" stop-color="#07E4D0"/>
<stop offset="0.46875" stop-color="#07E3D0"/>
<stop offset="0.484375" stop-color="#07E3D0"/>
<stop offset="0.5" stop-color="#08E2D0"/>
<stop offset="0.515625" stop-color="#08E2D0"/>
<stop offset="0.53125" stop-color="#08E1D0"/>
<stop offset="0.546875" stop-color="#08E0D0"/>
<stop offset="0.5625" stop-color="#08E0D1"/>
<stop offset="0.578125" stop-color="#08DFD1"/>
<stop offset="0.59375" stop-color="#08DFD1"/>
<stop offset="0.609375" stop-color="#08DED1"/>
<stop offset="0.625" stop-color="#08DED1"/>
<stop offset="0.640625" stop-color="#08DDD1"/>
<stop offset="0.65625" stop-color="#08DCD1"/>
<stop offset="0.671875" stop-color="#08DCD2"/>
<stop offset="0.6875" stop-color="#08DBD2"/>
<stop offset="0.703125" stop-color="#08DBD2"/>
<stop offset="0.71875" stop-color="#09DAD2"/>
<stop offset="0.734375" stop-color="#09DAD2"/>
<stop offset="0.75" stop-color="#09D9D2"/>
<stop offset="0.765625" stop-color="#09D9D3"/>
<stop offset="0.78125" stop-color="#09D8D3"/>
<stop offset="0.796875" stop-color="#09D7D3"/>
<stop offset="0.8125" stop-color="#09D7D3"/>
<stop offset="0.828125" stop-color="#09D6D3"/>
<stop offset="0.84375" stop-color="#09D6D3"/>
<stop offset="0.859375" stop-color="#09D5D3"/>
<stop offset="0.875" stop-color="#09D5D4"/>
<stop offset="0.890625" stop-color="#09D4D4"/>
<stop offset="0.90625" stop-color="#09D4D4"/>
<stop offset="0.921875" stop-color="#09D3D4"/>
<stop offset="0.9375" stop-color="#0AD2D4"/>
<stop offset="0.953125" stop-color="#0AD2D4"/>
<stop offset="0.96875" stop-color="#0AD1D4"/>
<stop offset="0.984375" stop-color="#0AD1D5"/>
<stop offset="1" stop-color="#0AD0D5"/>
</linearGradient>
<linearGradient id="paint3_linear_1419_190" x1="317.635" y1="158.071" x2="317.635" y2="477.622" gradientUnits="userSpaceOnUse">
<stop stop-color="#B03AAB"/>
<stop offset="0.0078125" stop-color="#B03AAB"/>
<stop offset="0.0117187" stop-color="#AF3BAB"/>
<stop offset="0.015625" stop-color="#AE3CAB"/>
<stop offset="0.0195312" stop-color="#AD3EAC"/>
<stop offset="0.0234375" stop-color="#AB3FAC"/>
<stop offset="0.0273438" stop-color="#AA40AC"/>
<stop offset="0.03125" stop-color="#A842AD"/>
<stop offset="0.0351562" stop-color="#A743AD"/>
<stop offset="0.0390625" stop-color="#A545AD"/>
<stop offset="0.0429688" stop-color="#A446AE"/>
<stop offset="0.046875" stop-color="#A248AE"/>
<stop offset="0.0507813" stop-color="#A149AE"/>
<stop offset="0.0546875" stop-color="#9F4BAF"/>
<stop offset="0.0585937" stop-color="#9E4CAF"/>
<stop offset="0.0625" stop-color="#9D4EAF"/>
<stop offset="0.0664062" stop-color="#9B4FAF"/>
<stop offset="0.0703125" stop-color="#9A51B0"/>
<stop offset="0.0742187" stop-color="#9852B0"/>
<stop offset="0.078125" stop-color="#9754B0"/>
<stop offset="0.0820312" stop-color="#9555B1"/>
<stop offset="0.0859375" stop-color="#9457B1"/>
<stop offset="0.0898438" stop-color="#9258B1"/>
<stop offset="0.09375" stop-color="#915AB2"/>
<stop offset="0.0976563" stop-color="#905BB2"/>
<stop offset="0.101563" stop-color="#8E5CB2"/>
<stop offset="0.105469" stop-color="#8D5EB3"/>
<stop offset="0.109375" stop-color="#8B5FB3"/>
<stop offset="0.113281" stop-color="#8A61B3"/>
<stop offset="0.117187" stop-color="#8862B3"/>
<stop offset="0.121094" stop-color="#8764B4"/>
<stop offset="0.125" stop-color="#8565B4"/>
<stop offset="0.128906" stop-color="#8467B4"/>
<stop offset="0.132812" stop-color="#8368B5"/>
<stop offset="0.136719" stop-color="#816AB5"/>
<stop offset="0.140625" stop-color="#806BB5"/>
<stop offset="0.144531" stop-color="#7E6DB6"/>
<stop offset="0.148437" stop-color="#7D6EB6"/>
<stop offset="0.152344" stop-color="#7B70B6"/>
<stop offset="0.15625" stop-color="#7A71B7"/>
<stop offset="0.160156" stop-color="#7873B7"/>
<stop offset="0.164062" stop-color="#7774B7"/>
<stop offset="0.167969" stop-color="#7576B7"/>
<stop offset="0.171875" stop-color="#7477B8"/>
<stop offset="0.175781" stop-color="#7378B8"/>
<stop offset="0.179688" stop-color="#717AB8"/>
<stop offset="0.183594" stop-color="#707BB9"/>
<stop offset="0.1875" stop-color="#6E7DB9"/>
<stop offset="0.191406" stop-color="#6D7EB9"/>
<stop offset="0.195312" stop-color="#6B80BA"/>
<stop offset="0.199219" stop-color="#6A81BA"/>
<stop offset="0.203125" stop-color="#6883BA"/>
<stop offset="0.207031" stop-color="#6784BB"/>
<stop offset="0.210938" stop-color="#6686BB"/>
<stop offset="0.214844" stop-color="#6487BB"/>
<stop offset="0.21875" stop-color="#6389BB"/>
<stop offset="0.222656" stop-color="#618ABC"/>
<stop offset="0.226563" stop-color="#608CBC"/>
<stop offset="0.230469" stop-color="#5E8DBC"/>
<stop offset="0.234375" stop-color="#5D8FBD"/>
<stop offset="0.238281" stop-color="#5B90BD"/>
<stop offset="0.242188" stop-color="#5A92BD"/>
<stop offset="0.246094" stop-color="#5993BE"/>
<stop offset="0.25" stop-color="#5794BE"/>
<stop offset="0.253906" stop-color="#5696BE"/>
<stop offset="0.257812" stop-color="#5497BF"/>
<stop offset="0.261719" stop-color="#5399BF"/>
<stop offset="0.265625" stop-color="#519ABF"/>
<stop offset="0.269531" stop-color="#509CBF"/>
<stop offset="0.273438" stop-color="#4E9DC0"/>
<stop offset="0.277344" stop-color="#4D9FC0"/>
<stop offset="0.28125" stop-color="#4CA0C0"/>
<stop offset="0.285156" stop-color="#4AA2C1"/>
<stop offset="0.289062" stop-color="#49A3C1"/>
<stop offset="0.292969" stop-color="#47A5C1"/>
<stop offset="0.296875" stop-color="#46A6C2"/>
<stop offset="0.300781" stop-color="#44A8C2"/>
<stop offset="0.304687" stop-color="#43A9C2"/>
<stop offset="0.308594" stop-color="#41ABC3"/>
<stop offset="0.3125" stop-color="#40ACC3"/>
<stop offset="0.316406" stop-color="#3EAEC3"/>
<stop offset="0.320312" stop-color="#3DAFC3"/>
<stop offset="0.324219" stop-color="#3CB0C4"/>
<stop offset="0.328125" stop-color="#3AB2C4"/>
<stop offset="0.332031" stop-color="#39B3C4"/>
<stop offset="0.335938" stop-color="#37B5C5"/>
<stop offset="0.339844" stop-color="#36B6C5"/>
<stop offset="0.34375" stop-color="#34B8C5"/>
<stop offset="0.347656" stop-color="#33B9C6"/>
<stop offset="0.351562" stop-color="#31BBC6"/>
<stop offset="0.355469" stop-color="#30BCC6"/>
<stop offset="0.359375" stop-color="#2FBEC7"/>
<stop offset="0.363281" stop-color="#2DBFC7"/>
<stop offset="0.367188" stop-color="#2CC1C7"/>
<stop offset="0.371094" stop-color="#2AC2C7"/>
<stop offset="0.375" stop-color="#29C4C8"/>
<stop offset="0.378906" stop-color="#27C5C8"/>
<stop offset="0.382812" stop-color="#26C7C8"/>
<stop offset="0.386719" stop-color="#24C8C9"/>
<stop offset="0.390625" stop-color="#23CAC9"/>
<stop offset="0.394531" stop-color="#22CBC9"/>
<stop offset="0.398438" stop-color="#20CCCA"/>
<stop offset="0.402344" stop-color="#1FCECA"/>
<stop offset="0.40625" stop-color="#1DCFCA"/>
<stop offset="0.410156" stop-color="#1CD1CB"/>
<stop offset="0.414062" stop-color="#1AD2CB"/>
<stop offset="0.417969" stop-color="#19D4CB"/>
<stop offset="0.421875" stop-color="#17D5CC"/>
<stop offset="0.425781" stop-color="#16D7CC"/>
<stop offset="0.429688" stop-color="#14D8CC"/>
<stop offset="0.433594" stop-color="#13DACC"/>
<stop offset="0.4375" stop-color="#12DBCD"/>
<stop offset="0.441406" stop-color="#10DDCD"/>
<stop offset="0.445313" stop-color="#0FDECD"/>
<stop offset="0.449219" stop-color="#0DE0CE"/>
<stop offset="0.453125" stop-color="#0CE1CE"/>
<stop offset="0.457031" stop-color="#0AE3CE"/>
<stop offset="0.460938" stop-color="#09E4CF"/>
<stop offset="0.464844" stop-color="#08E5CF"/>
<stop offset="0.46875" stop-color="#07E5CF"/>
<stop offset="0.472656" stop-color="#07E5CF"/>
<stop offset="0.476562" stop-color="#07E4D0"/>
<stop offset="0.480469" stop-color="#07E3D0"/>
<stop offset="0.484375" stop-color="#07E2D0"/>
<stop offset="0.488281" stop-color="#08E1D0"/>
<stop offset="0.492187" stop-color="#08E1D0"/>
<stop offset="0.496094" stop-color="#08E0D1"/>
<stop offset="0.5" stop-color="#08DFD1"/>
<stop offset="0.503906" stop-color="#08DED1"/>
<stop offset="0.507813" stop-color="#08DDD1"/>
<stop offset="0.511719" stop-color="#08DDD1"/>
<stop offset="0.515625" stop-color="#08DCD2"/>
<stop offset="0.519531" stop-color="#08DBD2"/>
<stop offset="0.523438" stop-color="#09DAD2"/>
<stop offset="0.527344" stop-color="#09D9D2"/>
<stop offset="0.53125" stop-color="#09D9D3"/>
<stop offset="0.535156" stop-color="#09D8D3"/>
<stop offset="0.539062" stop-color="#09D7D3"/>
<stop offset="0.542969" stop-color="#09D6D3"/>
<stop offset="0.546875" stop-color="#09D5D3"/>
<stop offset="0.550781" stop-color="#09D5D4"/>
<stop offset="0.554688" stop-color="#09D4D4"/>
<stop offset="0.558594" stop-color="#0AD3D4"/>
<stop offset="0.5625" stop-color="#0AD2D4"/>
<stop offset="0.566406" stop-color="#0AD1D4"/>
<stop offset="0.570312" stop-color="#0AD0D5"/>
<stop offset="0.574219" stop-color="#0AD0D5"/>
<stop offset="0.578125" stop-color="#0ACFD5"/>
<stop offset="0.582031" stop-color="#0ACED5"/>
<stop offset="0.585938" stop-color="#0ACDD5"/>
<stop offset="0.589844" stop-color="#0ACCD6"/>
<stop offset="0.59375" stop-color="#0ACCD6"/>
<stop offset="0.597656" stop-color="#0BCBD6"/>
<stop offset="0.601562" stop-color="#0BCAD6"/>
<stop offset="0.605469" stop-color="#0BC9D7"/>
<stop offset="0.609375" stop-color="#0BC8D7"/>
<stop offset="0.613281" stop-color="#0BC8D7"/>
<stop offset="0.617187" stop-color="#0BC7D7"/>
<stop offset="0.621094" stop-color="#0BC6D7"/>
<stop offset="0.625" stop-color="#0BC5D8"/>
<stop offset="0.628906" stop-color="#0BC4D8"/>
<stop offset="0.632812" stop-color="#0CC4D8"/>
<stop offset="0.636719" stop-color="#0CC3D8"/>
<stop offset="0.640625" stop-color="#0CC2D8"/>
<stop offset="0.644531" stop-color="#0CC1D9"/>
<stop offset="0.648437" stop-color="#0CC0D9"/>
<stop offset="0.652344" stop-color="#0CC0D9"/>
<stop offset="0.65625" stop-color="#0CBFD9"/>
<stop offset="0.660156" stop-color="#0CBEDA"/>
<stop offset="0.664062" stop-color="#0CBDDA"/>
<stop offset="0.667969" stop-color="#0CBCDA"/>
<stop offset="0.671875" stop-color="#0DBCDA"/>
<stop offset="0.675781" stop-color="#0DBBDA"/>
<stop offset="0.679688" stop-color="#0DBADB"/>
<stop offset="0.683594" stop-color="#0DB9DB"/>
<stop offset="0.6875" stop-color="#0DB8DB"/>
<stop offset="0.691406" stop-color="#0DB7DB"/>
<stop offset="0.695313" stop-color="#0DB7DB"/>
<stop offset="0.699219" stop-color="#0DB6DC"/>
<stop offset="0.703125" stop-color="#0DB5DC"/>
<stop offset="0.707031" stop-color="#0EB4DC"/>
<stop offset="0.710938" stop-color="#0EB3DC"/>
<stop offset="0.714844" stop-color="#0EB3DC"/>
<stop offset="0.71875" stop-color="#0EB2DD"/>
<stop offset="0.722656" stop-color="#0EB1DD"/>
<stop offset="0.726562" stop-color="#0EB0DD"/>
<stop offset="0.730469" stop-color="#0EAFDD"/>
<stop offset="0.734375" stop-color="#0EAFDE"/>
<stop offset="0.738281" stop-color="#0EAEDE"/>
<stop offset="0.742188" stop-color="#0EADDE"/>
<stop offset="0.746094" stop-color="#0FACDE"/>
<stop offset="0.75" stop-color="#0FABDE"/>
<stop offset="0.753906" stop-color="#0FABDF"/>
<stop offset="0.757812" stop-color="#0FAADF"/>
<stop offset="0.761719" stop-color="#0FA9DF"/>
<stop offset="0.765625" stop-color="#0FA8DF"/>
<stop offset="0.769531" stop-color="#0FA7DF"/>
<stop offset="0.773438" stop-color="#0FA7E0"/>
<stop offset="0.777344" stop-color="#0FA6E0"/>
<stop offset="0.78125" stop-color="#10A5E0"/>
<stop offset="0.785156" stop-color="#10A4E0"/>
<stop offset="0.789062" stop-color="#10A3E1"/>
<stop offset="0.792969" stop-color="#10A3E1"/>
<stop offset="0.796875" stop-color="#10A2E1"/>
<stop offset="0.800781" stop-color="#10A1E1"/>
<stop offset="0.804687" stop-color="#10A0E1"/>
<stop offset="0.808594" stop-color="#109FE2"/>
<stop offset="0.8125" stop-color="#109FE2"/>
<stop offset="0.816406" stop-color="#109EE2"/>
<stop offset="0.820312" stop-color="#119DE2"/>
<stop offset="0.824219" stop-color="#119CE2"/>
<stop offset="0.828125" stop-color="#119BE3"/>
<stop offset="0.832031" stop-color="#119AE3"/>
<stop offset="0.835938" stop-color="#119AE3"/>
<stop offset="0.839844" stop-color="#1199E3"/>
<stop offset="0.84375" stop-color="#1198E3"/>
<stop offset="0.847656" stop-color="#1197E4"/>
<stop offset="0.851563" stop-color="#1196E4"/>
<stop offset="0.855469" stop-color="#1296E4"/>
<stop offset="0.859375" stop-color="#1295E4"/>
<stop offset="0.863281" stop-color="#1294E5"/>
<stop offset="0.867188" stop-color="#1293E5"/>
<stop offset="0.871094" stop-color="#1292E5"/>
<stop offset="0.875" stop-color="#1292E5"/>
<stop offset="0.878906" stop-color="#1291E5"/>
<stop offset="0.882813" stop-color="#1290E6"/>
<stop offset="0.886719" stop-color="#128FE6"/>
<stop offset="0.890625" stop-color="#138EE6"/>
<stop offset="0.894531" stop-color="#138EE6"/>
<stop offset="0.898438" stop-color="#138DE6"/>
<stop offset="0.902344" stop-color="#138CE7"/>
<stop offset="0.90625" stop-color="#138BE7"/>
<stop offset="0.910156" stop-color="#138AE7"/>
<stop offset="0.914062" stop-color="#138AE7"/>
<stop offset="0.917969" stop-color="#1389E7"/>
<stop offset="0.921875" stop-color="#1388E8"/>
<stop offset="0.925781" stop-color="#1387E8"/>
<stop offset="0.929688" stop-color="#1486E8"/>
<stop offset="0.933594" stop-color="#1486E8"/>
<stop offset="0.9375" stop-color="#1485E9"/>
<stop offset="0.941406" stop-color="#1484E9"/>
<stop offset="0.945312" stop-color="#1483E9"/>
<stop offset="0.953125" stop-color="#1483E9"/>
<stop offset="0.96875" stop-color="#1483E9"/>
<stop offset="1" stop-color="#1483E9"/>
</linearGradient>
<linearGradient id="paint4_linear_1419_190" x1="367.148" y1="285.924" x2="367.148" y2="341.142" gradientUnits="userSpaceOnUse">
<stop stop-color="#1FCDCA"/>
<stop offset="0.0078125" stop-color="#1FCDCA"/>
<stop offset="0.015625" stop-color="#1FCECA"/>
<stop offset="0.0234375" stop-color="#1ECECA"/>
<stop offset="0.03125" stop-color="#1ECFCA"/>
<stop offset="0.0390625" stop-color="#1DCFCA"/>
<stop offset="0.046875" stop-color="#1DD0CA"/>
<stop offset="0.0546875" stop-color="#1CD0CA"/>
<stop offset="0.0625" stop-color="#1CD1CB"/>
<stop offset="0.0703125" stop-color="#1BD1CB"/>
<stop offset="0.078125" stop-color="#1BD2CB"/>
<stop offset="0.0859375" stop-color="#1AD2CB"/>
<stop offset="0.09375" stop-color="#1AD3CB"/>
<stop offset="0.101562" stop-color="#19D3CB"/>
<stop offset="0.109375" stop-color="#19D4CB"/>
<stop offset="0.117188" stop-color="#18D4CB"/>
<stop offset="0.125" stop-color="#18D5CB"/>
<stop offset="0.132812" stop-color="#17D5CC"/>
<stop offset="0.140625" stop-color="#17D6CC"/>
<stop offset="0.148438" stop-color="#16D7CC"/>
<stop offset="0.15625" stop-color="#16D7CC"/>
<stop offset="0.164063" stop-color="#15D8CC"/>
<stop offset="0.171875" stop-color="#15D8CC"/>
<stop offset="0.179687" stop-color="#14D9CC"/>
<stop offset="0.1875" stop-color="#14D9CC"/>
<stop offset="0.195313" stop-color="#13DACC"/>
<stop offset="0.203125" stop-color="#13DACD"/>
<stop offset="0.210937" stop-color="#12DBCD"/>
<stop offset="0.21875" stop-color="#12DBCD"/>
<stop offset="0.226562" stop-color="#11DCCD"/>
<stop offset="0.234375" stop-color="#11DCCD"/>
<stop offset="0.242188" stop-color="#10DDCD"/>
<stop offset="0.25" stop-color="#10DDCD"/>
<stop offset="0.257812" stop-color="#0FDECD"/>
<stop offset="0.265625" stop-color="#0FDECD"/>
<stop offset="0.273438" stop-color="#0EDFCD"/>
<stop offset="0.28125" stop-color="#0EDFCE"/>
<stop offset="0.289063" stop-color="#0DE0CE"/>
<stop offset="0.296875" stop-color="#0DE0CE"/>
<stop offset="0.304687" stop-color="#0CE1CE"/>
<stop offset="0.3125" stop-color="#0CE1CE"/>
<stop offset="0.320313" stop-color="#0BE2CE"/>
<stop offset="0.328125" stop-color="#0BE2CE"/>
<stop offset="0.335937" stop-color="#0AE3CE"/>
<stop offset="0.34375" stop-color="#0AE3CE"/>
<stop offset="0.351562" stop-color="#09E4CF"/>
<stop offset="0.359375" stop-color="#09E4CF"/>
<stop offset="0.367188" stop-color="#08E5CF"/>
<stop offset="0.375" stop-color="#08E5CF"/>
<stop offset="0.40625" stop-color="#07E5CF"/>
<stop offset="0.421875" stop-color="#07E5CF"/>
<stop offset="0.4375" stop-color="#07E4CF"/>
<stop offset="0.453125" stop-color="#07E4D0"/>
<stop offset="0.46875" stop-color="#07E3D0"/>
<stop offset="0.484375" stop-color="#07E3D0"/>
<stop offset="0.5" stop-color="#08E2D0"/>
<stop offset="0.515625" stop-color="#08E2D0"/>
<stop offset="0.53125" stop-color="#08E1D0"/>
<stop offset="0.546875" stop-color="#08E0D0"/>
<stop offset="0.5625" stop-color="#08E0D1"/>
<stop offset="0.578125" stop-color="#08DFD1"/>
<stop offset="0.59375" stop-color="#08DFD1"/>
<stop offset="0.609375" stop-color="#08DED1"/>
<stop offset="0.625" stop-color="#08DED1"/>
<stop offset="0.640625" stop-color="#08DDD1"/>
<stop offset="0.65625" stop-color="#08DCD1"/>
<stop offset="0.671875" stop-color="#08DCD2"/>
<stop offset="0.6875" stop-color="#08DBD2"/>
<stop offset="0.703125" stop-color="#08DBD2"/>
<stop offset="0.71875" stop-color="#09DAD2"/>
<stop offset="0.734375" stop-color="#09DAD2"/>
<stop offset="0.75" stop-color="#09D9D2"/>
<stop offset="0.765625" stop-color="#09D9D3"/>
<stop offset="0.78125" stop-color="#09D8D3"/>
<stop offset="0.796875" stop-color="#09D7D3"/>
<stop offset="0.8125" stop-color="#09D7D3"/>
<stop offset="0.828125" stop-color="#09D6D3"/>
<stop offset="0.84375" stop-color="#09D6D3"/>
<stop offset="0.859375" stop-color="#09D5D3"/>
<stop offset="0.875" stop-color="#09D5D4"/>
<stop offset="0.890625" stop-color="#09D4D4"/>
<stop offset="0.90625" stop-color="#09D4D4"/>
<stop offset="0.921875" stop-color="#09D3D4"/>
<stop offset="0.9375" stop-color="#0AD2D4"/>
<stop offset="0.953125" stop-color="#0AD2D4"/>
<stop offset="0.96875" stop-color="#0AD1D4"/>
<stop offset="0.984375" stop-color="#0AD1D5"/>
<stop offset="1" stop-color="#0AD0D5"/>
</linearGradient>
</defs>
</svg>
