<svg width="318" height="636" viewBox="0 0 318 636" fill="none" xmlns="http://www.w3.org/2000/svg">
<g clip-path="url(#clip0_1410_86)">
<mask id="mask0_1410_86" style="mask-type:luminance" maskUnits="userSpaceOnUse" x="-318" y="0" width="636" height="636">
<path d="M-318 0H318V636H-318V0Z" fill="white"/>
</mask>
<g mask="url(#mask0_1410_86)">
<mask id="mask1_1410_86" style="mask-type:luminance" maskUnits="userSpaceOnUse" x="-318" y="0" width="636" height="636">
<path d="M-9.69358 554.88C26.7901 554.88 59.9887 576.51 74.8837 609.997L76.8966 614.505L81.6671 613.196C100.498 608.002 118.925 600.935 136.436 592.191L140.821 589.994L139.335 585.31C128.859 552.141 137.554 516.327 162.046 491.835C179.519 474.366 202.735 464.75 227.437 464.75C238.531 464.75 249.43 466.722 259.831 470.602L264.437 472.327L266.854 468.043C276.451 450.997 284.428 432.951 290.549 414.416L292.072 409.799L287.78 407.527C257.639 391.581 238.912 360.279 238.912 325.816C238.912 290.279 259.562 257.492 291.537 242.283L295.903 240.206L294.601 235.541C289.303 216.635 282.119 198.155 273.252 180.6L271.116 176.376L266.555 177.667C258.365 179.986 249.86 181.154 241.258 181.154C216.557 181.165 193.34 171.538 175.868 154.076C151.263 129.461 142.534 92.1727 153.647 59.0789L155.151 54.5966L151.043 52.2581C133.846 42.4703 115.64 34.3474 96.9138 28.114L92.4502 26.6286L90.1117 30.6994C73.6303 59.3857 42.8749 77.2104 9.84843 77.2104C-24.8468 77.2104 -57.3532 57.066 -72.9479 25.899L-75.0469 21.7048L-79.5741 22.9208C-98.6559 28.0467 -117.315 35.0845 -135.053 43.8397L-139.296 45.9387L-138.05 50.4959C-129.355 82.4597 -138.492 116.856 -161.891 140.255C-179.364 157.717 -202.581 167.344 -227.282 167.344C-237.598 167.344 -247.808 165.608 -257.637 162.199L-262.108 160.658L-264.484 164.736C-274.399 181.76 -282.676 199.805 -289.081 218.374L-290.664 222.954L-286.421 225.281C-257.024 241.49 -238.757 272.522 -238.757 306.278C-238.757 342.395 -259.811 375.395 -292.407 390.328L-296.804 392.348L-295.565 397.032C-290.559 415.92 -283.682 434.407 -275.125 451.973L-272.97 456.388L-268.278 454.951C-259.542 452.28 -250.405 450.929 -241.115 450.929C-216.402 450.929 -193.186 460.545 -175.713 478.014C-150.023 503.703 -141.814 542.383 -154.813 576.558L-156.549 581.134L-152.306 583.578C-135.349 593.358 -117.371 601.507 -98.8767 607.819L-94.1923 609.42L-91.9137 605.024C-75.9186 574.097 -44.415 554.88 -9.69358 554.88ZM63.9734 635.798C58.3723 599.995 27.1754 572.802 -9.69358 572.802C-44.9201 572.802 -75.1778 597.601 -82.5561 631.45C-117.573 622.246 -150.513 607.321 -180.618 587.016C-159.534 557.772 -162.468 516.615 -188.385 490.687C-202.465 476.607 -221.191 468.847 -241.115 468.847C-255.213 468.847 -268.69 472.709 -280.472 480.057C-298.536 448.8 -311.104 415.085 -317.895 379.664C-282.589 373.334 -256.679 342.807 -256.679 306.278C-256.679 271.871 -279.858 242.429 -312.615 234.055C-303.325 199.45 -288.441 166.902 -268.297 137.142C-256.2 145.093 -241.852 149.422 -227.282 149.422C-207.37 149.411 -188.643 141.662 -174.564 127.583C-150.742 103.753 -146.012 67.0372 -162.352 38.1713C-131.413 20.182 -98.0423 7.58801 -63.0066 0.669922C-55.6096 34.4821 -25.2958 59.2884 9.84843 59.2884C43.4287 59.2884 72.7099 36.7607 81.6446 4.92404C116.205 13.8775 148.779 28.4208 178.625 48.1986C159.757 77.3638 163.58 116.444 188.54 141.404C202.619 155.483 221.346 163.236 241.258 163.236C254.514 163.236 267.322 159.786 278.644 153.216C296.996 184.095 309.934 217.477 317.166 252.598C282.37 259.284 256.834 289.733 256.834 325.816C256.834 360.22 280.96 390.346 313.9 398.323C305.021 433.254 290.463 466.187 270.539 496.378C258.002 487.499 242.927 482.672 227.437 482.672C207.525 482.672 188.798 490.429 174.719 504.508C149.913 529.325 145.984 568.166 164.538 597.275C133.274 615.762 99.4992 628.7 63.9734 635.798Z" fill="white"/>
</mask>
<g mask="url(#mask1_1410_86)">
<mask id="mask2_1410_86" style="mask-type:luminance" maskUnits="userSpaceOnUse" x="-318" y="0" width="636" height="636">
<path d="M-9.69358 554.88C26.7901 554.88 59.9887 576.51 74.8837 609.997L76.8966 614.505L81.6671 613.196C100.498 608.002 118.925 600.935 136.436 592.191L140.821 589.994L139.335 585.31C128.859 552.141 137.554 516.327 162.046 491.835C179.519 474.366 202.735 464.75 227.437 464.75C238.531 464.75 249.43 466.722 259.831 470.602L264.437 472.327L266.854 468.043C276.451 450.997 284.428 432.951 290.549 414.416L292.072 409.799L287.78 407.527C257.639 391.581 238.912 360.279 238.912 325.816C238.912 290.279 259.562 257.492 291.537 242.283L295.903 240.206L294.601 235.541C289.303 216.635 282.119 198.155 273.252 180.6L271.116 176.376L266.555 177.667C258.365 179.986 249.86 181.154 241.258 181.154C216.557 181.165 193.34 171.538 175.868 154.076C151.263 129.461 142.534 92.1727 153.647 59.0789L155.151 54.5966L151.043 52.2581C133.846 42.4703 115.64 34.3474 96.9138 28.114L92.4502 26.6286L90.1117 30.6994C73.6303 59.3857 42.8749 77.2104 9.84843 77.2104C-24.8468 77.2104 -57.3532 57.066 -72.9479 25.899L-75.0469 21.7048L-79.5741 22.9208C-98.6559 28.0467 -117.315 35.0845 -135.053 43.8397L-139.296 45.9387L-138.05 50.4959C-129.355 82.4597 -138.492 116.856 -161.891 140.255C-179.364 157.717 -202.581 167.344 -227.282 167.344C-237.598 167.344 -247.808 165.608 -257.637 162.199L-262.108 160.658L-264.484 164.736C-274.399 181.76 -282.676 199.805 -289.081 218.374L-290.664 222.954L-286.421 225.281C-257.024 241.49 -238.757 272.522 -238.757 306.278C-238.757 342.395 -259.811 375.395 -292.407 390.328L-296.804 392.348L-295.565 397.032C-290.559 415.92 -283.682 434.407 -275.125 451.973L-272.97 456.388L-268.278 454.951C-259.542 452.28 -250.405 450.929 -241.115 450.929C-216.402 450.929 -193.186 460.545 -175.713 478.014C-150.023 503.703 -141.814 542.383 -154.813 576.558L-156.549 581.134L-152.306 583.578C-135.349 593.358 -117.371 601.507 -98.8767 607.819L-94.1923 609.42L-91.9137 605.024C-75.9186 574.097 -44.415 554.88 -9.69358 554.88ZM63.9734 635.798C58.3723 599.995 27.1754 572.802 -9.69358 572.802C-44.9201 572.802 -75.1778 597.601 -82.5561 631.45C-117.573 622.246 -150.513 607.321 -180.618 587.016C-159.534 557.772 -162.468 516.615 -188.385 490.687C-202.465 476.607 -221.191 468.847 -241.115 468.847C-255.213 468.847 -268.69 472.709 -280.472 480.057C-298.536 448.8 -311.104 415.085 -317.895 379.664C-282.589 373.334 -256.679 342.807 -256.679 306.278C-256.679 271.871 -279.858 242.429 -312.615 234.055C-303.325 199.45 -288.441 166.902 -268.297 137.142C-256.2 145.093 -241.852 149.422 -227.282 149.422C-207.37 149.411 -188.643 141.662 -174.564 127.583C-150.742 103.753 -146.012 67.0372 -162.352 38.1713C-131.413 20.182 -98.0423 7.58801 -63.0066 0.669922C-55.6096 34.4821 -25.2958 59.2884 9.84843 59.2884C43.4287 59.2884 72.7099 36.7607 81.6446 4.92404C116.205 13.8775 148.779 28.4208 178.625 48.1986C159.757 77.3638 163.58 116.444 188.54 141.404C202.619 155.483 221.346 163.236 241.258 163.236C254.514 163.236 267.322 159.786 278.644 153.216C296.996 184.095 309.934 217.477 317.166 252.598C282.37 259.284 256.834 289.733 256.834 325.816C256.834 360.22 280.96 390.346 313.9 398.323C305.021 433.254 290.463 466.187 270.539 496.378C258.002 487.499 242.927 482.672 227.437 482.672C207.525 482.672 188.798 490.429 174.719 504.508C149.913 529.325 145.984 568.166 164.538 597.275C133.274 615.762 99.4992 628.7 63.9734 635.798Z" fill="white"/>
</mask>
<g mask="url(#mask2_1410_86)">
<path d="M540.685 92.6524L-225.921 -222.822L-541.41 543.817L225.195 859.292L540.685 92.6524Z" fill="url(#paint0_linear_1410_86)"/>
</g>
</g>
</g>
<mask id="mask3_1410_86" style="mask-type:luminance" maskUnits="userSpaceOnUse" x="-318" y="0" width="636" height="636">
<path d="M-318 0H318V636H-318V0Z" fill="white"/>
</mask>
<g mask="url(#mask3_1410_86)">
<mask id="mask4_1410_86" style="mask-type:luminance" maskUnits="userSpaceOnUse" x="-318" y="0" width="636" height="636">
<path d="M-9.69358 554.88C26.7901 554.88 59.9887 576.51 74.8837 609.997L76.8966 614.505L81.6671 613.196C100.498 608.002 118.925 600.935 136.436 592.191L140.821 589.994L139.335 585.31C128.859 552.141 137.554 516.327 162.046 491.835C179.519 474.366 202.735 464.75 227.437 464.75C238.531 464.75 249.43 466.722 259.831 470.602L264.437 472.327L266.854 468.043C276.451 450.997 284.428 432.951 290.549 414.416L292.072 409.799L287.78 407.527C257.639 391.581 238.912 360.279 238.912 325.816C238.912 290.279 259.562 257.492 291.537 242.283L295.903 240.206L294.601 235.541C289.303 216.635 282.119 198.155 273.252 180.6L271.116 176.376L266.555 177.667C258.365 179.986 249.86 181.154 241.258 181.154C216.557 181.165 193.34 171.538 175.868 154.076C151.263 129.461 142.534 92.1727 153.647 59.0789L155.151 54.5966L151.043 52.2581C133.846 42.4703 115.64 34.3474 96.9138 28.114L92.4502 26.6286L90.1117 30.6994C73.6303 59.3857 42.8749 77.2104 9.84843 77.2104C-24.8468 77.2104 -57.3532 57.066 -72.9479 25.899L-75.0469 21.7048L-79.5741 22.9208C-98.6559 28.0467 -117.315 35.0845 -135.053 43.8397L-139.296 45.9387L-138.05 50.4959C-129.355 82.4597 -138.492 116.856 -161.891 140.255C-179.364 157.717 -202.581 167.344 -227.282 167.344C-237.598 167.344 -247.808 165.608 -257.637 162.199L-262.108 160.658L-264.484 164.736C-274.399 181.76 -282.676 199.805 -289.081 218.374L-290.664 222.954L-286.421 225.281C-257.024 241.49 -238.757 272.522 -238.757 306.278C-238.757 342.395 -259.811 375.395 -292.407 390.328L-296.804 392.348L-295.565 397.032C-290.559 415.92 -283.682 434.407 -275.125 451.973L-272.97 456.388L-268.278 454.951C-259.542 452.28 -250.405 450.929 -241.115 450.929C-216.402 450.929 -193.186 460.545 -175.713 478.014C-150.023 503.703 -141.814 542.383 -154.813 576.558L-156.549 581.134L-152.306 583.578C-135.349 593.358 -117.371 601.507 -98.8767 607.819L-94.1923 609.42L-91.9137 605.024C-75.9186 574.097 -44.415 554.88 -9.69358 554.88ZM63.9734 635.798C58.3723 599.995 27.1754 572.802 -9.69358 572.802C-44.9201 572.802 -75.1778 597.601 -82.5561 631.45C-117.573 622.246 -150.513 607.321 -180.618 587.016C-159.534 557.772 -162.468 516.615 -188.385 490.687C-202.465 476.607 -221.191 468.847 -241.115 468.847C-255.213 468.847 -268.69 472.709 -280.472 480.057C-298.536 448.8 -311.104 415.085 -317.895 379.664C-282.589 373.334 -256.679 342.807 -256.679 306.278C-256.679 271.871 -279.858 242.429 -312.615 234.055C-303.325 199.45 -288.441 166.902 -268.297 137.142C-256.2 145.093 -241.852 149.422 -227.282 149.422C-207.37 149.411 -188.643 141.662 -174.564 127.583C-150.742 103.753 -146.012 67.0372 -162.352 38.1713C-131.413 20.182 -98.0423 7.58801 -63.0066 0.669922C-55.6096 34.4821 -25.2958 59.2884 9.84843 59.2884C43.4287 59.2884 72.7099 36.7607 81.6446 4.92404C116.205 13.8775 148.779 28.4208 178.625 48.1986C159.757 77.3638 163.58 116.444 188.54 141.404C202.619 155.483 221.346 163.236 241.258 163.236C254.514 163.236 267.322 159.786 278.644 153.216C296.996 184.095 309.934 217.477 317.166 252.598C282.37 259.284 256.834 289.733 256.834 325.816C256.834 360.22 280.96 390.346 313.9 398.323C305.021 433.254 290.463 466.187 270.539 496.378C258.002 487.499 242.927 482.672 227.437 482.672C207.525 482.672 188.798 490.429 174.719 504.508C149.913 529.325 145.984 568.166 164.538 597.275C133.274 615.762 99.4992 628.7 63.9734 635.798Z" fill="white"/>
</mask>
<g mask="url(#mask4_1410_86)">
<mask id="mask5_1410_86" style="mask-type:luminance" maskUnits="userSpaceOnUse" x="-318" y="0" width="636" height="636">
<path d="M-9.69358 554.88C26.7901 554.88 59.9887 576.51 74.8837 609.997L76.8966 614.505L81.6671 613.196C100.498 608.002 118.925 600.935 136.436 592.191L140.821 589.994L139.335 585.31C128.859 552.141 137.554 516.327 162.046 491.835C179.519 474.366 202.735 464.75 227.437 464.75C238.531 464.75 249.43 466.722 259.831 470.602L264.437 472.327L266.854 468.043C276.451 450.997 284.428 432.951 290.549 414.416L292.072 409.799L287.78 407.527C257.639 391.581 238.912 360.279 238.912 325.816C238.912 290.279 259.562 257.492 291.537 242.283L295.903 240.206L294.601 235.541C289.303 216.635 282.119 198.155 273.252 180.6L271.116 176.376L266.555 177.667C258.365 179.986 249.86 181.154 241.258 181.154C216.557 181.165 193.34 171.538 175.868 154.076C151.263 129.461 142.534 92.1727 153.647 59.0789L155.151 54.5966L151.043 52.2581C133.846 42.4703 115.64 34.3474 96.9138 28.114L92.4502 26.6286L90.1117 30.6994C73.6303 59.3857 42.8749 77.2104 9.84843 77.2104C-24.8468 77.2104 -57.3532 57.066 -72.9479 25.899L-75.0469 21.7048L-79.5741 22.9208C-98.6559 28.0467 -117.315 35.0845 -135.053 43.8397L-139.296 45.9387L-138.05 50.4959C-129.355 82.4597 -138.492 116.856 -161.891 140.255C-179.364 157.717 -202.581 167.344 -227.282 167.344C-237.598 167.344 -247.808 165.608 -257.637 162.199L-262.108 160.658L-264.484 164.736C-274.399 181.76 -282.676 199.805 -289.081 218.374L-290.664 222.954L-286.421 225.281C-257.024 241.49 -238.757 272.522 -238.757 306.278C-238.757 342.395 -259.811 375.395 -292.407 390.328L-296.804 392.348L-295.565 397.032C-290.559 415.92 -283.682 434.407 -275.125 451.973L-272.97 456.388L-268.278 454.951C-259.542 452.28 -250.405 450.929 -241.115 450.929C-216.402 450.929 -193.186 460.545 -175.713 478.014C-150.023 503.703 -141.814 542.383 -154.813 576.558L-156.549 581.134L-152.306 583.578C-135.349 593.358 -117.371 601.507 -98.8767 607.819L-94.1923 609.42L-91.9137 605.024C-75.9186 574.097 -44.415 554.88 -9.69358 554.88ZM63.9734 635.798C58.3723 599.995 27.1754 572.802 -9.69358 572.802C-44.9201 572.802 -75.1778 597.601 -82.5561 631.45C-117.573 622.246 -150.513 607.321 -180.618 587.016C-159.534 557.772 -162.468 516.615 -188.385 490.687C-202.465 476.607 -221.191 468.847 -241.115 468.847C-255.213 468.847 -268.69 472.709 -280.472 480.057C-298.536 448.8 -311.104 415.085 -317.895 379.664C-282.589 373.334 -256.679 342.807 -256.679 306.278C-256.679 271.871 -279.858 242.429 -312.615 234.055C-303.325 199.45 -288.441 166.902 -268.297 137.142C-256.2 145.093 -241.852 149.422 -227.282 149.422C-207.37 149.411 -188.643 141.662 -174.564 127.583C-150.742 103.753 -146.012 67.0372 -162.352 38.1713C-131.413 20.182 -98.0423 7.58801 -63.0066 0.669922C-55.6096 34.4821 -25.2958 59.2884 9.84843 59.2884C43.4287 59.2884 72.7099 36.7607 81.6446 4.92404C116.205 13.8775 148.779 28.4208 178.625 48.1986C159.757 77.3638 163.58 116.444 188.54 141.404C202.619 155.483 221.346 163.236 241.258 163.236C254.514 163.236 267.322 159.786 278.644 153.216C296.996 184.095 309.934 217.477 317.166 252.598C282.37 259.284 256.834 289.733 256.834 325.816C256.834 360.22 280.96 390.346 313.9 398.323C305.021 433.254 290.463 466.187 270.539 496.378C258.002 487.499 242.927 482.672 227.437 482.672C207.525 482.672 188.798 490.429 174.719 504.508C149.913 529.325 145.984 568.166 164.538 597.275C133.274 615.762 99.4992 628.7 63.9734 635.798Z" fill="white"/>
</mask>
<g mask="url(#mask5_1410_86)">
<path d="M540.685 92.6524L-225.921 -222.822L-541.41 543.817L225.195 859.292L540.685 92.6524Z" fill="url(#paint1_linear_1410_86)"/>
</g>
</g>
</g>
<mask id="mask6_1410_86" style="mask-type:luminance" maskUnits="userSpaceOnUse" x="-148" y="158" width="295" height="320">
<path d="M-147.506 158.042H146.548V477.958H-147.506V158.042Z" fill="white"/>
</mask>
<g mask="url(#mask6_1410_86)">
<mask id="mask7_1410_86" style="mask-type:luminance" maskUnits="userSpaceOnUse" x="-147" y="158" width="294" height="320">
<path d="M136.655 323.182C136.202 325.977 133.482 327.309 131.473 325.749L131.406 325.693C129.748 324.409 127.526 325.068 126.568 327.118L125.857 328.641C125.008 330.482 125.475 332.79 126.949 333.939C130.908 337.052 132.955 340.299 135.11 346.398C137.583 353.384 134.949 361.705 131.653 367.164C128.397 372.548 121.221 376.809 115.504 375.728C114.595 375.556 113.791 374.972 113.252 374.089C111.329 370.909 109.192 367.77 106.988 364.511C105.772 362.722 104.403 360.71 102.506 359.082C100.965 357.769 97.0771 354.618 92.8978 352.557C92.9464 351.734 92.9951 350.929 93.025 350.136C93.2158 344.887 93.0624 339.656 92.8417 334.523C92.7257 331.937 90.8587 329.943 88.6848 330.096L88.292 330.126C86.1369 330.268 84.4906 332.453 84.5953 335.02C84.8161 339.914 84.9583 344.875 84.7787 349.706C84.6926 351.954 84.5392 354.323 83.9817 356.388C83.0912 359.636 81.0035 362.416 78.4368 363.965C76.8653 364.915 76.0123 366.973 76.349 369.016L76.4238 369.495C76.9215 372.51 79.7014 374.168 82.0174 372.798C85.8413 370.546 89.0029 366.793 90.8699 362.225C93.0063 363.43 95.457 365.136 97.687 367.033C98.6747 367.882 99.5951 369.233 100.56 370.651C109.001 383.095 114.576 391.304 113.645 405.604C113.08 414.329 108.597 422.808 102.229 427.204C96.6842 431.035 87.7569 432.031 81.0895 429.913C79.7089 429.471 78.7062 428.016 78.6164 426.321C78.0065 413.648 71.1296 401.552 61.4839 396.074C62.1836 393.601 62.67 391.102 63.1003 388.67C63.5792 385.987 64.0394 383.114 64.0095 380.094C63.9833 377.127 63.4744 374.168 62.5278 371.418C61.5588 368.6 58.6104 367.624 56.5488 369.435L56.272 369.674C54.8465 370.931 54.2328 373.18 54.9026 375.144C55.4488 376.742 55.7444 378.467 55.7631 380.203C55.7818 382.231 55.4301 384.405 55.026 386.65C54.3563 390.414 53.5706 394.35 51.9505 397.433C51.0226 399.225 49.7879 400.632 48.4933 401.466C47.1539 402.319 46.4243 404.1 46.5515 405.9L46.5889 406.397C46.8284 409.75 49.8814 411.695 52.3845 410.094C54.3675 408.829 56.1859 407.003 57.6975 404.732C57.7836 404.788 57.8733 404.867 57.9669 404.923C65.753 409.29 71.051 419.646 70.3626 429.894C70.1418 433.265 69.3374 436.704 67.9867 440.123C65.8016 445.62 62.2285 450.948 57.0652 456.395C52.1713 461.57 47.8909 464.634 43.5994 466.034C31.4432 470.007 19.605 467.489 10.2661 458.936C8.63857 457.45 7.11577 455.976 6.33005 454.289C5.66031 452.833 5.36473 450.88 5.09534 448.819C4.43309 443.685 3.99534 437.804 3.77458 431.705C2.64464 432.135 1.46606 432.364 0.257548 432.364C-1.38872 432.364 -2.97887 431.933 -4.49419 431.148C-4.49419 431.207 -4.48297 431.264 -4.48297 431.331C-4.70372 437.564 -5.14522 443.581 -5.82244 448.819C-6.09183 450.88 -6.37992 452.833 -7.06088 454.289C-7.8466 455.976 -9.36941 457.45 -10.997 458.936C-20.3246 467.489 -32.174 470.007 -44.3302 466.034C-48.6106 464.634 -52.8909 461.57 -57.796 456.395C-62.9593 450.948 -66.5325 445.62 -68.7063 440.123C-70.0645 436.704 -70.8614 433.265 -71.0897 429.894C-71.7706 419.646 -66.4726 409.29 -58.6977 404.923C-58.6004 404.867 -58.5144 404.788 -58.4283 404.732C-56.9167 407.003 -55.0946 408.829 -53.1116 410.094C-50.6235 411.695 -47.5554 409.75 -47.316 406.397L-47.2786 405.9C-47.1439 404.1 -47.8735 402.327 -49.2129 401.466C-50.515 400.632 -51.7422 399.225 -52.6813 397.433C-54.3014 394.35 -55.0871 390.414 -55.7569 386.65C-56.1497 384.405 -56.5014 382.231 -56.4827 380.203C-56.4752 378.467 -56.1759 376.742 -55.6222 375.144C-54.9599 373.18 -55.5735 370.931 -57.0028 369.674L-57.2797 369.435C-59.3375 367.624 -62.2896 368.6 -63.2549 371.418C-64.194 374.168 -64.7103 377.127 -64.7403 380.094C-64.759 383.114 -64.2988 385.987 -63.8199 388.67C-63.3896 391.102 -62.9107 393.601 -62.211 396.074C-71.8567 401.552 -78.7261 413.648 -79.3472 426.321C-79.4258 428.016 -80.4285 429.471 -81.8204 429.913C-88.4765 432.031 -97.4038 431.035 -102.949 427.204C-109.317 422.808 -113.799 414.329 -114.375 405.604C-115.303 391.304 -109.728 383.095 -101.28 370.651C-100.315 369.233 -99.4055 367.882 -98.4066 367.033C-96.1878 365.136 -93.7334 363.43 -91.5895 362.225C-89.7225 366.801 -86.5609 370.557 -82.737 372.806C-80.421 374.168 -77.6411 372.51 -77.1547 369.495L-77.0761 369.016C-76.7431 366.973 -77.5962 364.915 -79.1639 363.965C-81.7306 362.416 -83.8221 359.636 -84.7013 356.388C-85.2663 354.323 -85.4197 351.954 -85.5058 349.706C-85.6779 344.875 -85.5432 339.914 -85.3224 335.02C-85.2102 332.453 -86.8677 330.268 -89.0228 330.126L-89.4044 330.096C-91.5895 329.943 -93.4453 331.937 -93.5613 334.523C-93.7932 339.656 -93.9354 344.887 -93.7446 350.136C-93.7147 350.929 -93.6773 351.734 -93.6174 352.557C-97.8042 354.618 -101.684 357.769 -103.226 359.082C-105.123 360.71 -106.492 362.722 -107.708 364.511C-109.923 367.77 -112.056 370.909 -113.983 374.089C-114.518 374.972 -115.322 375.556 -116.224 375.728C-121.941 376.809 -129.125 372.548 -132.372 367.164C-135.668 361.705 -138.31 353.384 -135.829 346.398C-133.674 340.307 -131.635 337.052 -127.669 333.939C-126.206 332.79 -125.727 330.482 -126.577 328.641L-127.295 327.118C-128.245 325.06 -130.475 324.409 -132.125 325.693C-132.151 325.711 -132.17 325.73 -132.2 325.749C-134.202 327.32 -136.922 325.999 -137.382 323.201C-139.069 312.848 -138.935 302.963 -136.896 294.896C-133.476 281.393 -124.769 265.461 -110.593 261.237C-98.5712 257.657 -85.1054 263.692 -78.5128 275.118C-78.2659 275.549 -77.9666 275.904 -77.6336 276.181C-80.421 280.682 -82.0673 286.201 -82.318 291.794C-82.4489 294.754 -80.2564 297.1 -77.8057 296.658L-77.4203 296.591C-75.5533 296.258 -74.1951 294.38 -74.0791 292.139C-73.8883 288.288 -72.6985 284.495 -70.6968 281.498C-68.6876 278.489 -65.8515 276.259 -62.7386 275.167C-60.9277 274.516 -59.7004 272.522 -59.8464 270.281L-59.8763 269.832C-60.0746 266.891 -62.4879 264.878 -64.875 265.701C-67.307 266.535 -69.6342 267.837 -71.7407 269.513C-79.1863 256.613 -92.8915 249.208 -106.541 250.559C-108.464 250.75 -110.133 248.999 -110.207 246.709C-110.409 241.411 -110.316 236.075 -109.549 230.886C-108.247 222.112 -104.999 214.782 -100.408 210.255C-98.6273 208.5 -96.446 206.948 -93.7521 205.511C-83.7547 200.187 -72.6985 200.052 -64.1865 205.167C-56.0637 210.053 -50.6684 220.032 -50.5262 229.842C-50.515 230.673 -50.298 231.44 -49.9425 232.091C-50.6908 232.974 -51.3868 233.92 -52.0191 234.927C-53.5531 237.351 -52.7674 240.838 -50.4214 242.024L-50.0585 242.215C-48.4085 243.05 -46.4854 242.473 -45.4115 240.779C-43.219 237.321 -39.788 234.927 -36.1775 234.343C-34.4077 234.055 -33.0346 232.33 -32.855 230.224L-32.8063 229.756C-32.5482 226.755 -34.7033 224.23 -37.2213 224.63C-39.0322 224.907 -40.8057 225.472 -42.5006 226.288C-43.7653 214.105 -50.5936 202.361 -60.46 196.43C-61.4365 195.847 -62.4318 195.323 -63.4569 194.844C-65.5447 193.875 -66.293 190.773 -64.9124 188.663C-55.6297 174.479 -44.4163 168.081 -30.2022 168.694C-28.9563 168.75 -24.7882 169.719 -23.8229 170.236C-22.6069 170.962 -18.9664 173.558 -17.9225 174.509C-17.844 174.595 -17.7691 174.681 -17.6831 174.767C-16.1491 176.585 -14.6562 178.108 -13.3429 179.459C-10.0017 182.89 -7.79796 185.149 -6.37992 189.939C-5.09658 194.286 -4.78977 199.229 -4.55032 204.074V220.522C-5.33604 223.01 -6.26394 225.472 -7.33776 227.896C-10.2786 234.467 -15.1426 240.666 -22.2028 246.832C-27.1566 251.161 -33.0084 253.058 -38.1043 252.13C-39.5411 251.861 -41.034 252.561 -41.7523 254.076C-42.987 256.669 -41.6176 259.726 -39.2829 260.167C-38.0557 260.395 -36.8023 260.511 -35.5376 260.511C-29.6447 260.511 -23.4376 258.049 -18.1321 253.414C-12.3776 248.385 -7.8915 243.259 -4.55032 237.879V372.671C-3.02751 371.859 -1.40743 371.418 0.257548 371.418C1.93375 371.418 3.54261 371.859 5.07664 372.671V234.964C8.53381 241.422 13.5512 247.483 20.3346 253.414C25.6513 258.049 31.8585 260.511 37.7477 260.511C38.9637 260.511 40.161 260.407 41.3395 260.193C43.1991 259.86 44.6545 257.791 44.3964 255.599C44.1157 253.223 42.2861 251.745 40.4004 252.112C35.2857 253.077 29.3966 251.191 24.4129 246.832C17.3563 240.666 12.4886 234.467 9.54776 227.896C7.54605 223.414 6.05318 218.76 5.07664 214.113V207.456C5.48821 202.679 5.40963 197.983 4.81847 193.531C5.03922 192.296 5.31609 191.099 5.66032 189.939C7.06713 185.149 9.28211 182.89 12.6158 179.459C13.9254 178.119 15.4107 176.596 16.9448 174.785C17.0308 174.688 17.1169 174.602 17.2029 174.509C18.2356 173.558 21.8761 170.962 23.0921 170.236C24.0686 169.719 28.2367 168.75 29.4714 168.694C43.6967 168.081 54.9026 174.467 64.1928 188.663C65.5734 190.773 64.8251 193.875 62.7261 194.844C61.7047 195.323 60.7057 195.847 59.7404 196.43C49.8627 202.361 43.0344 214.105 41.7698 226.288C40.0749 225.472 38.3014 224.907 36.483 224.623C33.9725 224.23 31.8173 226.755 32.0867 229.756L32.1241 230.224C32.315 232.33 33.6881 234.055 35.4578 234.343C39.0609 234.927 42.4994 237.321 44.6807 240.779C45.7545 242.473 47.6889 243.05 49.3277 242.215L49.7018 242.024C52.0478 240.838 52.8223 237.351 51.2995 234.927C50.6597 233.92 49.96 232.974 49.2117 232.091C49.5672 231.44 49.7879 230.673 49.8066 229.842C49.9488 220.032 55.3441 210.053 63.4669 205.167C71.9714 200.052 83.0239 200.187 93.0325 205.511C95.7264 206.948 97.9002 208.5 99.6812 210.255C104.28 214.782 107.516 222.112 108.818 230.886C109.585 236.075 109.682 241.411 109.488 246.709C109.402 248.999 107.744 250.75 105.821 250.559C92.172 249.208 78.4667 256.613 71.0211 269.513C68.9146 267.837 66.5799 266.535 64.1441 265.701C61.7608 264.878 59.3475 266.891 59.1567 269.832L59.1268 270.281C58.9734 272.522 60.2006 274.516 62.019 275.167C65.1207 276.259 67.968 278.489 69.9697 281.498C71.9714 284.506 73.1575 288.296 73.3483 292.139C73.4755 294.38 74.8262 296.258 76.7007 296.591L77.0749 296.658C79.5368 297.1 81.7293 294.743 81.5984 291.794C81.3402 286.201 79.7014 280.674 76.9028 276.181C77.247 275.904 77.5463 275.549 77.7858 275.118C84.3746 263.692 97.8404 257.657 109.873 261.237C124.039 265.461 132.745 281.393 136.165 294.896C138.215 302.963 138.339 312.829 136.655 323.182ZM142.028 340.73C141.661 339.802 141.635 338.747 141.912 337.77C146.536 321.517 147.341 304.983 144.067 292.071C139.794 275.193 130.687 261.746 119.433 255.079C118.194 254.342 117.438 252.819 117.536 251.18C117.955 244.037 118.041 236.622 116.941 229.191C115.302 218.127 111.052 208.721 104.949 202.716C102.585 200.378 99.786 198.376 96.4036 196.565C90.361 193.358 83.9742 191.731 77.7558 191.663C76.6147 191.641 75.5446 190.953 74.931 189.804C63.3397 168.197 48.3512 158.072 29.1758 158.903C27.2115 158.989 21.6067 160.16 19.3955 161.481C18.9166 161.769 12.9413 165.667 11.2651 167.677C9.89198 169.308 8.54503 170.703 7.23176 172.047C4.4069 174.939 1.713 177.708 -0.363546 182.055C-2.43261 177.708 -5.134 174.939 -7.95137 172.047C-9.26464 170.703 -10.6228 169.308 -11.9922 167.677C-13.6684 165.667 -19.6474 161.769 -20.1263 161.481C-22.3375 160.16 -27.9423 158.989 -29.8954 158.903C-49.0708 158.072 -64.0705 168.197 -75.6506 189.804C-76.2642 190.953 -77.3343 191.641 -78.4867 191.663C-84.7013 191.731 -91.0919 193.358 -97.1344 196.565C-100.517 198.376 -103.312 200.378 -105.676 202.716C-111.771 208.721 -116.033 218.127 -117.672 229.191C-118.772 236.622 -118.686 244.037 -118.255 251.18C-118.158 252.819 -118.925 254.342 -120.16 255.079C-131.407 261.746 -140.514 275.193 -144.798 292.071C-148.06 304.983 -147.267 321.517 -142.631 337.77C-142.355 338.747 -142.392 339.802 -142.747 340.73C-142.976 341.332 -143.208 341.957 -143.436 342.597C-146.665 351.696 -145.037 363.018 -139.077 372.873C-135.743 378.411 -129.824 383.028 -123.512 384.839C-121.608 385.374 -120.515 387.757 -121.11 389.979C-122.401 394.836 -122.996 400.183 -122.592 406.36C-121.817 418.381 -115.879 429.617 -107.094 435.671C-102.193 439.061 -95.679 440.793 -89.281 440.793C-86.3888 440.793 -83.5228 440.438 -80.8401 439.712C-79.2312 439.282 -77.5962 440.296 -76.9713 442.114C-76.7244 442.844 -76.4625 443.573 -76.1781 444.292C-73.5029 451.015 -69.29 457.376 -63.2736 463.714C-57.3957 469.932 -52.0677 473.666 -46.5228 475.477C-42.1153 476.914 -37.6928 477.621 -33.3526 477.621C-23.3702 477.621 -13.8143 473.887 -5.95713 466.692C-3.94793 464.862 -1.88635 462.835 -0.363546 460.055C1.15926 462.835 3.22832 464.862 5.23004 466.692C13.0835 473.887 22.6431 477.621 32.6218 477.621C36.9732 477.621 41.3957 476.914 45.792 475.477C51.3406 473.666 56.6648 469.932 62.554 463.714C68.5592 457.376 72.7833 451.015 75.4473 444.292C75.7354 443.573 76.0048 442.844 76.2517 442.114C76.8653 440.296 78.5041 439.282 80.1205 439.712C82.7957 440.438 85.6579 440.793 88.5501 440.793C94.9482 440.793 101.473 439.061 106.375 435.671C115.149 429.617 121.09 418.381 121.872 406.36C122.276 400.183 121.681 394.836 120.379 389.979C119.784 387.768 120.888 385.374 122.785 384.839C129.097 383.028 135.016 378.411 138.357 372.873C144.306 363.018 145.934 351.696 142.716 342.597C142.488 341.957 142.256 341.332 142.028 340.73Z" fill="white"/>
</mask>
<g mask="url(#mask7_1410_86)">
<mask id="mask8_1410_86" style="mask-type:luminance" maskUnits="userSpaceOnUse" x="-147" y="158" width="294" height="320">
<path d="M136.655 323.182C136.202 325.977 133.482 327.309 131.473 325.749L131.406 325.693C129.748 324.409 127.526 325.068 126.568 327.118L125.857 328.641C125.008 330.482 125.475 332.79 126.949 333.939C130.908 337.052 132.955 340.299 135.11 346.398C137.583 353.384 134.949 361.705 131.653 367.164C128.397 372.548 121.221 376.809 115.504 375.728C114.595 375.556 113.791 374.972 113.252 374.089C111.329 370.909 109.192 367.77 106.988 364.511C105.772 362.722 104.403 360.71 102.506 359.082C100.965 357.769 97.0771 354.618 92.8978 352.557C92.9464 351.734 92.9951 350.929 93.025 350.136C93.2158 344.887 93.0624 339.656 92.8417 334.523C92.7257 331.937 90.8587 329.943 88.6848 330.096L88.292 330.126C86.1369 330.268 84.4906 332.453 84.5953 335.02C84.8161 339.914 84.9583 344.875 84.7787 349.706C84.6926 351.954 84.5392 354.323 83.9817 356.388C83.0912 359.636 81.0035 362.416 78.4368 363.965C76.8653 364.915 76.0123 366.973 76.349 369.016L76.4238 369.495C76.9215 372.51 79.7014 374.168 82.0174 372.798C85.8413 370.546 89.0029 366.793 90.8699 362.225C93.0063 363.43 95.457 365.136 97.687 367.033C98.6747 367.882 99.5951 369.233 100.56 370.651C109.001 383.095 114.576 391.304 113.645 405.604C113.08 414.329 108.597 422.808 102.229 427.204C96.6842 431.035 87.7569 432.031 81.0895 429.913C79.7089 429.471 78.7062 428.016 78.6164 426.321C78.0065 413.648 71.1296 401.552 61.4839 396.074C62.1836 393.601 62.67 391.102 63.1003 388.67C63.5792 385.987 64.0394 383.114 64.0095 380.094C63.9833 377.127 63.4744 374.168 62.5278 371.418C61.5588 368.6 58.6104 367.624 56.5488 369.435L56.272 369.674C54.8465 370.931 54.2328 373.18 54.9026 375.144C55.4488 376.742 55.7444 378.467 55.7631 380.203C55.7818 382.231 55.4301 384.405 55.026 386.65C54.3563 390.414 53.5706 394.35 51.9505 397.433C51.0226 399.225 49.7879 400.632 48.4933 401.466C47.1539 402.319 46.4243 404.1 46.5515 405.9L46.5889 406.397C46.8284 409.75 49.8814 411.695 52.3845 410.094C54.3675 408.829 56.1859 407.003 57.6975 404.732C57.7836 404.788 57.8733 404.867 57.9669 404.923C65.753 409.29 71.051 419.646 70.3626 429.894C70.1418 433.265 69.3374 436.704 67.9867 440.123C65.8016 445.62 62.2285 450.948 57.0652 456.395C52.1713 461.57 47.8909 464.634 43.5994 466.034C31.4432 470.007 19.605 467.489 10.2661 458.936C8.63857 457.45 7.11577 455.976 6.33005 454.289C5.66031 452.833 5.36473 450.88 5.09534 448.819C4.43309 443.685 3.99534 437.804 3.77458 431.705C2.64464 432.135 1.46606 432.364 0.257548 432.364C-1.38872 432.364 -2.97887 431.933 -4.49419 431.148C-4.49419 431.207 -4.48297 431.264 -4.48297 431.331C-4.70372 437.564 -5.14522 443.581 -5.82244 448.819C-6.09183 450.88 -6.37992 452.833 -7.06088 454.289C-7.8466 455.976 -9.36941 457.45 -10.997 458.936C-20.3246 467.489 -32.174 470.007 -44.3302 466.034C-48.6106 464.634 -52.8909 461.57 -57.796 456.395C-62.9593 450.948 -66.5325 445.62 -68.7063 440.123C-70.0645 436.704 -70.8614 433.265 -71.0897 429.894C-71.7706 419.646 -66.4726 409.29 -58.6977 404.923C-58.6004 404.867 -58.5144 404.788 -58.4283 404.732C-56.9167 407.003 -55.0946 408.829 -53.1116 410.094C-50.6235 411.695 -47.5554 409.75 -47.316 406.397L-47.2786 405.9C-47.1439 404.1 -47.8735 402.327 -49.2129 401.466C-50.515 400.632 -51.7422 399.225 -52.6813 397.433C-54.3014 394.35 -55.0871 390.414 -55.7569 386.65C-56.1497 384.405 -56.5014 382.231 -56.4827 380.203C-56.4752 378.467 -56.1759 376.742 -55.6222 375.144C-54.9599 373.18 -55.5735 370.931 -57.0028 369.674L-57.2797 369.435C-59.3375 367.624 -62.2896 368.6 -63.2549 371.418C-64.194 374.168 -64.7103 377.127 -64.7403 380.094C-64.759 383.114 -64.2988 385.987 -63.8199 388.67C-63.3896 391.102 -62.9107 393.601 -62.211 396.074C-71.8567 401.552 -78.7261 413.648 -79.3472 426.321C-79.4258 428.016 -80.4285 429.471 -81.8204 429.913C-88.4765 432.031 -97.4038 431.035 -102.949 427.204C-109.317 422.808 -113.799 414.329 -114.375 405.604C-115.303 391.304 -109.728 383.095 -101.28 370.651C-100.315 369.233 -99.4055 367.882 -98.4066 367.033C-96.1878 365.136 -93.7334 363.43 -91.5895 362.225C-89.7225 366.801 -86.5609 370.557 -82.737 372.806C-80.421 374.168 -77.6411 372.51 -77.1547 369.495L-77.0761 369.016C-76.7431 366.973 -77.5962 364.915 -79.1639 363.965C-81.7306 362.416 -83.8221 359.636 -84.7013 356.388C-85.2663 354.323 -85.4197 351.954 -85.5058 349.706C-85.6779 344.875 -85.5432 339.914 -85.3224 335.02C-85.2102 332.453 -86.8677 330.268 -89.0228 330.126L-89.4044 330.096C-91.5895 329.943 -93.4453 331.937 -93.5613 334.523C-93.7932 339.656 -93.9354 344.887 -93.7446 350.136C-93.7147 350.929 -93.6773 351.734 -93.6174 352.557C-97.8042 354.618 -101.684 357.769 -103.226 359.082C-105.123 360.71 -106.492 362.722 -107.708 364.511C-109.923 367.77 -112.056 370.909 -113.983 374.089C-114.518 374.972 -115.322 375.556 -116.224 375.728C-121.941 376.809 -129.125 372.548 -132.372 367.164C-135.668 361.705 -138.31 353.384 -135.829 346.398C-133.674 340.307 -131.635 337.052 -127.669 333.939C-126.206 332.79 -125.727 330.482 -126.577 328.641L-127.295 327.118C-128.245 325.06 -130.475 324.409 -132.125 325.693C-132.151 325.711 -132.17 325.73 -132.2 325.749C-134.202 327.32 -136.922 325.999 -137.382 323.201C-139.069 312.848 -138.935 302.963 -136.896 294.896C-133.476 281.393 -124.769 265.461 -110.593 261.237C-98.5712 257.657 -85.1054 263.692 -78.5128 275.118C-78.2659 275.549 -77.9666 275.904 -77.6336 276.181C-80.421 280.682 -82.0673 286.201 -82.318 291.794C-82.4489 294.754 -80.2564 297.1 -77.8057 296.658L-77.4203 296.591C-75.5533 296.258 -74.1951 294.38 -74.0791 292.139C-73.8883 288.288 -72.6985 284.495 -70.6968 281.498C-68.6876 278.489 -65.8515 276.259 -62.7386 275.167C-60.9277 274.516 -59.7004 272.522 -59.8464 270.281L-59.8763 269.832C-60.0746 266.891 -62.4879 264.878 -64.875 265.701C-67.307 266.535 -69.6342 267.837 -71.7407 269.513C-79.1863 256.613 -92.8915 249.208 -106.541 250.559C-108.464 250.75 -110.133 248.999 -110.207 246.709C-110.409 241.411 -110.316 236.075 -109.549 230.886C-108.247 222.112 -104.999 214.782 -100.408 210.255C-98.6273 208.5 -96.446 206.948 -93.7521 205.511C-83.7547 200.187 -72.6985 200.052 -64.1865 205.167C-56.0637 210.053 -50.6684 220.032 -50.5262 229.842C-50.515 230.673 -50.298 231.44 -49.9425 232.091C-50.6908 232.974 -51.3868 233.92 -52.0191 234.927C-53.5531 237.351 -52.7674 240.838 -50.4214 242.024L-50.0585 242.215C-48.4085 243.05 -46.4854 242.473 -45.4115 240.779C-43.219 237.321 -39.788 234.927 -36.1775 234.343C-34.4077 234.055 -33.0346 232.33 -32.855 230.224L-32.8063 229.756C-32.5482 226.755 -34.7033 224.23 -37.2213 224.63C-39.0322 224.907 -40.8057 225.472 -42.5006 226.288C-43.7653 214.105 -50.5936 202.361 -60.46 196.43C-61.4365 195.847 -62.4318 195.323 -63.4569 194.844C-65.5447 193.875 -66.293 190.773 -64.9124 188.663C-55.6297 174.479 -44.4163 168.081 -30.2022 168.694C-28.9563 168.75 -24.7882 169.719 -23.8229 170.236C-22.6069 170.962 -18.9664 173.558 -17.9225 174.509C-17.844 174.595 -17.7691 174.681 -17.6831 174.767C-16.1491 176.585 -14.6562 178.108 -13.3429 179.459C-10.0017 182.89 -7.79796 185.149 -6.37992 189.939C-5.09658 194.286 -4.78977 199.229 -4.55032 204.074V220.522C-5.33604 223.01 -6.26394 225.472 -7.33776 227.896C-10.2786 234.467 -15.1426 240.666 -22.2028 246.832C-27.1566 251.161 -33.0084 253.058 -38.1043 252.13C-39.5411 251.861 -41.034 252.561 -41.7523 254.076C-42.987 256.669 -41.6176 259.726 -39.2829 260.167C-38.0557 260.395 -36.8023 260.511 -35.5376 260.511C-29.6447 260.511 -23.4376 258.049 -18.1321 253.414C-12.3776 248.385 -7.8915 243.259 -4.55032 237.879V372.671C-3.02751 371.859 -1.40743 371.418 0.257548 371.418C1.93375 371.418 3.54261 371.859 5.07664 372.671V234.964C8.53381 241.422 13.5512 247.483 20.3346 253.414C25.6513 258.049 31.8585 260.511 37.7477 260.511C38.9637 260.511 40.161 260.407 41.3395 260.193C43.1991 259.86 44.6545 257.791 44.3964 255.599C44.1157 253.223 42.2861 251.745 40.4004 252.112C35.2857 253.077 29.3966 251.191 24.4129 246.832C17.3563 240.666 12.4886 234.467 9.54776 227.896C7.54605 223.414 6.05318 218.76 5.07664 214.113V207.456C5.48821 202.679 5.40963 197.983 4.81847 193.531C5.03922 192.296 5.31609 191.099 5.66032 189.939C7.06713 185.149 9.28211 182.89 12.6158 179.459C13.9254 178.119 15.4107 176.596 16.9448 174.785C17.0308 174.688 17.1169 174.602 17.2029 174.509C18.2356 173.558 21.8761 170.962 23.0921 170.236C24.0686 169.719 28.2367 168.75 29.4714 168.694C43.6967 168.081 54.9026 174.467 64.1928 188.663C65.5734 190.773 64.8251 193.875 62.7261 194.844C61.7047 195.323 60.7057 195.847 59.7404 196.43C49.8627 202.361 43.0344 214.105 41.7698 226.288C40.0749 225.472 38.3014 224.907 36.483 224.623C33.9725 224.23 31.8173 226.755 32.0867 229.756L32.1241 230.224C32.315 232.33 33.6881 234.055 35.4578 234.343C39.0609 234.927 42.4994 237.321 44.6807 240.779C45.7545 242.473 47.6889 243.05 49.3277 242.215L49.7018 242.024C52.0478 240.838 52.8223 237.351 51.2995 234.927C50.6597 233.92 49.96 232.974 49.2117 232.091C49.5672 231.44 49.7879 230.673 49.8066 229.842C49.9488 220.032 55.3441 210.053 63.4669 205.167C71.9714 200.052 83.0239 200.187 93.0325 205.511C95.7264 206.948 97.9002 208.5 99.6812 210.255C104.28 214.782 107.516 222.112 108.818 230.886C109.585 236.075 109.682 241.411 109.488 246.709C109.402 248.999 107.744 250.75 105.821 250.559C92.172 249.208 78.4667 256.613 71.0211 269.513C68.9146 267.837 66.5799 266.535 64.1441 265.701C61.7608 264.878 59.3475 266.891 59.1567 269.832L59.1268 270.281C58.9734 272.522 60.2006 274.516 62.019 275.167C65.1207 276.259 67.968 278.489 69.9697 281.498C71.9714 284.506 73.1575 288.296 73.3483 292.139C73.4755 294.38 74.8262 296.258 76.7007 296.591L77.0749 296.658C79.5368 297.1 81.7293 294.743 81.5984 291.794C81.3402 286.201 79.7014 280.674 76.9028 276.181C77.247 275.904 77.5463 275.549 77.7858 275.118C84.3746 263.692 97.8404 257.657 109.873 261.237C124.039 265.461 132.745 281.393 136.165 294.896C138.215 302.963 138.339 312.829 136.655 323.182ZM142.028 340.73C141.661 339.802 141.635 338.747 141.912 337.77C146.536 321.517 147.341 304.983 144.067 292.071C139.794 275.193 130.687 261.746 119.433 255.079C118.194 254.342 117.438 252.819 117.536 251.18C117.955 244.037 118.041 236.622 116.941 229.191C115.302 218.127 111.052 208.721 104.949 202.716C102.585 200.378 99.786 198.376 96.4036 196.565C90.361 193.358 83.9742 191.731 77.7558 191.663C76.6147 191.641 75.5446 190.953 74.931 189.804C63.3397 168.197 48.3512 158.072 29.1758 158.903C27.2115 158.989 21.6067 160.16 19.3955 161.481C18.9166 161.769 12.9413 165.667 11.2651 167.677C9.89198 169.308 8.54503 170.703 7.23176 172.047C4.4069 174.939 1.713 177.708 -0.363546 182.055C-2.43261 177.708 -5.134 174.939 -7.95137 172.047C-9.26464 170.703 -10.6228 169.308 -11.9922 167.677C-13.6684 165.667 -19.6474 161.769 -20.1263 161.481C-22.3375 160.16 -27.9423 158.989 -29.8954 158.903C-49.0708 158.072 -64.0705 168.197 -75.6506 189.804C-76.2642 190.953 -77.3343 191.641 -78.4867 191.663C-84.7013 191.731 -91.0919 193.358 -97.1344 196.565C-100.517 198.376 -103.312 200.378 -105.676 202.716C-111.771 208.721 -116.033 218.127 -117.672 229.191C-118.772 236.622 -118.686 244.037 -118.255 251.18C-118.158 252.819 -118.925 254.342 -120.16 255.079C-131.407 261.746 -140.514 275.193 -144.798 292.071C-148.06 304.983 -147.267 321.517 -142.631 337.77C-142.355 338.747 -142.392 339.802 -142.747 340.73C-142.976 341.332 -143.208 341.957 -143.436 342.597C-146.665 351.696 -145.037 363.018 -139.077 372.873C-135.743 378.411 -129.824 383.028 -123.512 384.839C-121.608 385.374 -120.515 387.757 -121.11 389.979C-122.401 394.836 -122.996 400.183 -122.592 406.36C-121.817 418.381 -115.879 429.617 -107.094 435.671C-102.193 439.061 -95.679 440.793 -89.281 440.793C-86.3888 440.793 -83.5228 440.438 -80.8401 439.712C-79.2312 439.282 -77.5962 440.296 -76.9713 442.114C-76.7244 442.844 -76.4625 443.573 -76.1781 444.292C-73.5029 451.015 -69.29 457.376 -63.2736 463.714C-57.3957 469.932 -52.0677 473.666 -46.5228 475.477C-42.1153 476.914 -37.6928 477.621 -33.3526 477.621C-23.3702 477.621 -13.8143 473.887 -5.95713 466.692C-3.94793 464.862 -1.88635 462.835 -0.363546 460.055C1.15926 462.835 3.22832 464.862 5.23004 466.692C13.0835 473.887 22.6431 477.621 32.6218 477.621C36.9732 477.621 41.3957 476.914 45.792 475.477C51.3406 473.666 56.6648 469.932 62.554 463.714C68.5592 457.376 72.7833 451.015 75.4473 444.292C75.7354 443.573 76.0048 442.844 76.2517 442.114C76.8653 440.296 78.5041 439.282 80.1205 439.712C82.7957 440.438 85.6579 440.793 88.5501 440.793C94.9482 440.793 101.473 439.061 106.375 435.671C115.149 429.617 121.09 418.381 121.872 406.36C122.276 400.183 121.681 394.836 120.379 389.979C119.784 387.768 120.888 385.374 122.785 384.839C129.097 383.028 135.016 378.411 138.357 372.873C144.306 363.018 145.934 351.696 142.716 342.597C142.488 341.957 142.256 341.332 142.028 340.73Z" fill="white"/>
</mask>
<g mask="url(#mask8_1410_86)">
<path d="M147.341 158.072H-148.061V477.621H147.341V158.072Z" fill="url(#paint2_linear_1410_86)"/>
</g>
</g>
</g>
<mask id="mask9_1410_86" style="mask-type:luminance" maskUnits="userSpaceOnUse" x="40" y="286" width="19" height="55">
<path d="M40.2285 286.393H58.4273V340.989H40.2285V286.393Z" fill="white"/>
</mask>
<g mask="url(#mask9_1410_86)">
<mask id="mask10_1410_86" style="mask-type:luminance" maskUnits="userSpaceOnUse" x="40" y="286" width="18" height="55">
<path d="M49.5492 317.569C48.0564 310.718 48.5802 303.403 51.0159 296.956C51.4162 295.871 51.8465 294.936 52.288 294.128C53.2084 292.452 53.055 290.259 51.9999 288.71L51.753 288.343C50.0955 285.923 46.904 286.035 45.4597 288.632C44.7414 289.915 44.0903 291.344 43.4842 292.942C40.2852 301.42 39.608 311.036 41.5611 320.019C43.1512 327.308 46.425 333.968 50.9373 339.187C52.6248 341.14 55.3897 340.852 56.8003 338.611L57.0285 338.248C58.1996 336.4 58.0836 333.773 56.6843 332.164C53.2459 328.18 50.754 323.114 49.5492 317.569Z" fill="white"/>
</mask>
<g mask="url(#mask10_1410_86)">
<mask id="mask11_1410_86" style="mask-type:luminance" maskUnits="userSpaceOnUse" x="40" y="286" width="18" height="55">
<path d="M49.5492 317.569C48.0564 310.718 48.5802 303.403 51.0159 296.956C51.4162 295.871 51.8465 294.936 52.288 294.128C53.2084 292.452 53.055 290.259 51.9999 288.71L51.753 288.343C50.0955 285.923 46.904 286.035 45.4597 288.632C44.7414 289.915 44.0903 291.344 43.4842 292.942C40.2852 301.42 39.608 311.036 41.5611 320.019C43.1512 327.308 46.425 333.968 50.9373 339.187C52.6248 341.14 55.3897 340.852 56.8003 338.611L57.0285 338.248C58.1996 336.4 58.0836 333.773 56.6843 332.164C53.2459 328.18 50.754 323.114 49.5492 317.569Z" fill="white"/>
</mask>
<g mask="url(#mask11_1410_86)">
<path d="M58.2001 285.925H39.6084V341.143H58.2001V285.925Z" fill="url(#paint3_linear_1410_86)"/>
</g>
</g>
</g>
</g>
<defs>
<linearGradient id="paint0_linear_1410_86" x1="157.792" y1="-64.9152" x2="-157.698" y2="701.724" gradientUnits="userSpaceOnUse">
<stop stop-color="#B03AAB"/>
<stop offset="0.0625" stop-color="#B03AAB"/>
<stop offset="0.078125" stop-color="#B03AAB"/>
<stop offset="0.0820312" stop-color="#AE3CAB"/>
<stop offset="0.0859375" stop-color="#AC3EAC"/>
<stop offset="0.0898437" stop-color="#AB3FAC"/>
<stop offset="0.09375" stop-color="#A941AD"/>
<stop offset="0.0976562" stop-color="#A743AD"/>
<stop offset="0.101562" stop-color="#A645AD"/>
<stop offset="0.105469" stop-color="#A446AE"/>
<stop offset="0.109375" stop-color="#A248AE"/>
<stop offset="0.113281" stop-color="#A04AAE"/>
<stop offset="0.117187" stop-color="#9F4BAF"/>
<stop offset="0.121094" stop-color="#9D4DAF"/>
<stop offset="0.125" stop-color="#9B4FAF"/>
<stop offset="0.128906" stop-color="#9A51B0"/>
<stop offset="0.132812" stop-color="#9852B0"/>
<stop offset="0.136719" stop-color="#9654B0"/>
<stop offset="0.140625" stop-color="#9556B1"/>
<stop offset="0.144531" stop-color="#9358B1"/>
<stop offset="0.148437" stop-color="#9159B2"/>
<stop offset="0.152344" stop-color="#905BB2"/>
<stop offset="0.15625" stop-color="#8E5DB2"/>
<stop offset="0.160156" stop-color="#8C5EB3"/>
<stop offset="0.164062" stop-color="#8B60B3"/>
<stop offset="0.167969" stop-color="#8962B3"/>
<stop offset="0.171875" stop-color="#8764B4"/>
<stop offset="0.175781" stop-color="#8665B4"/>
<stop offset="0.179687" stop-color="#8467B4"/>
<stop offset="0.183594" stop-color="#8269B5"/>
<stop offset="0.1875" stop-color="#806AB5"/>
<stop offset="0.191406" stop-color="#7F6CB5"/>
<stop offset="0.195312" stop-color="#7D6EB6"/>
<stop offset="0.199219" stop-color="#7B70B6"/>
<stop offset="0.203125" stop-color="#7A71B7"/>
<stop offset="0.207031" stop-color="#7873B7"/>
<stop offset="0.210937" stop-color="#7675B7"/>
<stop offset="0.214844" stop-color="#7576B8"/>
<stop offset="0.21875" stop-color="#7378B8"/>
<stop offset="0.222656" stop-color="#717AB8"/>
<stop offset="0.226562" stop-color="#707CB9"/>
<stop offset="0.230469" stop-color="#6E7DB9"/>
<stop offset="0.234375" stop-color="#6C7FB9"/>
<stop offset="0.238281" stop-color="#6B81BA"/>
<stop offset="0.242187" stop-color="#6982BA"/>
<stop offset="0.246094" stop-color="#6784BB"/>
<stop offset="0.25" stop-color="#6586BB"/>
<stop offset="0.253906" stop-color="#6488BB"/>
<stop offset="0.257812" stop-color="#6289BC"/>
<stop offset="0.261719" stop-color="#608BBC"/>
<stop offset="0.265625" stop-color="#5F8DBC"/>
<stop offset="0.269531" stop-color="#5D8EBD"/>
<stop offset="0.273437" stop-color="#5B90BD"/>
<stop offset="0.277344" stop-color="#5A92BD"/>
<stop offset="0.28125" stop-color="#5894BE"/>
<stop offset="0.285156" stop-color="#5695BE"/>
<stop offset="0.289062" stop-color="#5597BE"/>
<stop offset="0.292969" stop-color="#5399BF"/>
<stop offset="0.296875" stop-color="#519ABF"/>
<stop offset="0.300781" stop-color="#509CC0"/>
<stop offset="0.304687" stop-color="#4E9EC0"/>
<stop offset="0.308594" stop-color="#4CA0C0"/>
<stop offset="0.3125" stop-color="#4AA1C1"/>
<stop offset="0.316406" stop-color="#49A3C1"/>
<stop offset="0.320312" stop-color="#47A5C1"/>
<stop offset="0.324219" stop-color="#45A7C2"/>
<stop offset="0.328125" stop-color="#44A8C2"/>
<stop offset="0.332031" stop-color="#42AAC2"/>
<stop offset="0.335938" stop-color="#40ACC3"/>
<stop offset="0.339844" stop-color="#3FADC3"/>
<stop offset="0.34375" stop-color="#3DAFC4"/>
<stop offset="0.347656" stop-color="#3BB1C4"/>
<stop offset="0.351562" stop-color="#3AB3C4"/>
<stop offset="0.355469" stop-color="#38B4C5"/>
<stop offset="0.359375" stop-color="#36B6C5"/>
<stop offset="0.363281" stop-color="#35B8C5"/>
<stop offset="0.367187" stop-color="#33B9C6"/>
<stop offset="0.371094" stop-color="#31BBC6"/>
<stop offset="0.375" stop-color="#2FBDC6"/>
<stop offset="0.378906" stop-color="#2EBFC7"/>
<stop offset="0.382812" stop-color="#2CC0C7"/>
<stop offset="0.386719" stop-color="#2AC2C7"/>
<stop offset="0.390625" stop-color="#29C4C8"/>
<stop offset="0.394531" stop-color="#27C5C8"/>
<stop offset="0.398437" stop-color="#25C7C9"/>
<stop offset="0.402344" stop-color="#24C9C9"/>
<stop offset="0.40625" stop-color="#22CBC9"/>
<stop offset="0.410156" stop-color="#20CCCA"/>
<stop offset="0.414062" stop-color="#1FCECA"/>
<stop offset="0.417969" stop-color="#1DD0CA"/>
<stop offset="0.421875" stop-color="#1BD1CB"/>
<stop offset="0.425781" stop-color="#1AD3CB"/>
<stop offset="0.429687" stop-color="#18D5CB"/>
<stop offset="0.433594" stop-color="#16D7CC"/>
<stop offset="0.4375" stop-color="#14D8CC"/>
<stop offset="0.441406" stop-color="#13DACC"/>
<stop offset="0.445312" stop-color="#11DCCD"/>
<stop offset="0.449219" stop-color="#0FDDCD"/>
<stop offset="0.453125" stop-color="#0EDFCE"/>
<stop offset="0.457031" stop-color="#0CE1CE"/>
<stop offset="0.460938" stop-color="#0AE3CE"/>
<stop offset="0.464844" stop-color="#09E4CF"/>
<stop offset="0.46875" stop-color="#07E6CF"/>
<stop offset="0.472656" stop-color="#07E5CF"/>
<stop offset="0.476563" stop-color="#07E4CF"/>
<stop offset="0.480469" stop-color="#07E3D0"/>
<stop offset="0.484375" stop-color="#07E2D0"/>
<stop offset="0.488281" stop-color="#08E1D0"/>
<stop offset="0.492187" stop-color="#08E0D0"/>
<stop offset="0.496094" stop-color="#08DFD1"/>
<stop offset="0.5" stop-color="#08DED1"/>
<stop offset="0.503906" stop-color="#08DED1"/>
<stop offset="0.507812" stop-color="#08DDD1"/>
<stop offset="0.511719" stop-color="#08DCD2"/>
<stop offset="0.515625" stop-color="#08DBD2"/>
<stop offset="0.519531" stop-color="#09DAD2"/>
<stop offset="0.523437" stop-color="#09D9D2"/>
<stop offset="0.527344" stop-color="#09D8D3"/>
<stop offset="0.53125" stop-color="#09D7D3"/>
<stop offset="0.535156" stop-color="#09D6D3"/>
<stop offset="0.539062" stop-color="#09D5D3"/>
<stop offset="0.542969" stop-color="#09D4D4"/>
<stop offset="0.546875" stop-color="#09D3D4"/>
<stop offset="0.550781" stop-color="#0AD2D4"/>
<stop offset="0.554687" stop-color="#0AD1D4"/>
<stop offset="0.558594" stop-color="#0AD0D5"/>
<stop offset="0.5625" stop-color="#0ACFD5"/>
<stop offset="0.566406" stop-color="#0ACED5"/>
<stop offset="0.570312" stop-color="#0ACED5"/>
<stop offset="0.574219" stop-color="#0ACDD6"/>
<stop offset="0.578125" stop-color="#0ACCD6"/>
<stop offset="0.582031" stop-color="#0BCBD6"/>
<stop offset="0.585937" stop-color="#0BCAD6"/>
<stop offset="0.589844" stop-color="#0BC9D7"/>
<stop offset="0.59375" stop-color="#0BC8D7"/>
<stop offset="0.597656" stop-color="#0BC7D7"/>
<stop offset="0.601562" stop-color="#0BC6D7"/>
<stop offset="0.605469" stop-color="#0BC5D8"/>
<stop offset="0.609375" stop-color="#0BC4D8"/>
<stop offset="0.613281" stop-color="#0CC3D8"/>
<stop offset="0.617188" stop-color="#0CC2D8"/>
<stop offset="0.621094" stop-color="#0CC1D9"/>
<stop offset="0.625" stop-color="#0CC0D9"/>
<stop offset="0.628906" stop-color="#0CBFD9"/>
<stop offset="0.632812" stop-color="#0CBFD9"/>
<stop offset="0.636719" stop-color="#0CBEDA"/>
<stop offset="0.640625" stop-color="#0CBDDA"/>
<stop offset="0.644531" stop-color="#0DBCDA"/>
<stop offset="0.648438" stop-color="#0DBBDA"/>
<stop offset="0.652344" stop-color="#0DBADB"/>
<stop offset="0.65625" stop-color="#0DB9DB"/>
<stop offset="0.660156" stop-color="#0DB8DB"/>
<stop offset="0.664063" stop-color="#0DB7DB"/>
<stop offset="0.667969" stop-color="#0DB6DC"/>
<stop offset="0.671875" stop-color="#0DB5DC"/>
<stop offset="0.675781" stop-color="#0EB4DC"/>
<stop offset="0.679688" stop-color="#0EB3DC"/>
<stop offset="0.683594" stop-color="#0EB2DD"/>
<stop offset="0.6875" stop-color="#0EB1DD"/>
<stop offset="0.691406" stop-color="#0EB0DD"/>
<stop offset="0.695313" stop-color="#0EAFDD"/>
<stop offset="0.699219" stop-color="#0EAFDE"/>
<stop offset="0.703125" stop-color="#0EAEDE"/>
<stop offset="0.707031" stop-color="#0FADDE"/>
<stop offset="0.710938" stop-color="#0FACDE"/>
<stop offset="0.714844" stop-color="#0FABDF"/>
<stop offset="0.71875" stop-color="#0FAADF"/>
<stop offset="0.722656" stop-color="#0FA9DF"/>
<stop offset="0.726563" stop-color="#0FA8DF"/>
<stop offset="0.730469" stop-color="#0FA7E0"/>
<stop offset="0.734375" stop-color="#0FA6E0"/>
<stop offset="0.738281" stop-color="#10A5E0"/>
<stop offset="0.742188" stop-color="#10A4E0"/>
<stop offset="0.746094" stop-color="#10A3E1"/>
<stop offset="0.75" stop-color="#10A2E1"/>
<stop offset="0.753906" stop-color="#10A1E1"/>
<stop offset="0.757812" stop-color="#10A0E1"/>
<stop offset="0.761719" stop-color="#109FE2"/>
<stop offset="0.765625" stop-color="#109FE2"/>
<stop offset="0.769531" stop-color="#119EE2"/>
<stop offset="0.773437" stop-color="#119DE2"/>
<stop offset="0.777344" stop-color="#119CE2"/>
<stop offset="0.78125" stop-color="#119BE3"/>
<stop offset="0.785156" stop-color="#119AE3"/>
<stop offset="0.789062" stop-color="#1199E3"/>
<stop offset="0.792969" stop-color="#1198E3"/>
<stop offset="0.796875" stop-color="#1197E4"/>
<stop offset="0.800781" stop-color="#1196E4"/>
<stop offset="0.804687" stop-color="#1295E4"/>
<stop offset="0.808594" stop-color="#1294E4"/>
<stop offset="0.8125" stop-color="#1293E5"/>
<stop offset="0.816406" stop-color="#1292E5"/>
<stop offset="0.820312" stop-color="#1291E5"/>
<stop offset="0.824219" stop-color="#1290E5"/>
<stop offset="0.828125" stop-color="#1290E6"/>
<stop offset="0.832031" stop-color="#128FE6"/>
<stop offset="0.835937" stop-color="#138EE6"/>
<stop offset="0.839844" stop-color="#138DE6"/>
<stop offset="0.84375" stop-color="#138CE7"/>
<stop offset="0.847656" stop-color="#138BE7"/>
<stop offset="0.851562" stop-color="#138AE7"/>
<stop offset="0.855469" stop-color="#1389E7"/>
<stop offset="0.859375" stop-color="#1388E8"/>
<stop offset="0.863281" stop-color="#1387E8"/>
<stop offset="0.867188" stop-color="#1486E8"/>
<stop offset="0.871094" stop-color="#1485E8"/>
<stop offset="0.875" stop-color="#1484E9"/>
<stop offset="0.878906" stop-color="#1484E9"/>
<stop offset="0.882812" stop-color="#1483E9"/>
<stop offset="0.890625" stop-color="#1483E9"/>
<stop offset="0.90625" stop-color="#1483E9"/>
<stop offset="0.9375" stop-color="#1483E9"/>
<stop offset="1" stop-color="#1483E9"/>
</linearGradient>
<linearGradient id="paint1_linear_1410_86" x1="157.792" y1="-64.9152" x2="-157.698" y2="701.724" gradientUnits="userSpaceOnUse">
<stop stop-color="#B03AAB"/>
<stop offset="0.0625" stop-color="#B03AAB"/>
<stop offset="0.078125" stop-color="#B03AAB"/>
<stop offset="0.0820312" stop-color="#AE3CAB"/>
<stop offset="0.0859375" stop-color="#AC3EAC"/>
<stop offset="0.0898437" stop-color="#AB3FAC"/>
<stop offset="0.09375" stop-color="#A941AD"/>
<stop offset="0.0976562" stop-color="#A743AD"/>
<stop offset="0.101562" stop-color="#A645AD"/>
<stop offset="0.105469" stop-color="#A446AE"/>
<stop offset="0.109375" stop-color="#A248AE"/>
<stop offset="0.113281" stop-color="#A04AAE"/>
<stop offset="0.117187" stop-color="#9F4BAF"/>
<stop offset="0.121094" stop-color="#9D4DAF"/>
<stop offset="0.125" stop-color="#9B4FAF"/>
<stop offset="0.128906" stop-color="#9A51B0"/>
<stop offset="0.132812" stop-color="#9852B0"/>
<stop offset="0.136719" stop-color="#9654B0"/>
<stop offset="0.140625" stop-color="#9556B1"/>
<stop offset="0.144531" stop-color="#9358B1"/>
<stop offset="0.148437" stop-color="#9159B2"/>
<stop offset="0.152344" stop-color="#905BB2"/>
<stop offset="0.15625" stop-color="#8E5DB2"/>
<stop offset="0.160156" stop-color="#8C5EB3"/>
<stop offset="0.164062" stop-color="#8B60B3"/>
<stop offset="0.167969" stop-color="#8962B3"/>
<stop offset="0.171875" stop-color="#8764B4"/>
<stop offset="0.175781" stop-color="#8665B4"/>
<stop offset="0.179687" stop-color="#8467B4"/>
<stop offset="0.183594" stop-color="#8269B5"/>
<stop offset="0.1875" stop-color="#806AB5"/>
<stop offset="0.191406" stop-color="#7F6CB5"/>
<stop offset="0.195312" stop-color="#7D6EB6"/>
<stop offset="0.199219" stop-color="#7B70B6"/>
<stop offset="0.203125" stop-color="#7A71B7"/>
<stop offset="0.207031" stop-color="#7873B7"/>
<stop offset="0.210937" stop-color="#7675B7"/>
<stop offset="0.214844" stop-color="#7576B8"/>
<stop offset="0.21875" stop-color="#7378B8"/>
<stop offset="0.222656" stop-color="#717AB8"/>
<stop offset="0.226562" stop-color="#707CB9"/>
<stop offset="0.230469" stop-color="#6E7DB9"/>
<stop offset="0.234375" stop-color="#6C7FB9"/>
<stop offset="0.238281" stop-color="#6B81BA"/>
<stop offset="0.242187" stop-color="#6982BA"/>
<stop offset="0.246094" stop-color="#6784BB"/>
<stop offset="0.25" stop-color="#6586BB"/>
<stop offset="0.253906" stop-color="#6488BB"/>
<stop offset="0.257812" stop-color="#6289BC"/>
<stop offset="0.261719" stop-color="#608BBC"/>
<stop offset="0.265625" stop-color="#5F8DBC"/>
<stop offset="0.269531" stop-color="#5D8EBD"/>
<stop offset="0.273437" stop-color="#5B90BD"/>
<stop offset="0.277344" stop-color="#5A92BD"/>
<stop offset="0.28125" stop-color="#5894BE"/>
<stop offset="0.285156" stop-color="#5695BE"/>
<stop offset="0.289062" stop-color="#5597BE"/>
<stop offset="0.292969" stop-color="#5399BF"/>
<stop offset="0.296875" stop-color="#519ABF"/>
<stop offset="0.300781" stop-color="#509CC0"/>
<stop offset="0.304687" stop-color="#4E9EC0"/>
<stop offset="0.308594" stop-color="#4CA0C0"/>
<stop offset="0.3125" stop-color="#4AA1C1"/>
<stop offset="0.316406" stop-color="#49A3C1"/>
<stop offset="0.320312" stop-color="#47A5C1"/>
<stop offset="0.324219" stop-color="#45A7C2"/>
<stop offset="0.328125" stop-color="#44A8C2"/>
<stop offset="0.332031" stop-color="#42AAC2"/>
<stop offset="0.335938" stop-color="#40ACC3"/>
<stop offset="0.339844" stop-color="#3FADC3"/>
<stop offset="0.34375" stop-color="#3DAFC4"/>
<stop offset="0.347656" stop-color="#3BB1C4"/>
<stop offset="0.351562" stop-color="#3AB3C4"/>
<stop offset="0.355469" stop-color="#38B4C5"/>
<stop offset="0.359375" stop-color="#36B6C5"/>
<stop offset="0.363281" stop-color="#35B8C5"/>
<stop offset="0.367187" stop-color="#33B9C6"/>
<stop offset="0.371094" stop-color="#31BBC6"/>
<stop offset="0.375" stop-color="#2FBDC6"/>
<stop offset="0.378906" stop-color="#2EBFC7"/>
<stop offset="0.382812" stop-color="#2CC0C7"/>
<stop offset="0.386719" stop-color="#2AC2C7"/>
<stop offset="0.390625" stop-color="#29C4C8"/>
<stop offset="0.394531" stop-color="#27C5C8"/>
<stop offset="0.398437" stop-color="#25C7C9"/>
<stop offset="0.402344" stop-color="#24C9C9"/>
<stop offset="0.40625" stop-color="#22CBC9"/>
<stop offset="0.410156" stop-color="#20CCCA"/>
<stop offset="0.414062" stop-color="#1FCECA"/>
<stop offset="0.417969" stop-color="#1DD0CA"/>
<stop offset="0.421875" stop-color="#1BD1CB"/>
<stop offset="0.425781" stop-color="#1AD3CB"/>
<stop offset="0.429687" stop-color="#18D5CB"/>
<stop offset="0.433594" stop-color="#16D7CC"/>
<stop offset="0.4375" stop-color="#14D8CC"/>
<stop offset="0.441406" stop-color="#13DACC"/>
<stop offset="0.445312" stop-color="#11DCCD"/>
<stop offset="0.449219" stop-color="#0FDDCD"/>
<stop offset="0.453125" stop-color="#0EDFCE"/>
<stop offset="0.457031" stop-color="#0CE1CE"/>
<stop offset="0.460938" stop-color="#0AE3CE"/>
<stop offset="0.464844" stop-color="#09E4CF"/>
<stop offset="0.46875" stop-color="#07E6CF"/>
<stop offset="0.472656" stop-color="#07E5CF"/>
<stop offset="0.476563" stop-color="#07E4CF"/>
<stop offset="0.480469" stop-color="#07E3D0"/>
<stop offset="0.484375" stop-color="#07E2D0"/>
<stop offset="0.488281" stop-color="#08E1D0"/>
<stop offset="0.492187" stop-color="#08E0D0"/>
<stop offset="0.496094" stop-color="#08DFD1"/>
<stop offset="0.5" stop-color="#08DED1"/>
<stop offset="0.503906" stop-color="#08DED1"/>
<stop offset="0.507812" stop-color="#08DDD1"/>
<stop offset="0.511719" stop-color="#08DCD2"/>
<stop offset="0.515625" stop-color="#08DBD2"/>
<stop offset="0.519531" stop-color="#09DAD2"/>
<stop offset="0.523437" stop-color="#09D9D2"/>
<stop offset="0.527344" stop-color="#09D8D3"/>
<stop offset="0.53125" stop-color="#09D7D3"/>
<stop offset="0.535156" stop-color="#09D6D3"/>
<stop offset="0.539062" stop-color="#09D5D3"/>
<stop offset="0.542969" stop-color="#09D4D4"/>
<stop offset="0.546875" stop-color="#09D3D4"/>
<stop offset="0.550781" stop-color="#0AD2D4"/>
<stop offset="0.554687" stop-color="#0AD1D4"/>
<stop offset="0.558594" stop-color="#0AD0D5"/>
<stop offset="0.5625" stop-color="#0ACFD5"/>
<stop offset="0.566406" stop-color="#0ACED5"/>
<stop offset="0.570312" stop-color="#0ACED5"/>
<stop offset="0.574219" stop-color="#0ACDD6"/>
<stop offset="0.578125" stop-color="#0ACCD6"/>
<stop offset="0.582031" stop-color="#0BCBD6"/>
<stop offset="0.585937" stop-color="#0BCAD6"/>
<stop offset="0.589844" stop-color="#0BC9D7"/>
<stop offset="0.59375" stop-color="#0BC8D7"/>
<stop offset="0.597656" stop-color="#0BC7D7"/>
<stop offset="0.601562" stop-color="#0BC6D7"/>
<stop offset="0.605469" stop-color="#0BC5D8"/>
<stop offset="0.609375" stop-color="#0BC4D8"/>
<stop offset="0.613281" stop-color="#0CC3D8"/>
<stop offset="0.617188" stop-color="#0CC2D8"/>
<stop offset="0.621094" stop-color="#0CC1D9"/>
<stop offset="0.625" stop-color="#0CC0D9"/>
<stop offset="0.628906" stop-color="#0CBFD9"/>
<stop offset="0.632812" stop-color="#0CBFD9"/>
<stop offset="0.636719" stop-color="#0CBEDA"/>
<stop offset="0.640625" stop-color="#0CBDDA"/>
<stop offset="0.644531" stop-color="#0DBCDA"/>
<stop offset="0.648438" stop-color="#0DBBDA"/>
<stop offset="0.652344" stop-color="#0DBADB"/>
<stop offset="0.65625" stop-color="#0DB9DB"/>
<stop offset="0.660156" stop-color="#0DB8DB"/>
<stop offset="0.664063" stop-color="#0DB7DB"/>
<stop offset="0.667969" stop-color="#0DB6DC"/>
<stop offset="0.671875" stop-color="#0DB5DC"/>
<stop offset="0.675781" stop-color="#0EB4DC"/>
<stop offset="0.679688" stop-color="#0EB3DC"/>
<stop offset="0.683594" stop-color="#0EB2DD"/>
<stop offset="0.6875" stop-color="#0EB1DD"/>
<stop offset="0.691406" stop-color="#0EB0DD"/>
<stop offset="0.695313" stop-color="#0EAFDD"/>
<stop offset="0.699219" stop-color="#0EAFDE"/>
<stop offset="0.703125" stop-color="#0EAEDE"/>
<stop offset="0.707031" stop-color="#0FADDE"/>
<stop offset="0.710938" stop-color="#0FACDE"/>
<stop offset="0.714844" stop-color="#0FABDF"/>
<stop offset="0.71875" stop-color="#0FAADF"/>
<stop offset="0.722656" stop-color="#0FA9DF"/>
<stop offset="0.726563" stop-color="#0FA8DF"/>
<stop offset="0.730469" stop-color="#0FA7E0"/>
<stop offset="0.734375" stop-color="#0FA6E0"/>
<stop offset="0.738281" stop-color="#10A5E0"/>
<stop offset="0.742188" stop-color="#10A4E0"/>
<stop offset="0.746094" stop-color="#10A3E1"/>
<stop offset="0.75" stop-color="#10A2E1"/>
<stop offset="0.753906" stop-color="#10A1E1"/>
<stop offset="0.757812" stop-color="#10A0E1"/>
<stop offset="0.761719" stop-color="#109FE2"/>
<stop offset="0.765625" stop-color="#109FE2"/>
<stop offset="0.769531" stop-color="#119EE2"/>
<stop offset="0.773437" stop-color="#119DE2"/>
<stop offset="0.777344" stop-color="#119CE2"/>
<stop offset="0.78125" stop-color="#119BE3"/>
<stop offset="0.785156" stop-color="#119AE3"/>
<stop offset="0.789062" stop-color="#1199E3"/>
<stop offset="0.792969" stop-color="#1198E3"/>
<stop offset="0.796875" stop-color="#1197E4"/>
<stop offset="0.800781" stop-color="#1196E4"/>
<stop offset="0.804687" stop-color="#1295E4"/>
<stop offset="0.808594" stop-color="#1294E4"/>
<stop offset="0.8125" stop-color="#1293E5"/>
<stop offset="0.816406" stop-color="#1292E5"/>
<stop offset="0.820312" stop-color="#1291E5"/>
<stop offset="0.824219" stop-color="#1290E5"/>
<stop offset="0.828125" stop-color="#1290E6"/>
<stop offset="0.832031" stop-color="#128FE6"/>
<stop offset="0.835937" stop-color="#138EE6"/>
<stop offset="0.839844" stop-color="#138DE6"/>
<stop offset="0.84375" stop-color="#138CE7"/>
<stop offset="0.847656" stop-color="#138BE7"/>
<stop offset="0.851562" stop-color="#138AE7"/>
<stop offset="0.855469" stop-color="#1389E7"/>
<stop offset="0.859375" stop-color="#1388E8"/>
<stop offset="0.863281" stop-color="#1387E8"/>
<stop offset="0.867188" stop-color="#1486E8"/>
<stop offset="0.871094" stop-color="#1485E8"/>
<stop offset="0.875" stop-color="#1484E9"/>
<stop offset="0.878906" stop-color="#1484E9"/>
<stop offset="0.882812" stop-color="#1483E9"/>
<stop offset="0.890625" stop-color="#1483E9"/>
<stop offset="0.90625" stop-color="#1483E9"/>
<stop offset="0.9375" stop-color="#1483E9"/>
<stop offset="1" stop-color="#1483E9"/>
</linearGradient>
<linearGradient id="paint2_linear_1410_86" x1="-0.364776" y1="158.071" x2="-0.364776" y2="477.622" gradientUnits="userSpaceOnUse">
<stop stop-color="#B03AAB"/>
<stop offset="0.0078125" stop-color="#B03AAB"/>
<stop offset="0.0117187" stop-color="#AF3BAB"/>
<stop offset="0.015625" stop-color="#AE3CAB"/>
<stop offset="0.0195312" stop-color="#AD3EAC"/>
<stop offset="0.0234375" stop-color="#AB3FAC"/>
<stop offset="0.0273438" stop-color="#AA40AC"/>
<stop offset="0.03125" stop-color="#A842AD"/>
<stop offset="0.0351562" stop-color="#A743AD"/>
<stop offset="0.0390625" stop-color="#A545AD"/>
<stop offset="0.0429688" stop-color="#A446AE"/>
<stop offset="0.046875" stop-color="#A248AE"/>
<stop offset="0.0507813" stop-color="#A149AE"/>
<stop offset="0.0546875" stop-color="#9F4BAF"/>
<stop offset="0.0585937" stop-color="#9E4CAF"/>
<stop offset="0.0625" stop-color="#9D4EAF"/>
<stop offset="0.0664062" stop-color="#9B4FAF"/>
<stop offset="0.0703125" stop-color="#9A51B0"/>
<stop offset="0.0742187" stop-color="#9852B0"/>
<stop offset="0.078125" stop-color="#9754B0"/>
<stop offset="0.0820312" stop-color="#9555B1"/>
<stop offset="0.0859375" stop-color="#9457B1"/>
<stop offset="0.0898438" stop-color="#9258B1"/>
<stop offset="0.09375" stop-color="#915AB2"/>
<stop offset="0.0976563" stop-color="#905BB2"/>
<stop offset="0.101563" stop-color="#8E5CB2"/>
<stop offset="0.105469" stop-color="#8D5EB3"/>
<stop offset="0.109375" stop-color="#8B5FB3"/>
<stop offset="0.113281" stop-color="#8A61B3"/>
<stop offset="0.117187" stop-color="#8862B3"/>
<stop offset="0.121094" stop-color="#8764B4"/>
<stop offset="0.125" stop-color="#8565B4"/>
<stop offset="0.128906" stop-color="#8467B4"/>
<stop offset="0.132812" stop-color="#8368B5"/>
<stop offset="0.136719" stop-color="#816AB5"/>
<stop offset="0.140625" stop-color="#806BB5"/>
<stop offset="0.144531" stop-color="#7E6DB6"/>
<stop offset="0.148437" stop-color="#7D6EB6"/>
<stop offset="0.152344" stop-color="#7B70B6"/>
<stop offset="0.15625" stop-color="#7A71B7"/>
<stop offset="0.160156" stop-color="#7873B7"/>
<stop offset="0.164062" stop-color="#7774B7"/>
<stop offset="0.167969" stop-color="#7576B7"/>
<stop offset="0.171875" stop-color="#7477B8"/>
<stop offset="0.175781" stop-color="#7378B8"/>
<stop offset="0.179688" stop-color="#717AB8"/>
<stop offset="0.183594" stop-color="#707BB9"/>
<stop offset="0.1875" stop-color="#6E7DB9"/>
<stop offset="0.191406" stop-color="#6D7EB9"/>
<stop offset="0.195312" stop-color="#6B80BA"/>
<stop offset="0.199219" stop-color="#6A81BA"/>
<stop offset="0.203125" stop-color="#6883BA"/>
<stop offset="0.207031" stop-color="#6784BB"/>
<stop offset="0.210938" stop-color="#6686BB"/>
<stop offset="0.214844" stop-color="#6487BB"/>
<stop offset="0.21875" stop-color="#6389BB"/>
<stop offset="0.222656" stop-color="#618ABC"/>
<stop offset="0.226563" stop-color="#608CBC"/>
<stop offset="0.230469" stop-color="#5E8DBC"/>
<stop offset="0.234375" stop-color="#5D8FBD"/>
<stop offset="0.238281" stop-color="#5B90BD"/>
<stop offset="0.242188" stop-color="#5A92BD"/>
<stop offset="0.246094" stop-color="#5993BE"/>
<stop offset="0.25" stop-color="#5794BE"/>
<stop offset="0.253906" stop-color="#5696BE"/>
<stop offset="0.257812" stop-color="#5497BF"/>
<stop offset="0.261719" stop-color="#5399BF"/>
<stop offset="0.265625" stop-color="#519ABF"/>
<stop offset="0.269531" stop-color="#509CBF"/>
<stop offset="0.273438" stop-color="#4E9DC0"/>
<stop offset="0.277344" stop-color="#4D9FC0"/>
<stop offset="0.28125" stop-color="#4CA0C0"/>
<stop offset="0.285156" stop-color="#4AA2C1"/>
<stop offset="0.289062" stop-color="#49A3C1"/>
<stop offset="0.292969" stop-color="#47A5C1"/>
<stop offset="0.296875" stop-color="#46A6C2"/>
<stop offset="0.300781" stop-color="#44A8C2"/>
<stop offset="0.304687" stop-color="#43A9C2"/>
<stop offset="0.308594" stop-color="#41ABC3"/>
<stop offset="0.3125" stop-color="#40ACC3"/>
<stop offset="0.316406" stop-color="#3EAEC3"/>
<stop offset="0.320312" stop-color="#3DAFC3"/>
<stop offset="0.324219" stop-color="#3CB0C4"/>
<stop offset="0.328125" stop-color="#3AB2C4"/>
<stop offset="0.332031" stop-color="#39B3C4"/>
<stop offset="0.335938" stop-color="#37B5C5"/>
<stop offset="0.339844" stop-color="#36B6C5"/>
<stop offset="0.34375" stop-color="#34B8C5"/>
<stop offset="0.347656" stop-color="#33B9C6"/>
<stop offset="0.351562" stop-color="#31BBC6"/>
<stop offset="0.355469" stop-color="#30BCC6"/>
<stop offset="0.359375" stop-color="#2FBEC7"/>
<stop offset="0.363281" stop-color="#2DBFC7"/>
<stop offset="0.367188" stop-color="#2CC1C7"/>
<stop offset="0.371094" stop-color="#2AC2C7"/>
<stop offset="0.375" stop-color="#29C4C8"/>
<stop offset="0.378906" stop-color="#27C5C8"/>
<stop offset="0.382812" stop-color="#26C7C8"/>
<stop offset="0.386719" stop-color="#24C8C9"/>
<stop offset="0.390625" stop-color="#23CAC9"/>
<stop offset="0.394531" stop-color="#22CBC9"/>
<stop offset="0.398438" stop-color="#20CCCA"/>
<stop offset="0.402344" stop-color="#1FCECA"/>
<stop offset="0.40625" stop-color="#1DCFCA"/>
<stop offset="0.410156" stop-color="#1CD1CB"/>
<stop offset="0.414062" stop-color="#1AD2CB"/>
<stop offset="0.417969" stop-color="#19D4CB"/>
<stop offset="0.421875" stop-color="#17D5CC"/>
<stop offset="0.425781" stop-color="#16D7CC"/>
<stop offset="0.429688" stop-color="#14D8CC"/>
<stop offset="0.433594" stop-color="#13DACC"/>
<stop offset="0.4375" stop-color="#12DBCD"/>
<stop offset="0.441406" stop-color="#10DDCD"/>
<stop offset="0.445313" stop-color="#0FDECD"/>
<stop offset="0.449219" stop-color="#0DE0CE"/>
<stop offset="0.453125" stop-color="#0CE1CE"/>
<stop offset="0.457031" stop-color="#0AE3CE"/>
<stop offset="0.460938" stop-color="#09E4CF"/>
<stop offset="0.464844" stop-color="#08E5CF"/>
<stop offset="0.46875" stop-color="#07E5CF"/>
<stop offset="0.472656" stop-color="#07E5CF"/>
<stop offset="0.476562" stop-color="#07E4D0"/>
<stop offset="0.480469" stop-color="#07E3D0"/>
<stop offset="0.484375" stop-color="#07E2D0"/>
<stop offset="0.488281" stop-color="#08E1D0"/>
<stop offset="0.492187" stop-color="#08E1D0"/>
<stop offset="0.496094" stop-color="#08E0D1"/>
<stop offset="0.5" stop-color="#08DFD1"/>
<stop offset="0.503906" stop-color="#08DED1"/>
<stop offset="0.507813" stop-color="#08DDD1"/>
<stop offset="0.511719" stop-color="#08DDD1"/>
<stop offset="0.515625" stop-color="#08DCD2"/>
<stop offset="0.519531" stop-color="#08DBD2"/>
<stop offset="0.523438" stop-color="#09DAD2"/>
<stop offset="0.527344" stop-color="#09D9D2"/>
<stop offset="0.53125" stop-color="#09D9D3"/>
<stop offset="0.535156" stop-color="#09D8D3"/>
<stop offset="0.539062" stop-color="#09D7D3"/>
<stop offset="0.542969" stop-color="#09D6D3"/>
<stop offset="0.546875" stop-color="#09D5D3"/>
<stop offset="0.550781" stop-color="#09D5D4"/>
<stop offset="0.554688" stop-color="#09D4D4"/>
<stop offset="0.558594" stop-color="#0AD3D4"/>
<stop offset="0.5625" stop-color="#0AD2D4"/>
<stop offset="0.566406" stop-color="#0AD1D4"/>
<stop offset="0.570312" stop-color="#0AD0D5"/>
<stop offset="0.574219" stop-color="#0AD0D5"/>
<stop offset="0.578125" stop-color="#0ACFD5"/>
<stop offset="0.582031" stop-color="#0ACED5"/>
<stop offset="0.585938" stop-color="#0ACDD5"/>
<stop offset="0.589844" stop-color="#0ACCD6"/>
<stop offset="0.59375" stop-color="#0ACCD6"/>
<stop offset="0.597656" stop-color="#0BCBD6"/>
<stop offset="0.601562" stop-color="#0BCAD6"/>
<stop offset="0.605469" stop-color="#0BC9D7"/>
<stop offset="0.609375" stop-color="#0BC8D7"/>
<stop offset="0.613281" stop-color="#0BC8D7"/>
<stop offset="0.617187" stop-color="#0BC7D7"/>
<stop offset="0.621094" stop-color="#0BC6D7"/>
<stop offset="0.625" stop-color="#0BC5D8"/>
<stop offset="0.628906" stop-color="#0BC4D8"/>
<stop offset="0.632812" stop-color="#0CC4D8"/>
<stop offset="0.636719" stop-color="#0CC3D8"/>
<stop offset="0.640625" stop-color="#0CC2D8"/>
<stop offset="0.644531" stop-color="#0CC1D9"/>
<stop offset="0.648437" stop-color="#0CC0D9"/>
<stop offset="0.652344" stop-color="#0CC0D9"/>
<stop offset="0.65625" stop-color="#0CBFD9"/>
<stop offset="0.660156" stop-color="#0CBEDA"/>
<stop offset="0.664062" stop-color="#0CBDDA"/>
<stop offset="0.667969" stop-color="#0CBCDA"/>
<stop offset="0.671875" stop-color="#0DBCDA"/>
<stop offset="0.675781" stop-color="#0DBBDA"/>
<stop offset="0.679688" stop-color="#0DBADB"/>
<stop offset="0.683594" stop-color="#0DB9DB"/>
<stop offset="0.6875" stop-color="#0DB8DB"/>
<stop offset="0.691406" stop-color="#0DB7DB"/>
<stop offset="0.695313" stop-color="#0DB7DB"/>
<stop offset="0.699219" stop-color="#0DB6DC"/>
<stop offset="0.703125" stop-color="#0DB5DC"/>
<stop offset="0.707031" stop-color="#0EB4DC"/>
<stop offset="0.710938" stop-color="#0EB3DC"/>
<stop offset="0.714844" stop-color="#0EB3DC"/>
<stop offset="0.71875" stop-color="#0EB2DD"/>
<stop offset="0.722656" stop-color="#0EB1DD"/>
<stop offset="0.726562" stop-color="#0EB0DD"/>
<stop offset="0.730469" stop-color="#0EAFDD"/>
<stop offset="0.734375" stop-color="#0EAFDE"/>
<stop offset="0.738281" stop-color="#0EAEDE"/>
<stop offset="0.742188" stop-color="#0EADDE"/>
<stop offset="0.746094" stop-color="#0FACDE"/>
<stop offset="0.75" stop-color="#0FABDE"/>
<stop offset="0.753906" stop-color="#0FABDF"/>
<stop offset="0.757812" stop-color="#0FAADF"/>
<stop offset="0.761719" stop-color="#0FA9DF"/>
<stop offset="0.765625" stop-color="#0FA8DF"/>
<stop offset="0.769531" stop-color="#0FA7DF"/>
<stop offset="0.773438" stop-color="#0FA7E0"/>
<stop offset="0.777344" stop-color="#0FA6E0"/>
<stop offset="0.78125" stop-color="#10A5E0"/>
<stop offset="0.785156" stop-color="#10A4E0"/>
<stop offset="0.789062" stop-color="#10A3E1"/>
<stop offset="0.792969" stop-color="#10A3E1"/>
<stop offset="0.796875" stop-color="#10A2E1"/>
<stop offset="0.800781" stop-color="#10A1E1"/>
<stop offset="0.804687" stop-color="#10A0E1"/>
<stop offset="0.808594" stop-color="#109FE2"/>
<stop offset="0.8125" stop-color="#109FE2"/>
<stop offset="0.816406" stop-color="#109EE2"/>
<stop offset="0.820312" stop-color="#119DE2"/>
<stop offset="0.824219" stop-color="#119CE2"/>
<stop offset="0.828125" stop-color="#119BE3"/>
<stop offset="0.832031" stop-color="#119AE3"/>
<stop offset="0.835938" stop-color="#119AE3"/>
<stop offset="0.839844" stop-color="#1199E3"/>
<stop offset="0.84375" stop-color="#1198E3"/>
<stop offset="0.847656" stop-color="#1197E4"/>
<stop offset="0.851563" stop-color="#1196E4"/>
<stop offset="0.855469" stop-color="#1296E4"/>
<stop offset="0.859375" stop-color="#1295E4"/>
<stop offset="0.863281" stop-color="#1294E5"/>
<stop offset="0.867188" stop-color="#1293E5"/>
<stop offset="0.871094" stop-color="#1292E5"/>
<stop offset="0.875" stop-color="#1292E5"/>
<stop offset="0.878906" stop-color="#1291E5"/>
<stop offset="0.882813" stop-color="#1290E6"/>
<stop offset="0.886719" stop-color="#128FE6"/>
<stop offset="0.890625" stop-color="#138EE6"/>
<stop offset="0.894531" stop-color="#138EE6"/>
<stop offset="0.898438" stop-color="#138DE6"/>
<stop offset="0.902344" stop-color="#138CE7"/>
<stop offset="0.90625" stop-color="#138BE7"/>
<stop offset="0.910156" stop-color="#138AE7"/>
<stop offset="0.914062" stop-color="#138AE7"/>
<stop offset="0.917969" stop-color="#1389E7"/>
<stop offset="0.921875" stop-color="#1388E8"/>
<stop offset="0.925781" stop-color="#1387E8"/>
<stop offset="0.929688" stop-color="#1486E8"/>
<stop offset="0.933594" stop-color="#1486E8"/>
<stop offset="0.9375" stop-color="#1485E9"/>
<stop offset="0.941406" stop-color="#1484E9"/>
<stop offset="0.945312" stop-color="#1483E9"/>
<stop offset="0.953125" stop-color="#1483E9"/>
<stop offset="0.96875" stop-color="#1483E9"/>
<stop offset="1" stop-color="#1483E9"/>
</linearGradient>
<linearGradient id="paint3_linear_1410_86" x1="49.1469" y1="285.924" x2="49.1469" y2="341.142" gradientUnits="userSpaceOnUse">
<stop stop-color="#1FCDCA"/>
<stop offset="0.0078125" stop-color="#1FCDCA"/>
<stop offset="0.015625" stop-color="#1FCECA"/>
<stop offset="0.0234375" stop-color="#1ECECA"/>
<stop offset="0.03125" stop-color="#1ECFCA"/>
<stop offset="0.0390625" stop-color="#1DCFCA"/>
<stop offset="0.046875" stop-color="#1DD0CA"/>
<stop offset="0.0546875" stop-color="#1CD0CA"/>
<stop offset="0.0625" stop-color="#1CD1CB"/>
<stop offset="0.0703125" stop-color="#1BD1CB"/>
<stop offset="0.078125" stop-color="#1BD2CB"/>
<stop offset="0.0859375" stop-color="#1AD2CB"/>
<stop offset="0.09375" stop-color="#1AD3CB"/>
<stop offset="0.101562" stop-color="#19D3CB"/>
<stop offset="0.109375" stop-color="#19D4CB"/>
<stop offset="0.117188" stop-color="#18D4CB"/>
<stop offset="0.125" stop-color="#18D5CB"/>
<stop offset="0.132812" stop-color="#17D5CC"/>
<stop offset="0.140625" stop-color="#17D6CC"/>
<stop offset="0.148438" stop-color="#16D7CC"/>
<stop offset="0.15625" stop-color="#16D7CC"/>
<stop offset="0.164063" stop-color="#15D8CC"/>
<stop offset="0.171875" stop-color="#15D8CC"/>
<stop offset="0.179687" stop-color="#14D9CC"/>
<stop offset="0.1875" stop-color="#14D9CC"/>
<stop offset="0.195313" stop-color="#13DACC"/>
<stop offset="0.203125" stop-color="#13DACD"/>
<stop offset="0.210937" stop-color="#12DBCD"/>
<stop offset="0.21875" stop-color="#12DBCD"/>
<stop offset="0.226562" stop-color="#11DCCD"/>
<stop offset="0.234375" stop-color="#11DCCD"/>
<stop offset="0.242188" stop-color="#10DDCD"/>
<stop offset="0.25" stop-color="#10DDCD"/>
<stop offset="0.257812" stop-color="#0FDECD"/>
<stop offset="0.265625" stop-color="#0FDECD"/>
<stop offset="0.273438" stop-color="#0EDFCD"/>
<stop offset="0.28125" stop-color="#0EDFCE"/>
<stop offset="0.289063" stop-color="#0DE0CE"/>
<stop offset="0.296875" stop-color="#0DE0CE"/>
<stop offset="0.304687" stop-color="#0CE1CE"/>
<stop offset="0.3125" stop-color="#0CE1CE"/>
<stop offset="0.320313" stop-color="#0BE2CE"/>
<stop offset="0.328125" stop-color="#0BE2CE"/>
<stop offset="0.335937" stop-color="#0AE3CE"/>
<stop offset="0.34375" stop-color="#0AE3CE"/>
<stop offset="0.351562" stop-color="#09E4CF"/>
<stop offset="0.359375" stop-color="#09E4CF"/>
<stop offset="0.367188" stop-color="#08E5CF"/>
<stop offset="0.375" stop-color="#08E5CF"/>
<stop offset="0.40625" stop-color="#07E5CF"/>
<stop offset="0.421875" stop-color="#07E5CF"/>
<stop offset="0.4375" stop-color="#07E4CF"/>
<stop offset="0.453125" stop-color="#07E4D0"/>
<stop offset="0.46875" stop-color="#07E3D0"/>
<stop offset="0.484375" stop-color="#07E3D0"/>
<stop offset="0.5" stop-color="#08E2D0"/>
<stop offset="0.515625" stop-color="#08E2D0"/>
<stop offset="0.53125" stop-color="#08E1D0"/>
<stop offset="0.546875" stop-color="#08E0D0"/>
<stop offset="0.5625" stop-color="#08E0D1"/>
<stop offset="0.578125" stop-color="#08DFD1"/>
<stop offset="0.59375" stop-color="#08DFD1"/>
<stop offset="0.609375" stop-color="#08DED1"/>
<stop offset="0.625" stop-color="#08DED1"/>
<stop offset="0.640625" stop-color="#08DDD1"/>
<stop offset="0.65625" stop-color="#08DCD1"/>
<stop offset="0.671875" stop-color="#08DCD2"/>
<stop offset="0.6875" stop-color="#08DBD2"/>
<stop offset="0.703125" stop-color="#08DBD2"/>
<stop offset="0.71875" stop-color="#09DAD2"/>
<stop offset="0.734375" stop-color="#09DAD2"/>
<stop offset="0.75" stop-color="#09D9D2"/>
<stop offset="0.765625" stop-color="#09D9D3"/>
<stop offset="0.78125" stop-color="#09D8D3"/>
<stop offset="0.796875" stop-color="#09D7D3"/>
<stop offset="0.8125" stop-color="#09D7D3"/>
<stop offset="0.828125" stop-color="#09D6D3"/>
<stop offset="0.84375" stop-color="#09D6D3"/>
<stop offset="0.859375" stop-color="#09D5D3"/>
<stop offset="0.875" stop-color="#09D5D4"/>
<stop offset="0.890625" stop-color="#09D4D4"/>
<stop offset="0.90625" stop-color="#09D4D4"/>
<stop offset="0.921875" stop-color="#09D3D4"/>
<stop offset="0.9375" stop-color="#0AD2D4"/>
<stop offset="0.953125" stop-color="#0AD2D4"/>
<stop offset="0.96875" stop-color="#0AD1D4"/>
<stop offset="0.984375" stop-color="#0AD1D5"/>
<stop offset="1" stop-color="#0AD0D5"/>
</linearGradient>
<clipPath id="clip0_1410_86">
<rect width="318" height="636" fill="white"/>
</clipPath>
</defs>
</svg>
